<svg xmlns="http://www.w3.org/2000/svg" width="24" height="24" viewBox="0 0 24 24" fill="none">
  <path d="M22.5 18C22.5 15 20.5 12 17.5 11" stroke="#03AAC7" stroke-width="1.5"
    stroke-linecap="round" stroke-linejoin="round" />
  <circle cx="12" cy="8" r="4" stroke="currentColor" stroke-width="1.5" />
  <path d="M17.5 11C18.3967 10.4441 19 9.40508 19 8.21506C19 7.07322 18.4446 6.07041 17.6075 5.5"
    stroke="#03AAC7" stroke-width="1.5" stroke-linecap="round" />
  <path d="M1.5 18C1.5 15 3.5 12 6.5 11" stroke="#03AAC7" stroke-width="1.5" stroke-linecap="round"
    stroke-linejoin="round" />
  <path d="M6.5 11C5.6033 10.4441 5 9.40508 5 8.21506C5 7.07322 5.55543 6.07041 6.39254 5.5"
    stroke="#03AAC7" stroke-width="1.5" stroke-linecap="round" />
  <path
    d="M12 12C7.9197 12 4.55286 15.0547 4.06165 19.002C3.99344 19.55 4.44772 20 5 20H19C19.5523 20 20.0066 19.55 19.9384 19.002C19.4471 15.0547 16.0803 12 12 12Z"
    stroke="currentColor" stroke-width="1.5" stroke-linejoin="round" />
</svg>