<svg xmlns="http://www.w3.org/2000/svg" width="24" height="24" viewBox="0 0 24 24" fill="none">
  <path d="M14.1214 5.63599L18.364 9.87863" stroke="#03AAC7" stroke-width="1.5"
    stroke-linecap="round" />
  <path d="M5.63611 14.1213L9.87875 18.364" stroke="#03AAC7" stroke-width="1.5"
    stroke-linecap="round" />
  <path
    d="M15.5356 4.22176C15.9261 3.83123 16.5593 3.83123 16.9498 4.22176L19.7782 7.05018C20.1688 7.44071 20.1688 8.07387 19.7782 8.4644L9.05032 19.1923C8.86278 19.3799 8.60843 19.4852 8.34321 19.4852L5.51479 19.4852C4.9625 19.4852 4.51478 19.0375 4.51478 18.4852L4.51478 15.6568C4.51478 15.3916 4.62014 15.1372 4.80768 14.9497L15.5356 4.22176Z"
    stroke="currentColor" stroke-width="1.5" />
  <path
    d="M12.0001 7.75735L8.46457 4.22186C8.07404 3.83134 7.44088 3.83134 7.05035 4.22186L4.22193 7.05029C3.8314 7.44081 3.8314 8.07398 4.22193 8.4645L7.75742 12M16.2427 12L19.7783 15.5356C20.1688 15.9261 20.1688 16.5593 19.7783 16.9498L16.9498 19.7782C16.5593 20.1687 15.9262 20.1687 15.5356 19.7782L12.0001 16.2427"
    stroke="currentColor" stroke-width="1.5" />
</svg>