<svg t="1675128176768" class="icon" viewBox="0 0 1024 1024" version="1.1"
  xmlns="http://www.w3.org/2000/svg" p-id="17606" xmlns:xlink="http://www.w3.org/1999/xlink"
  width="48" height="48">
  <path
    d="M565.174857 292.059429a16.237714 16.237714 0 0 1 22.966857 0l199.204572 199.168a16.822857 16.822857 0 0 1 1.389714 1.243428l8.045714 8.045714a16.274286 16.274286 0 0 1 0 23.003429l-208.457143 208.457143a16.237714 16.237714 0 0 1-22.966857 0l-8.045714-8.045714a16.237714 16.237714 0 0 1 0-23.04l166.875429-166.838858H238.701714a16.237714 16.237714 0 0 1-16.237714-16.274285v-11.337143c0-8.996571 7.277714-16.274286 16.237714-16.274286h485.485715l-167.058286-167.094857a16.237714 16.237714 0 0 1 0-22.966857l8.045714-8.045714z"
    fill="#03AAC7" p-id="17607"></path>
</svg>