<svg width="32" height="32" viewBox="0 0 32 32" fill="none" xmlns="http://www.w3.org/2000/svg">
  <g clip-path="url(#clip0_3527_11857)">
    <path
      d="M16.42 28.84C23.2794 28.84 28.84 23.2794 28.84 16.42C28.84 9.56062 23.2794 4 16.42 4C9.56062 4 4 9.56062 4 16.42C4 23.2794 9.56062 28.84 16.42 28.84Z"
      stroke="var(--color-primary-text)" stroke-width="2" />
    <path
      d="M13.8699 9.50995C14.0499 9.30995 14.3099 9.19995 14.5699 9.19995H16.2899C16.5099 9.19995 16.6199 9.46995 16.4699 9.62995L13.0699 13.35H14.9499L16.8599 15.43H13.0699L16.8599 19.57H14.5699C14.2999 19.57 14.0499 19.47 13.8699 19.27L10.0199 15.06C9.67989 14.69 9.67989 14.09 10.0199 13.72L13.8699 9.50995Z"
      fill="var(--color-primary)" />
    <path
      d="M18.97 23.3399C18.79 23.5399 18.53 23.6499 18.27 23.6499H16.55C16.33 23.6499 16.22 23.3799 16.37 23.2199L19.77 19.4999H17.89L15.98 17.4199H19.77L15.98 13.2799H18.27C18.54 13.2799 18.79 13.3799 18.97 13.5799L22.82 17.7899C23.16 18.1599 23.16 18.7599 22.82 19.1299L18.97 23.3399Z"
      fill="var(--color-primary)" />
  </g>
  <defs>
    <clipPath id="clip0_3527_11857">
      <rect width="26.85" height="26.85" fill="white" transform="translate(3 3)" />
    </clipPath>
  </defs>
</svg>