<svg xmlns="http://www.w3.org/2000/svg" width="24" height="24" viewBox="0 0 24 24" fill="none">
  <path d="M5 6L19 6" stroke="currentColor" stroke-width="1.5" stroke-linecap="round" />
  <path d="M9.5 17L14.5 12" stroke="currentColor" stroke-width="1.5" stroke-linecap="round" />
  <path d="M5 3L19 3" stroke="#03AAC7" stroke-width="1.5" stroke-linecap="round" />
  <path
    d="M21 12.05L21.1492 12.785C21.4988 12.7141 21.75 12.4067 21.75 12.05H21ZM21 16.95H21.75C21.75 16.5933 21.4988 16.2859 21.1492 16.215L21 16.95ZM3 16.95L2.8508 16.215C2.50123 16.2859 2.25 16.5933 2.25 16.95H3ZM3 12.05H2.25C2.25 12.4067 2.50123 12.7141 2.8508 12.785L3 12.05ZM4 8.25C3.0335 8.25 2.25 9.0335 2.25 10H3.75C3.75 9.86193 3.86193 9.75 4 9.75V8.25ZM20 8.25H4V9.75H20V8.25ZM21.75 10C21.75 9.0335 20.9665 8.25 20 8.25V9.75C20.1381 9.75 20.25 9.86193 20.25 10H21.75ZM21.75 12.05V10H20.25V12.05H21.75ZM19.75 14.5C19.75 13.6542 20.3507 12.9471 21.1492 12.785L20.8508 11.315C19.367 11.6162 18.25 12.9268 18.25 14.5H19.75ZM21.1492 16.215C20.3507 16.0529 19.75 15.3458 19.75 14.5H18.25C18.25 16.0732 19.367 17.3838 20.8508 17.685L21.1492 16.215ZM21.75 19V16.95H20.25V19H21.75ZM20 20.75C20.9665 20.75 21.75 19.9665 21.75 19H20.25C20.25 19.1381 20.1381 19.25 20 19.25V20.75ZM4 20.75H20V19.25H4V20.75ZM2.25 19C2.25 19.9665 3.0335 20.75 4 20.75V19.25C3.86193 19.25 3.75 19.1381 3.75 19H2.25ZM2.25 16.95V19H3.75V16.95H2.25ZM4.25 14.5C4.25 15.3458 3.64927 16.0529 2.8508 16.215L3.1492 17.685C4.63297 17.3838 5.75 16.0732 5.75 14.5H4.25ZM2.8508 12.785C3.64927 12.9471 4.25 13.6542 4.25 14.5H5.75C5.75 12.9268 4.63297 11.6162 3.1492 11.315L2.8508 12.785ZM2.25 10V12.05H3.75V10H2.25Z"
    fill="currentColor" />
  <circle cx="9" cy="13" r="1" fill="currentColor" />
  <circle cx="15" cy="16" r="1" fill="currentColor" />
</svg>