<svg width="24" height="24" viewBox="0 0 24 24" fill="none" xmlns="http://www.w3.org/2000/svg">
  <path d="M20.5 9L15.5 15.5" stroke="#03AAC7" stroke-width="1.5" />
  <path d="M3.5 9L8.5 15.5" stroke="#03AAC7" stroke-width="1.5" />
  <path d="M9 9L10.5 14.5" stroke="#03AAC7" stroke-width="1.5" />
  <path d="M15 9L13.5 14.5" stroke="#03AAC7" stroke-width="1.5" />
  <path
    d="M12 22C14.2091 22 16 20.2091 16 18C16 15.7909 14.2091 14 12 14C9.79086 14 8 15.7909 8 18C8 20.2091 9.79086 22 12 22Z"
    stroke="currentColor" stroke-width="1.5" />
  <path
    d="M12 3C8.08134 3 4.74762 5.50442 3.51212 9C3.51212 9 5 8 6.5 8C8 8 9 9 9 9C9 9 10.5 8 12 8C13.5 8 15 9 15 9C15 9 16 8 17.5 8C19 8 20.4879 9 20.4879 9C19.2524 5.50442 15.9187 3 12 3Z"
    stroke="currentColor" stroke-width="1.5" stroke-linejoin="round" />
</svg>
  