<svg width="38" height="38" viewBox="0 0 38 38" fill="none" xmlns="http://www.w3.org/2000/svg">
  <path fill-rule="evenodd" clip-rule="evenodd"
    d="M30.7916 14.9586C31.4585 14.9586 31.9991 14.418 31.9991 13.7511V7.85135C32.0094 7.59103 31.9324 7.33473 31.7801 7.12331C31.6279 6.91188 31.4093 6.7575 31.1591 6.68476L18.3266 3.04498C18.1169 2.98501 17.8946 2.98501 17.685 3.04498L4.85241 6.68476C4.60007 6.75532 4.37883 6.90878 4.22434 7.12041C4.06985 7.33204 3.99112 7.58951 4.0008 7.85135V22.2821C4.02466 24.306 4.75505 26.2578 6.06566 27.8001C6.78279 28.6581 7.63368 29.3948 8.58551 29.9817L13.9365 33.383C14.7132 33.8767 15.729 33.3187 15.729 32.3984C15.729 31.9989 15.5246 31.6271 15.1873 31.4132L9.82209 28.0101C9.07805 27.5609 8.41215 26.9935 7.85055 26.3302C6.88526 25.1991 6.34118 23.7688 6.31065 22.2821V8.73796L17.9183 5.42483L29.5842 8.73796V13.7511C29.5842 14.418 30.1248 14.9586 30.7916 14.9586Z"
    fill="currentColor" />
  <path d="M27.1445 28.1611H24.8662V30.4394H27.1445V28.1611Z" fill="#1DA2B4" />
  <path fill-rule="evenodd" clip-rule="evenodd"
    d="M23.3514 22.9325C23.3514 21.4656 24.5387 20.2783 26.0056 20.2783C27.4725 20.2783 28.6598 21.4656 28.6598 22.9325V24.2877H23.3514V22.9325ZM21.0731 24.2877V22.9325C21.0731 20.2073 23.2804 18 26.0056 18C28.7307 18 30.938 20.2073 30.938 22.9325V24.2877H31.8609C32.49 24.2877 33 24.7977 33 25.4269V33.1844C33 33.8135 32.49 34.3235 31.8609 34.3235H20.1391C19.51 34.3235 19 33.8135 19 33.1844V25.4269C19 24.7977 19.51 24.2877 20.1391 24.2877H21.0731ZM21.2783 32.0453V26.566H30.7217V32.0453H21.2783Z"
    fill="#1DA2B4" />
</svg>
  