<svg width="32" height="32" viewBox="0 0 32 32" fill="none" xmlns="http://www.w3.org/2000/svg">
      <path fill-rule="evenodd" clip-rule="evenodd"
            d="M16.2377 8.66667L13.5377 6H5V26H28V8.66667H16.2377ZM14.3589 4L17.0589 6.66667H28.65C29.008 6.66667 29.3514 6.80714 29.6046 7.05719C29.8578 7.30724 30 7.64638 30 8V26.6667C30 27.0203 29.8578 27.3594 29.6046 27.6095C29.3514 27.8595 29.008 28 28.65 28H4.35C3.99196 28 3.64858 27.8595 3.39541 27.6095C3.14223 27.3594 3 27.0203 3 26.6667V5.33333C3 4.97971 3.14223 4.64057 3.39541 4.39052C3.64858 4.14048 3.99196 4 4.35 4H14.3589Z"
            fill="var(--color-primary-text)" />
      <path fill-rule="evenodd" clip-rule="evenodd"
            d="M16.5 12C17.0523 12 17.5 12.4477 17.5 13V21C17.5 21.5523 17.0523 22 16.5 22C15.9477 22 15.5 21.5523 15.5 21V13C15.5 12.4477 15.9477 12 16.5 12Z"
            fill="var(--color-primary)" />
      <path fill-rule="evenodd" clip-rule="evenodd"
            d="M11.7929 16.2929C12.1834 15.9024 12.8166 15.9024 13.2071 16.2929L16.5 19.5858L19.7929 16.2929C20.1834 15.9024 20.8166 15.9024 21.2071 16.2929C21.5976 16.6834 21.5976 17.3166 21.2071 17.7071L17.2071 21.7071C16.8166 22.0976 16.1834 22.0976 15.7929 21.7071L11.7929 17.7071C11.4024 17.3166 11.4024 16.6834 11.7929 16.2929Z"
            fill="var(--color-primary)" />
</svg>