<svg width="32" height="32" viewBox="0 0 32 32" fill="none" xmlns="http://www.w3.org/2000/svg">
  <path fill-rule="evenodd" clip-rule="evenodd"
    d="M15.9999 3.66699C10.479 3.66699 5.80294 7.2953 4.23107 12.3C4.06557 12.8269 3.50427 13.1199 2.97737 12.9544C2.45046 12.7889 2.15748 12.2276 2.32297 11.7007C4.14913 5.88639 9.58048 1.66699 15.9999 1.66699C22.4194 1.66699 27.8508 5.88639 29.6769 11.7007C29.8424 12.2276 29.5494 12.7889 29.0225 12.9544C28.4956 13.1199 27.9343 12.8269 27.7688 12.3C26.197 7.2953 21.5209 3.66699 15.9999 3.66699ZM2.97737 19.0463C3.50427 18.8808 4.06557 19.1738 4.23107 19.7007C5.80294 24.7053 10.479 28.3337 15.9999 28.3337C21.5209 28.3337 26.197 24.7053 27.7688 19.7007C27.9343 19.1738 28.4956 18.8808 29.0225 19.0463C29.5494 19.2118 29.8424 19.7731 29.6769 20.3C27.8508 26.1143 22.4194 30.3337 15.9999 30.3337C9.58048 30.3337 4.14913 26.1143 2.32297 20.3C2.15748 19.7731 2.45046 19.2118 2.97737 19.0463Z"
    fill="currentColor" />
  <path fill-rule="evenodd" clip-rule="evenodd"
    d="M17 10.667C17 10.1147 17.4477 9.66699 18 9.66699H21.3333C21.8856 9.66699 22.3333 10.1147 22.3333 10.667H21.3333C22.3333 10.667 22.3333 10.6677 22.3333 10.6685L22.3333 10.6702L22.3333 10.674L22.3332 10.6838L22.3327 10.7114C22.3322 10.7333 22.3313 10.7623 22.3296 10.7979C22.3262 10.8691 22.3198 10.9672 22.3075 11.0894C22.2831 11.3337 22.2355 11.6752 22.1429 12.0923C21.9575 12.9264 21.5913 14.0645 20.8682 15.3298C19.4119 17.8784 16.5555 20.86 11.0178 22.9367C10.5007 23.1306 9.92426 22.8686 9.73034 22.3514C9.53642 21.8343 9.79842 21.2579 10.3155 21.064C15.4445 19.1406 17.9214 16.4556 19.1318 14.3375C19.7395 13.274 20.0399 12.3324 20.1886 11.667H18C17.4477 11.667 17 11.2193 17 10.667Z"
    fill="#03AAC7" />
</svg>