<svg width="32" height="32" viewBox="0 0 32 32" fill="none" xmlns="http://www.w3.org/2000/svg">
  <path
    d="M7.33335 17H8.33335V15H7.33335V17ZM10.6667 29C11.219 29 11.6667 28.5523 11.6667 28C11.6667 27.4477 11.219 27 10.6667 27V29ZM3.66669 17H7.33335V15H3.66669V17ZM10.6667 27H3.66669V29H10.6667V27ZM3.66669 27V17H1.66669V27H3.66669ZM3.66669 27H1.66669C1.66669 28.1046 2.56212 29 3.66669 29V27ZM3.66669 15C2.56212 15 1.66669 15.8954 1.66669 17H3.66669L3.66669 17V15Z"
    fill="#03AAC7" />
  <rect x="8" y="4" width="20" height="24" rx="1" stroke="#0D0E0E" stroke-width="2" />
  <path fill-rule="evenodd" clip-rule="evenodd"
    d="M11 12C11 11.4477 11.4477 11 12 11C13.0914 11 15.0687 11.5271 16.9304 13.1963C16.2793 13.4448 15.7371 13.9136 15.3947 14.5115C13.9633 13.311 12.5654 13 12 13C11.4477 13 11 12.5523 11 12ZM15.3947 17.4885C13.9633 18.689 12.5654 19 12 19C11.4477 19 11 19.4477 11 20C11 20.5523 11.4477 21 12 21C13.0914 21 15.0687 20.4729 16.9304 18.8037C16.2793 18.5552 15.7371 18.0864 15.3947 17.4885ZM19.0696 18.8037C20.9313 20.4729 22.9086 21 24 21C24.5523 21 25 20.5523 25 20C25 19.4477 24.5523 19 24 19C23.4346 19 22.0367 18.689 20.6053 17.4885C20.2629 18.0864 19.7207 18.5552 19.0696 18.8037ZM20.6053 14.5115C22.0367 13.311 23.4346 13 24 13C24.5523 13 25 12.5523 25 12C25 11.4477 24.5523 11 24 11C22.9086 11 20.9313 11.5271 19.0696 13.1963C19.7207 13.4448 20.2629 13.9136 20.6053 14.5115Z"
    fill="#0D0E0E" />
  <path fill-rule="evenodd" clip-rule="evenodd"
    d="M18 17C18.5523 17 19 16.5523 19 16C19 15.4477 18.5523 15 18 15C17.4477 15 17 15.4477 17 16C17 16.5523 17.4477 17 18 17Z"
    fill="#0D0E0E" />
</svg>