<svg width="32" height="32" viewBox="0 0 32 32" fill="none" xmlns="http://www.w3.org/2000/svg">
  <path
    d="M3 12.3333C4.69902 6.92386 9.75274 3 15.7229 3C21.6931 3 26.7468 6.92386 28.4459 12.3333M28.4459 20.3333C26.7468 25.7428 21.6931 29.6667 15.7229 29.6667C9.75274 29.6667 4.69902 25.7428 3 20.3333"
    stroke="#0D0E0E" stroke-width="2" stroke-linecap="round" />
  <path fill-rule="evenodd" clip-rule="evenodd"
    d="M10 11.5C9.44772 11.5 9 11.9477 9 12.5C9 13.0523 9.44772 13.5 10 13.5C10.5654 13.5 11.9633 13.811 13.3947 15.0115C13.7371 14.4136 14.2793 13.9448 14.9304 13.6963C13.0687 12.0271 11.0914 11.5 10 11.5ZM10 19.5C10.5654 19.5 11.9633 19.189 13.3947 17.9885C13.7371 18.5864 14.2793 19.0552 14.9304 19.3037C13.0687 20.9729 11.0914 21.5 10 21.5C9.44772 21.5 9 21.0523 9 20.5C9 19.9477 9.44772 19.5 10 19.5ZM22 21.5C20.9086 21.5 18.9313 20.9729 17.0696 19.3037C17.7207 19.0552 18.2629 18.5864 18.6053 17.9885C20.0367 19.189 21.4346 19.5 22 19.5C22.5523 19.5 23 19.9477 23 20.5C23 21.0523 22.5523 21.5 22 21.5ZM22 13.5C21.4346 13.5 20.0367 13.811 18.6053 15.0115C18.2629 14.4136 17.7207 13.9448 17.0696 13.6963C18.9313 12.0271 20.9086 11.5 22 11.5C22.5523 11.5 23 11.9477 23 12.5C23 13.0523 22.5523 13.5 22 13.5ZM17 16.5C17 17.0523 16.5523 17.5 16 17.5C15.4477 17.5 15 17.0523 15 16.5C15 15.9477 15.4477 15.5 16 15.5C16.5523 15.5 17 15.9477 17 16.5Z"
    fill="#03AAC7" />
</svg>