<svg width="32" height="32" viewBox="0 0 32 32" fill="none" xmlns="http://www.w3.org/2000/svg">
  <path fill-rule="evenodd" clip-rule="evenodd"
    d="M15.9999 3.66699C10.479 3.66699 5.80294 7.2953 4.23107 12.3C4.06558 12.8269 3.50428 13.1199 2.97737 12.9544C2.45046 12.7889 2.15748 12.2276 2.32297 11.7007C4.14913 5.88639 9.58048 1.66699 15.9999 1.66699C22.4194 1.66699 27.8508 5.88639 29.6769 11.7007C29.8424 12.2276 29.5494 12.7889 29.0225 12.9544C28.4956 13.1199 27.9343 12.8269 27.7688 12.3C26.197 7.2953 21.5209 3.66699 15.9999 3.66699ZM2.97737 19.0463C3.50428 18.8808 4.06558 19.1738 4.23107 19.7007C5.80294 24.7053 10.479 28.3337 15.9999 28.3337C21.5209 28.3337 26.197 24.7053 27.7688 19.7007C27.9343 19.1738 28.4956 18.8808 29.0225 19.0463C29.5494 19.2118 29.8424 19.7731 29.6769 20.3C27.8508 26.1143 22.4194 30.3337 15.9999 30.3337C9.58048 30.3337 4.14913 26.1143 2.32297 20.3C2.15748 19.7731 2.45046 19.2118 2.97737 19.0463Z"
    fill="currentColor" />
  <path fill-rule="evenodd" clip-rule="evenodd"
    d="M26.0926 12.6822C26.452 13.1016 26.4035 13.7329 25.9841 14.0923L19.7619 19.4256C19.3874 19.7466 18.8348 19.7466 18.4603 19.4256L12.8889 14.6501L7.31746 19.4256C6.89813 19.785 6.26683 19.7365 5.90741 19.3172C5.54799 18.8978 5.59655 18.2665 6.01588 17.9071L12.2381 12.5738C12.6126 12.2528 13.1652 12.2528 13.5397 12.5738L19.1111 17.3493L24.6825 12.5738C25.1019 12.2143 25.7332 12.2629 26.0926 12.6822Z"
    fill="#03AAC7" />
</svg>