<svg width="32" height="32" viewBox="0 0 32 32" fill="none" xmlns="http://www.w3.org/2000/svg">
  <path fill-rule="evenodd" clip-rule="evenodd"
    d="M1.66667 17C1.66667 15.8954 2.5621 15 3.66667 15H8.33333V17L3.66667 17V27H10.6667C11.219 27 11.6667 27.4477 11.6667 28C11.6667 28.5523 11.219 29 10.6667 29H3.66667C2.5621 29 1.66667 28.1046 1.66667 27V17Z"
    fill="#03AAC7" />
  <path fill-rule="evenodd" clip-rule="evenodd"
    d="M7 5C7 3.89543 7.89543 3 9 3H27C28.1046 3 29 3.89543 29 5V27C29 28.1046 28.1046 29 27 29H9C7.89543 29 7 28.1046 7 27V5ZM27 5L9 5V27H27V5Z"
    fill="currentColor" />
  <path fill-rule="evenodd" clip-rule="evenodd"
    d="M19.6667 10.667C19.6667 10.1147 20.1144 9.66699 20.6667 9.66699H24C24.5523 9.66699 25 10.1147 25 10.667H24C25 10.667 25 10.6677 25 10.6685L25 10.6702L25 10.674L24.9999 10.6838L24.9994 10.7114C24.9989 10.7333 24.998 10.7623 24.9963 10.7979C24.9929 10.8691 24.9864 10.9672 24.9742 11.0894C24.9498 11.3337 24.9022 11.6752 24.8095 12.0923C24.6241 12.9264 24.2579 14.0645 23.5349 15.3298C22.0786 17.8784 19.2221 20.86 13.6845 22.9367C13.1673 23.1306 12.5909 22.8686 12.397 22.3514C12.2031 21.8343 12.4651 21.2579 12.9822 21.064C18.1112 19.1406 20.5881 16.4556 21.7984 14.3375C22.4061 13.274 22.7066 12.3324 22.8552 11.667H20.6667C20.1144 11.667 19.6667 11.2193 19.6667 10.667Z"
    fill="currentColor" />
</svg>