<svg width="32" height="32" viewBox="0 0 32 32" fill="none" xmlns="http://www.w3.org/2000/svg">
  <path fill-rule="evenodd" clip-rule="evenodd"
    d="M1.66666 17C1.66666 15.8954 2.56209 15 3.66666 15H8.33333V17L3.66666 17V27H10.6667C11.2189 27 11.6667 27.4477 11.6667 28C11.6667 28.5523 11.2189 29 10.6667 29H3.66666C2.56209 29 1.66666 28.1046 1.66666 27V17Z"
    fill="#03AAC7" />
  <path fill-rule="evenodd" clip-rule="evenodd"
    d="M7 5C7 3.89543 7.89543 3 9 3H27C28.1046 3 29 3.89543 29 5V27C29 28.1046 28.1046 29 27 29H9C7.89543 29 7 28.1046 7 27V5ZM27 5L9 5V27H27V5Z"
    fill="currentColor" />
  <path fill-rule="evenodd" clip-rule="evenodd"
    d="M11 9.33301C11 8.78072 11.4477 8.33301 12 8.33301H16C16.5523 8.33301 17 8.78072 17 9.33301C17 9.88529 16.5523 10.333 16 10.333H12C11.4477 10.333 11 9.88529 11 9.33301Z"
    fill="currentColor" />
  <path fill-rule="evenodd" clip-rule="evenodd"
    d="M11 14.667C11 14.1147 11.4477 13.667 12 13.667H20C20.5523 13.667 21 14.1147 21 14.667C21 15.2193 20.5523 15.667 20 15.667H12C11.4477 15.667 11 15.2193 11 14.667Z"
    fill="currentColor" />
</svg>