<svg width="32" height="32" viewBox="0 0 32 32" fill="none" xmlns="http://www.w3.org/2000/svg">
  <path fill-rule="evenodd" clip-rule="evenodd"
    d="M3 7.66699C3 6.56243 3.89543 5.66699 5 5.66699H27C28.1046 5.66699 29 6.56242 29 7.66699V27.0003C29 28.1049 28.1046 29.0003 27 29.0003H5C3.89543 29.0003 3 28.1049 3 27.0003V7.66699ZM5 7.66699V27.0003L27 27.0003V7.66699L5 7.66699Z"
    fill="currentColor" />
  <path fill-rule="evenodd" clip-rule="evenodd"
    d="M17 12C17 11.4477 17.4477 11 18 11H21.3333C21.8856 11 22.3333 11.4477 22.3333 12H21.3333C22.3333 12 22.3333 12.0007 22.3333 12.0015L22.3333 12.0032L22.3333 12.0071L22.3332 12.0168L22.3327 12.0444C22.3322 12.0663 22.3313 12.0953 22.3296 12.1309C22.3262 12.2021 22.3198 12.3002 22.3075 12.4224C22.2831 12.6668 22.2355 13.0083 22.1429 13.4253C21.9575 14.2594 21.5913 15.3975 20.8682 16.6628C19.4119 19.2114 16.5555 22.193 11.0178 24.2697C10.5007 24.4636 9.92426 24.2016 9.73034 23.6845C9.53642 23.1673 9.79842 22.5909 10.3155 22.397C15.4445 20.4736 17.9214 17.7886 19.1318 15.6705C19.7395 14.607 20.0399 13.6654 20.1886 13H18C17.4477 13 17 12.5523 17 12Z"
    fill="#03AAC7" />
  <path fill-rule="evenodd" clip-rule="evenodd"
    d="M10.6667 3C11.2189 3 11.6667 3.44772 11.6667 4V6.66667C11.6667 7.21895 11.2189 7.66667 10.6667 7.66667C10.1144 7.66667 9.66666 7.21895 9.66666 6.66667V4C9.66666 3.44772 10.1144 3 10.6667 3Z"
    fill="currentColor" />
  <path fill-rule="evenodd" clip-rule="evenodd"
    d="M21.3333 3C21.8856 3 22.3333 3.44772 22.3333 4V6.66667C22.3333 7.21895 21.8856 7.66667 21.3333 7.66667C20.7811 7.66667 20.3333 7.21895 20.3333 6.66667V4C20.3333 3.44772 20.7811 3 21.3333 3Z"
    fill="currentColor" />
</svg>