<svg width="24" height="24" viewBox="0 0 24 24" fill="none" xmlns="http://www.w3.org/2000/svg">
  <path
    d="M9.46625 3.45227H4.96629C4.56847 3.45227 4.18695 3.6103 3.90564 3.89161C3.62434 4.17291 3.46631 4.55443 3.46631 4.95226V9.45221C3.46631 9.85003 3.62434 10.2316 3.90564 10.5129C4.18695 10.7942 4.56847 10.9522 4.96629 10.9522H9.46625C9.86407 10.9522 10.2456 10.7942 10.5269 10.5129C10.8082 10.2316 10.9662 9.85003 10.9662 9.45221V4.95226C10.9662 4.55443 10.8082 4.17291 10.5269 3.89161C10.2456 3.6103 9.86407 3.45227 9.46625 3.45227ZM9.46625 9.45221H4.96629V4.95226H9.46625V9.45221ZM19.0103 3.45227H14.5103C14.1125 3.45227 13.731 3.6103 13.4497 3.89161C13.1684 4.17291 13.0103 4.55443 13.0103 4.95226V9.45221C13.0103 9.85003 13.1684 10.2316 13.4497 10.5129C13.731 10.7942 14.1125 10.9522 14.5103 10.9522H19.0103C19.4081 10.9522 19.7896 10.7942 20.0709 10.5129C20.3522 10.2316 20.5103 9.85003 20.5103 9.45221V4.95226C20.5103 4.55443 20.3522 4.17291 20.0709 3.89161C19.7896 3.6103 19.4081 3.45227 19.0103 3.45227ZM19.0103 9.45221H14.5103V4.95226H19.0103V9.45221ZM9.46625 13.0689H4.96629C4.56847 13.0689 4.18695 13.2269 3.90564 13.5082C3.62434 13.7895 3.46631 14.171 3.46631 14.5689V19.0688C3.46631 19.4666 3.62434 19.8482 3.90564 20.1295C4.18695 20.4108 4.56847 20.5688 4.96629 20.5688H9.46625C9.86407 20.5688 10.2456 20.4108 10.5269 20.1295C10.8082 19.8482 10.9662 19.4666 10.9662 19.0688V14.5689C10.9662 14.171 10.8082 13.7895 10.5269 13.5082C10.2456 13.2269 9.86407 13.0689 9.46625 13.0689ZM9.46625 19.0688H4.96629V14.5689H9.46625V19.0688Z"
    fill="currentColor" />
  <path fill-rule="evenodd" clip-rule="evenodd"
    d="M21.2864 15.9465L18.1045 12.7646C17.8232 12.4833 17.4416 12.3252 17.0438 12.3252C16.646 12.3252 16.2645 12.4833 15.9832 12.7646L12.8012 15.9465C12.5199 16.2278 12.3619 16.6093 12.3619 17.0072C12.3619 17.405 12.5199 17.7865 12.8012 18.0678L15.9832 21.2498C16.2645 21.5311 16.646 21.6891 17.0438 21.6891C17.4416 21.6891 17.8232 21.5311 18.1045 21.2498L21.2864 18.0678C21.5677 17.7865 21.7258 17.405 21.7258 17.0072C21.7258 16.6093 21.5677 16.2278 21.2864 15.9465ZM17.0438 20.1891L13.8619 17.0072L17.0438 13.8252L20.2258 17.0072L17.0438 20.1891Z"
    fill="var(--group-primary)" />
</svg>