<svg width="24" height="24" viewBox="0 0 24 24" fill="none" xmlns="http://www.w3.org/2000/svg">
  <path
    d="M9 3H5C4.44772 3 4 3.44771 4 4V16.2222C4 16.7745 4.44772 17.2222 5 17.2222H19C19.5523 17.2222 20 16.7745 20 16.2222V13.6667"
    stroke="currentColor" stroke-width="1.5" stroke-linecap="round" stroke-linejoin="round" />
  <path d="M19 17H4V20C4 20.5523 4.44772 21 5 21H20" stroke="currentColor" stroke-width="1.5"
    stroke-linecap="round" />
  <circle cx="16" cy="7" r="4.25" stroke="currentColor" stroke-width="1.5" />
  <mask id="path-4-inside-1_939_2429" fill="white">
    <path d="M15 7.0001L16.0606 5.93944L17.1213 7.0001L16.0606 8.06076L15 7.0001Z" />
  </mask>
  <path
    d="M15 7.0001L13.9393 5.93944L12.8787 7.0001L13.9393 8.06076L15 7.0001ZM16.0606 5.93944L17.1213 4.87878L16.0606 3.81812L15 4.87878L16.0606 5.93944ZM17.1213 7.0001L18.182 8.06076L19.2426 7.0001L18.182 5.93944L17.1213 7.0001ZM16.0606 8.06076L15 9.12142L16.0606 10.1821L17.1213 9.12142L16.0606 8.06076ZM16.0606 8.06076L17.1213 7.0001L15 4.87878L13.9393 5.93944L16.0606 8.06076ZM15 7.0001L16.0606 8.06076L18.182 5.93944L17.1213 4.87878L15 7.0001ZM16.0606 5.93944L15 7.0001L17.1213 9.12142L18.182 8.06076L16.0606 5.93944ZM17.1213 7.0001L16.0606 5.93944L13.9393 8.06076L15 9.12142L17.1213 7.0001Z"
    fill="#03AAC7" mask="url(#path-4-inside-1_939_2429)" />
</svg>


  