<svg xmlns="http://www.w3.org/2000/svg" width="24" height="24" viewBox="0 0 24 24" fill="none">
  <path
    d="M12 21C16.9706 21 21 16.9706 21 12C21 7.02944 16.9706 3 12 3C7.02944 3 3 7.02944 3 12C3 16.9706 7.02944 21 12 21Z"
    stroke="currentColor" stroke-width="1.5" />
  <path d="M12.7551 10H17L14.9224 17H11" stroke="currentColor" stroke-width="1.5"
    stroke-linecap="round"
    stroke-linejoin="round" />
  <path
    d="M13.9623 9.25H11.4838C11.2495 9.25 11.1349 9.5315 11.3016 9.6931L13.7801 12.1744C13.9415 12.336 14.2227 12.2214 14.2227 11.992V9.51065C14.2227 9.36468 14.1081 9.25 13.9623 9.25Z"
    fill="currentColor" />
  <path d="M11.2449 14L7 14L9.07755 7L13 7" stroke="#03AAC7" stroke-width="1.5"
    stroke-linecap="round" stroke-linejoin="round" />
  <path
    d="M10.0377 14.75L12.5162 14.75C12.7505 14.75 12.8651 14.4685 12.6984 14.3069L10.2199 11.8256C10.0585 11.664 9.77734 11.7786 9.77734 12.008L9.77734 14.4894C9.77734 14.6353 9.8919 14.75 10.0377 14.75Z"
    fill="#03AAC7" />
</svg>