<svg width="32" height="32" viewBox="0 0 32 32" fill="none" xmlns="http://www.w3.org/2000/svg">
  <path d="M17.082 24.5801H15.332V26.3301H17.082V24.5801Z" fill="var(--color-primary)" />
  <path
    d="M28.0195 30H4.01953C3.75431 30 3.49996 29.8947 3.31242 29.7071C3.12489 29.5196 3.01953 29.2652 3.01953 29V9.52002C3.01953 9.2548 3.12489 9.00046 3.31242 8.81292C3.49996 8.62538 3.75431 8.52002 4.01953 8.52002H28.0195C28.2847 8.52002 28.5391 8.62538 28.7266 8.81292C28.9142 9.00046 29.0195 9.2548 29.0195 9.52002V29C29.0195 29.2652 28.9142 29.5196 28.7266 29.7071C28.5391 29.8947 28.2847 30 28.0195 30ZM5.01953 28H27.0195V10.52H5.01953V28Z"
    fill="var(--color-primary-text)" />
  <path
    d="M28.0191 10.5199H4.01913C3.84825 10.5191 3.68039 10.4747 3.53159 10.3906C3.38278 10.3066 3.25799 10.1858 3.16913 10.0399C3.08136 9.88785 3.03516 9.7154 3.03516 9.53987C3.03516 9.36433 3.08136 9.19188 3.16913 9.03987L6.34914 2.89987C6.43361 2.73682 6.56133 2.60018 6.71832 2.50492C6.87531 2.40967 7.05551 2.35948 7.23914 2.35987H24.7991C24.9828 2.35948 25.163 2.40967 25.3199 2.50492C25.4769 2.60018 25.6047 2.73682 25.6891 2.89987L28.8691 9.03987C28.9569 9.19188 29.0031 9.36433 29.0031 9.53987C29.0031 9.7154 28.9569 9.88785 28.8691 10.0399C28.7803 10.1858 28.6555 10.3066 28.5067 10.3906C28.3579 10.4747 28.19 10.5191 28.0191 10.5199ZM5.63913 8.51986H26.3691L24.2291 4.37986H7.79913L5.63913 8.51986Z"
    fill="var(--color-primary-text)" />
  <path
    d="M17.1592 21.0801C18.1615 20.8623 19.06 20.31 19.7069 19.5141C20.3539 18.7181 20.7108 17.7258 20.7192 16.7001C20.7784 16.0735 20.706 15.4415 20.5067 14.8444C20.3075 14.2474 19.9858 13.6986 19.5621 13.2331C19.1385 12.7676 18.6224 12.3957 18.0467 12.1413C17.4711 11.8868 16.8486 11.7554 16.2192 11.7554C15.5898 11.7554 14.9674 11.8868 14.3917 12.1413C13.8161 12.3957 13.2999 12.7676 12.8763 13.2331C12.4527 13.6986 12.1309 14.2474 11.9317 14.8444C11.7324 15.4415 11.6601 16.0735 11.7192 16.7001H13.6192C13.6113 16.3403 13.6775 15.9827 13.8139 15.6496C13.9502 15.3165 14.1538 15.0151 14.4118 14.7641C14.6697 14.5132 14.9767 14.3181 15.3134 14.191C15.6501 14.0639 16.0095 14.0075 16.3689 14.0254C16.7284 14.0433 17.0803 14.1351 17.4028 14.295C17.7252 14.455 18.0112 14.6796 18.243 14.955C18.4748 15.2303 18.6473 15.5505 18.7499 15.8954C18.8525 16.2404 18.8829 16.6028 18.8392 16.9601C18.7577 17.6201 18.4347 18.2266 17.9324 18.6624C17.4301 19.0982 16.7841 19.3325 16.1192 19.3201H15.2892V23.3201H17.1892"
    fill="var(--color-primary)" />
</svg>