<svg xmlns="http://www.w3.org/2000/svg" width="24" height="24" viewBox="0 0 24 24" fill="none">
  <path
    d="M16.7836 11.7125L17.9706 12.8995C18.3611 13.29 18.3611 13.9232 17.9706 14.3137L12.3137 19.9705C11.9232 20.3611 11.29 20.3611 10.8995 19.9705L1.70711 10.7782C1.31658 10.3876 1.31658 9.75446 1.70711 9.36394L7.36396 3.70708C7.75449 3.31656 8.38765 3.31656 8.77817 3.70708L11.8591 6.78805"
    stroke="currentColor" stroke-width="1.5" />
  <path
    d="M21.5061 9.36396L15.5399 3.39775C15.3202 3.17808 14.9641 3.17808 14.7444 3.39775L10.1924 7.94975C9.41134 8.7308 9.41134 9.99713 10.1924 10.7782C10.9734 11.5592 12.2398 11.5592 13.0208 10.7782L14.2583 9.54074C14.3559 9.44311 14.5142 9.44311 14.6118 9.54074L18.6777 13.6066L21.5061 10.7782C21.8966 10.3877 21.8966 9.75448 21.5061 9.36396Z"
    stroke="#03AAC7" stroke-width="1.5" stroke-linejoin="round" />
</svg>