<svg width="32" height="32" viewBox="0 0 32 32" fill="none" xmlns="http://www.w3.org/2000/svg">
  <g clip-path="url(#clip0_2402_9180)">
    <path fill-rule="evenodd" clip-rule="evenodd"
      d="M14.6799 4C13.3927 4 12.1543 4.21355 10.9951 4.59798C10.733 4.68491 10.4447 4.55587 10.3469 4.29761L9.99288 3.36239C9.89511 3.10413 10.0249 2.81462 10.2865 2.72613C11.6625 2.26064 13.1403 2 14.6799 2C22.2322 2 28.3599 8.12772 28.3599 15.68L28.3599 15.7023C28.3599 15.8218 28.3599 15.9552 28.3562 16.0959C28.3489 16.3719 28.1009 16.569 27.8266 16.5373L26.8332 16.4227C26.5589 16.391 26.3577 16.1423 26.3595 15.8662C26.3598 15.8075 26.3599 15.7456 26.3599 15.68C26.3599 9.23229 21.1276 4 14.6799 4Z"
      fill="var(--color-primary-text)" />
    <path fill-rule="evenodd" clip-rule="evenodd"
      d="M7.00581 6.21767C7.18022 6.43176 7.14726 6.74593 6.94075 6.92926C4.52299 9.0756 3 12.2034 3 15.68C3 22.1277 8.23229 27.36 14.68 27.36C16.2458 27.36 17.7341 27.0553 19.0937 26.5003C19.3494 26.396 19.6459 26.5048 19.7612 26.7557L20.1788 27.6643C20.2941 27.9152 20.1846 28.213 19.9296 28.319C18.3116 28.9916 16.5391 29.36 14.68 29.36C7.12772 29.36 1 23.2323 1 15.68C1 11.5755 2.81375 7.88792 5.67654 5.37753C5.88416 5.19547 6.19978 5.2283 6.37419 5.44239L7.00581 6.21767Z"
      fill="var(--color-primary-text)" />
    <path
      d="M11.6 18.11C11.6 19.3 12.55 20.24 13.62 20.24H15.52C16.71 20.24 17.65 19.17 17.65 17.99C17.65 16.69 16.7 15.74 15.52 15.74H13.86C12.67 15.74 11.73 14.67 11.73 13.49C11.73 12.31 12.68 11.24 13.86 11.24H15.76C16.83 11.24 17.78 12.19 17.78 13.37M14.58 9.70001V11.12M14.58 20.25V21.67"
      stroke="var(--color-primary-text)" stroke-width="2" stroke-linecap="round"
      stroke-linejoin="round" />
    <path d="M26.2 23.99H24.2V25.99H26.2V23.99Z" fill="var(--color-primary)" />
    <path fill-rule="evenodd" clip-rule="evenodd"
      d="M22.8698 19.4C22.8698 18.1123 23.9121 17.07 25.1998 17.07C26.4875 17.07 27.5298 18.1123 27.5298 19.4V20.59H22.8698V19.4ZM20.8698 20.59V19.4C20.8698 17.0077 22.8075 15.07 25.1998 15.07C27.5921 15.07 29.5298 17.0077 29.5298 19.4V20.59H30.34C30.8923 20.59 31.34 21.0377 31.34 21.59V28.4C31.34 28.9523 30.8923 29.4 30.34 29.4H20.05C19.4977 29.4 19.05 28.9523 19.05 28.4V21.59C19.05 21.0377 19.4977 20.59 20.05 20.59H20.8698ZM21.05 27.4V22.59H29.34V27.4H21.05Z"
      fill="var(--color-primary)" />
  </g>
  <defs>
    <clipPath id="clip0_2402_9180">
      <rect width="30.34" height="27.4" fill="white" transform="translate(1 2)" />
    </clipPath>
  </defs>
</svg>