<svg width="32" height="32" viewBox="0 0 32 32" fill="none" xmlns="http://www.w3.org/2000/svg">
  <path
    d="M11.2905 14.59C11.1979 14.4843 11.0854 14.3978 10.9594 14.3356C10.8334 14.2733 10.6964 14.2365 10.5562 14.2272C10.416 14.2179 10.2753 14.2364 10.1422 14.2814C10.0091 14.3265 9.88621 14.3974 9.7805 14.49C9.6758 14.5824 9.59039 14.6945 9.52917 14.82C9.46795 14.9455 9.43214 15.0819 9.42378 15.2213C9.41541 15.3607 9.43468 15.5003 9.48045 15.6322C9.52622 15.7642 9.5976 15.8857 9.6905 15.99L13.7405 20.57C13.9384 20.797 14.1828 20.9788 14.4571 21.103C14.7315 21.2272 15.0293 21.291 15.3305 21.29C15.6459 21.289 15.9572 21.2185 16.2424 21.0837C16.5275 20.9489 16.7795 20.7531 16.9805 20.51L23.5405 12.45C23.7195 12.2325 23.8048 11.9528 23.7776 11.6724C23.7504 11.3921 23.613 11.134 23.3955 10.955C23.178 10.776 22.8983 10.6907 22.618 10.7179C22.3376 10.745 22.0795 10.8825 21.9005 11.1L15.3305 19.16L11.2905 14.59Z"
    fill="var(--color-primary)" />
  <path
    d="M16.2424 30.4399C16.0552 30.4405 15.8715 30.3885 15.7124 30.2899L8.19239 25.5099C7.37649 25.0068 6.64712 24.3754 6.03239 23.6399C4.90894 22.3178 4.28286 20.6447 4.2624 18.9099V6.5399C4.2541 6.31546 4.32159 6.09475 4.45402 5.91334C4.58645 5.73194 4.7761 5.60039 4.9924 5.5399L15.9924 2.4199C16.1721 2.3685 16.3627 2.3685 16.5424 2.4199L27.5424 5.5399C27.7568 5.60226 27.9442 5.7346 28.0747 5.91583C28.2052 6.09706 28.2713 6.31676 28.2624 6.5399V18.9099C28.2419 20.6447 27.6158 22.3178 26.4924 23.6399C25.8838 24.3775 25.1573 25.0094 24.3424 25.5099L16.8424 30.2899C16.6633 30.402 16.4532 30.4546 16.2424 30.4399ZM6.2424 7.2999V18.9099C6.26856 20.1843 6.73495 21.4103 7.56239 22.3799C8.04379 22.9485 8.6146 23.4349 9.25239 23.8199L16.2524 28.2599L23.2524 23.8199C23.8863 23.4295 24.4563 22.9438 24.9424 22.3799C25.746 21.4016 26.1875 20.176 26.1924 18.9099V7.2999L16.1924 4.4599L6.2424 7.2999Z"
    fill="var(--color-primary-text)" />
</svg>