<svg xmlns="http://www.w3.org/2000/svg" width="24" height="24" viewBox="0 0 24 24" fill="none">
  <path d="M5 12V20.5C5 20.7761 5.22386 21 5.5 21H18.5C18.7761 21 19 20.7761 19 20.5V12"
    stroke="currentColor" stroke-width="1.5" stroke-linecap="round" />
  <path d="M12 12V21" stroke="currentColor" stroke-width="1.5" stroke-linecap="round" />
  <path
    d="M12 5.5C12 6.3178 12 8 12 8C12 8 10.0629 8 9.5 8C8.11929 8 7 6.88071 7 5.5C7 4.11929 8.11929 3 9.5 3C10.8807 3 12 4.11929 12 5.5Z"
    stroke="#03AAC7" stroke-width="1.5" />
  <path
    d="M12 5.5C12 6.3178 12 8 12 8C12 8 13.9371 8 14.5 8C15.8807 8 17 6.88071 17 5.5C17 4.11929 15.8807 3 14.5 3C13.1193 3 12 4.11929 12 5.5Z"
    stroke="#03AAC7" stroke-width="1.5" />
  <rect x="3" y="8" width="18" height="4" rx="0.5" stroke="currentColor" stroke-width="1.5" />
</svg>