<svg width="32" height="32" viewBox="0 0 32 32" fill="none" xmlns="http://www.w3.org/2000/svg">
  <g clip-path="url(#clip0_3527_11652)">
    <path d="M8.73008 27.98L4.33008 23.58" stroke="currentColor" stroke-width="2"
      stroke-miterlimit="10" stroke-linecap="round" />
    <path
      d="M6.19 24.02L3.96 21.79C3.61 21.44 3 21.69 3 22.19V26.64C3 27.14 3.61 27.39 3.96 27.04L6.19 24.81C6.41 24.59 6.41 24.23 6.19 24.01V24.02Z"
      fill="currentColor" />
    <path
      d="M12.2701 20.36C16.7823 20.36 20.4401 16.7022 20.4401 12.19C20.4401 7.67785 16.7823 4.02002 12.2701 4.02002C7.75793 4.02002 4.1001 7.67785 4.1001 12.19C4.1001 16.7022 7.75793 20.36 12.2701 20.36Z"
      fill="transparent" />
    <path
      d="M12.2699 3.02002C7.21986 3.02002 3.10986 7.13002 3.10986 12.19C3.10986 16 5.44986 19.27 8.75986 20.65C8.73986 20.37 8.72986 20.09 8.72986 19.81C8.72986 19.35 8.75986 18.9 8.81986 18.46C6.60986 17.24 5.10986 14.89 5.10986 12.19C5.10986 8.23002 8.31986 5.02002 12.2699 5.02002C14.9699 5.02002 17.3299 6.52002 18.5399 8.73002C18.9899 8.67002 19.4399 8.64002 19.8999 8.64002C20.1799 8.64002 20.4599 8.65002 20.7399 8.67002C19.3599 5.35002 16.0799 3.02002 12.2699 3.02002Z"
      fill="#03AAC7" />
    <path
      d="M19.8902 27.98C24.4024 27.98 28.0602 24.3222 28.0602 19.81C28.0602 15.2978 24.4024 11.64 19.8902 11.64C15.378 11.64 11.7202 15.2978 11.7202 19.81C11.7202 24.3222 15.378 27.98 19.8902 27.98Z"
      stroke="currentColor" stroke-width="2" stroke-miterlimit="10" stroke-linecap="square" />
    <path fill-rule="evenodd" clip-rule="evenodd"
      d="M24.067 3.29289C23.6764 2.90237 23.0433 2.90237 22.6528 3.29289C22.2622 3.68342 22.2622 4.31658 22.6528 4.70711L25.8547 7.90904C25.8685 7.92672 25.8836 7.94374 25.8999 7.96V7.95421L27.0528 9.10711C27.0713 9.12561 27.0903 9.14324 27.1099 9.15999L28.1299 10.18C28.4799 10.53 29.0899 10.28 29.0899 9.78V5.33C29.0899 4.83 28.4799 4.58 28.1299 4.93L26.917 6.14289L24.067 3.29289Z"
      fill="#03AAC7" />
  </g>
  <defs>
    <clipPath id="clip0_3527_11652">
      <rect width="26.08" height="25.98" fill="white" transform="translate(3 3)" />
    </clipPath>
  </defs>
</svg>