<svg width="32" height="32" viewBox="0 0 32 32" fill="none" xmlns="http://www.w3.org/2000/svg">
      <path
            d="M7.19077 21.5998C6.2742 21.6018 5.37766 21.3317 4.61473 20.8237C3.8518 20.3157 3.25681 19.5927 2.90513 18.7463C2.55346 17.8999 2.46093 16.9681 2.63926 16.069C2.81759 15.17 3.25876 14.3441 3.90688 13.6959C4.555 13.0478 5.3809 12.6067 6.27997 12.4283C7.17903 12.25 8.11079 12.3425 8.95722 12.6942C9.80365 13.0459 10.5267 13.6409 11.0346 14.4038C11.5426 15.1667 11.8128 16.0633 11.8108 16.9798C11.8081 18.2043 11.3205 19.3779 10.4547 20.2438C9.58884 21.1096 8.41526 21.5972 7.19077 21.5998V21.5998ZM7.19077 14.3498C6.67019 14.3479 6.16072 14.5004 5.72691 14.7882C5.29309 15.076 4.95444 15.486 4.75385 15.9664C4.55326 16.4468 4.49975 16.9759 4.6001 17.4868C4.70044 17.9976 4.95013 18.4672 5.31754 18.836C5.68496 19.2048 6.15355 19.4563 6.664 19.5585C7.17444 19.6608 7.70376 19.6093 8.18491 19.4106C8.66606 19.2118 9.0774 18.8747 9.36683 18.442C9.65627 18.0093 9.81077 17.5004 9.81077 16.9798C9.81209 16.6349 9.74529 16.2932 9.61421 15.9741C9.48314 15.6551 9.29036 15.3651 9.04694 15.1208C8.80352 14.8764 8.51425 14.6825 8.19572 14.5502C7.87719 14.4179 7.53568 14.3498 7.19077 14.3498V14.3498Z"
            fill="currentColor" />
      <path
            d="M20.5201 17.9801C18.9991 17.9801 17.5124 17.5291 16.2477 16.6841C14.9831 15.8391 13.9975 14.6381 13.4154 13.2329C12.8334 11.8278 12.6811 10.2816 12.9778 8.78985C13.2746 7.29814 14.007 5.92791 15.0824 4.85245C16.1579 3.77698 17.5281 3.04458 19.0198 2.74786C20.5116 2.45114 22.0578 2.60343 23.4629 3.18547C24.8681 3.76751 26.0691 4.75315 26.9141 6.01776C27.7591 7.28237 28.2101 8.76916 28.2101 10.2901C28.2101 12.3296 27.3999 14.2856 25.9577 15.7278C24.5156 17.1699 22.5596 17.9801 20.5201 17.9801ZM20.5201 4.61011C19.3943 4.61011 18.2938 4.94406 17.3579 5.56973C16.4219 6.1954 15.6926 7.08466 15.2623 8.12495C14.8319 9.16525 14.7198 10.3098 14.9402 11.4138C15.1605 12.5179 15.7034 13.5317 16.5002 14.3271C17.297 15.1224 18.3118 15.6636 19.4162 15.882C20.5206 16.1004 21.665 15.9863 22.7045 15.5541C23.744 15.1219 24.632 14.391 25.256 13.454C25.88 12.517 26.2121 11.4159 26.2101 10.2901C26.2074 8.78275 25.6068 7.33805 24.54 6.27313C23.4732 5.20821 22.0274 4.6101 20.5201 4.61011V4.61011Z"
            fill="var(--color-primary)" />
      <path
            d="M2.6699 24.12C2.40468 24.1532 2.13715 24.0796 1.92617 23.9155C1.7152 23.7514 1.57805 23.5103 1.5449 23.245C1.51174 22.9798 1.5853 22.7123 1.7494 22.5013C1.91349 22.2903 2.15468 22.1532 2.4199 22.12L28.5399 15.33C28.7972 15.2637 29.0702 15.3023 29.299 15.4374C29.5278 15.5724 29.6936 15.7928 29.7599 16.05C29.8262 16.3073 29.7876 16.5804 29.6526 16.8092C29.5175 17.0379 29.2972 17.2037 29.0399 17.27L2.9199 24.05C2.84174 24.089 2.75691 24.1127 2.6699 24.12V24.12Z"
            fill="currentColor" />
      <path
            d="M16.5801 28.5601C16.3149 28.5601 16.0605 28.4547 15.873 28.2672C15.6854 28.0796 15.5801 27.8253 15.5801 27.5601V20.5601C15.5801 20.2948 15.6854 20.0405 15.873 19.853C16.0605 19.6654 16.3149 19.5601 16.5801 19.5601C16.8453 19.5601 17.0996 19.6654 17.2872 19.853C17.4747 20.0405 17.5801 20.2948 17.5801 20.5601V27.5601C17.5801 27.8253 17.4747 28.0796 17.2872 28.2672C17.0996 28.4547 16.8453 28.5601 16.5801 28.5601Z"
            fill="currentColor" />
      <path
            d="M25.0908 29H8.09082C7.8256 29 7.57125 28.8946 7.38371 28.7071C7.19618 28.5196 7.09082 28.2652 7.09082 28C7.09082 27.7348 7.19618 27.4804 7.38371 27.2929C7.57125 27.1053 7.8256 27 8.09082 27H25.0908C25.356 27 25.6104 27.1053 25.7979 27.2929C25.9855 27.4804 26.0908 27.7348 26.0908 28C26.0908 28.2652 25.9855 28.5196 25.7979 28.7071C25.6104 28.8946 25.356 29 25.0908 29Z"
            fill="currentColor" />
</svg>