<svg width="32" height="32" viewBox="0 0 32 32" fill="none" xmlns="http://www.w3.org/2000/svg">
  <circle cx="16.1" cy="16.1" r="11.275" stroke="currentColor" stroke-width="1.65" />
  <path
    d="M18.1474 14.4068L19.3986 15.1292L15.7071 21.523C15.215 22.3755 13.9672 21.9393 14.4525 22.2195C15.9444 23.0808 17.5052 22.1822 17.9043 21.6549L21.1036 16.1136L22.5376 16.9415C22.8214 17.1054 23.1694 16.8712 23.1245 16.5466L22.5379 12.3055C22.5019 12.0454 22.2263 11.8927 21.9867 12.0002L18.1831 13.7066C17.89 13.8381 17.8692 14.2462 18.1474 14.4068Z"
    fill="currentColor" />
  <path
    d="M14.0201 17.6283L12.7689 16.9059L16.4603 10.5122C16.9525 9.65968 18.2003 10.0959 17.7149 9.8157C16.2231 8.95437 14.6623 9.85298 14.2631 10.3803L11.0639 15.9215L9.62988 15.0936C9.34611 14.9298 8.99807 15.164 9.04296 15.4886L9.62958 19.7297C9.66555 19.9898 9.94121 20.1425 10.1808 20.035L13.9844 18.3286C14.2775 18.1971 14.2983 17.7889 14.0201 17.6283Z"
    fill="#03AAC7" />
</svg>