<svg width="32" height="32" viewBox="0 0 32 32" fill="none" xmlns="http://www.w3.org/2000/svg">
  <path
    d="M27.0625 29.5H5.0625C4.79728 29.5 4.54293 29.3946 4.35539 29.2071C4.16786 29.0196 4.0625 28.7652 4.0625 28.5V3.5C4.0625 3.23478 4.16786 2.98043 4.35539 2.79289C4.54293 2.60536 4.79728 2.5 5.0625 2.5H27.0625C27.3277 2.5 27.5821 2.60536 27.7696 2.79289C27.9571 2.98043 28.0625 3.23478 28.0625 3.5V8.37C28.0625 8.64614 27.8386 8.87 27.5625 8.87H26.5625C26.2864 8.87 26.0625 8.64614 26.0625 8.37V4.5H6.0625V27.5H26.0625V14C26.0625 13.7239 26.2864 13.5 26.5625 13.5H27.5625C27.8386 13.5 28.0625 13.7239 28.0625 14V28.5C28.0625 28.7652 27.9571 29.0196 27.7696 29.2071C27.5821 29.3946 27.3277 29.5 27.0625 29.5Z"
    fill="var(--color-primary-text)" />
  <path
    d="M19.5625 19.4102C19.3288 19.4106 19.1024 19.3292 18.9225 19.1801L16.0625 16.8401L13.1925 19.1801C13.0462 19.2988 12.8694 19.3738 12.6823 19.3964C12.4953 19.4189 12.3057 19.3882 12.1353 19.3078C11.965 19.2273 11.8209 19.1003 11.7195 18.9415C11.6182 18.7827 11.5637 18.5985 11.5625 18.4102V9.41016C11.5625 9.14494 11.6679 8.89059 11.8554 8.70305C12.0429 8.51551 12.2973 8.41016 12.5625 8.41016H19.5625C19.8277 8.41016 20.0821 8.51551 20.2696 8.70305C20.4571 8.89059 20.5625 9.14494 20.5625 9.41016V18.4102C20.5611 18.5997 20.5058 18.785 20.4031 18.9443C20.3004 19.1037 20.1545 19.2305 19.9825 19.3102C19.8527 19.3771 19.7085 19.4114 19.5625 19.4102ZM16.0625 14.5502C16.2915 14.5492 16.5139 14.6269 16.6925 14.7702L18.5625 16.3002V10.4102H13.5625V16.3002L15.4225 14.7702C15.6038 14.6247 15.8301 14.5469 16.0625 14.5502Z"
    fill="var(--color-primary)" />
  <path
    d="M19.5625 23.5898H12.5625C12.2973 23.5898 12.0429 23.4845 11.8554 23.297C11.6679 23.1094 11.5625 22.8551 11.5625 22.5898C11.5625 22.3246 11.6679 22.0703 11.8554 21.8827C12.0429 21.6952 12.2973 21.5898 12.5625 21.5898H19.5625C19.8277 21.5898 20.0821 21.6952 20.2696 21.8827C20.4571 22.0703 20.5625 22.3246 20.5625 22.5898C20.5625 22.8551 20.4571 23.1094 20.2696 23.297C20.0821 23.4845 19.8277 23.5898 19.5625 23.5898Z"
    fill="var(--color-primary-text)" />
</svg>