<svg width="32" height="32" viewBox="0 0 32 32" fill="none" xmlns="http://www.w3.org/2000/svg">
      <path
            d="M15.9949 24.2911C21.8743 24.2911 26.6405 19.5249 26.6405 13.6456C26.6405 7.76618 21.8743 3 15.9949 3C10.1155 3 5.34937 7.76618 5.34937 13.6456C5.34937 19.5249 10.1155 24.2911 15.9949 24.2911Z"
            stroke="currentColor" stroke-width="2" />
      <path
            d="M13.81 7.71997C13.9646 7.55508 14.181 7.45203 14.4078 7.45203H15.8814C16.0669 7.45203 16.1597 7.67875 16.036 7.82302L13.1196 11.0177H14.7272L16.3658 12.8006H13.1196L16.3658 16.356H14.3974C14.1707 16.356 13.9543 16.2632 13.7997 16.0983L10.502 12.4914C10.2031 12.1719 10.2031 11.667 10.502 11.3475L13.7997 7.74058L13.81 7.71997Z"
            fill="var(--color-primary)" />
      <path
            d="M18.1795 19.5713C18.025 19.7362 17.8085 19.8392 17.5818 19.8392H16.1081C15.9226 19.8392 15.8299 19.6125 15.9536 19.4682L18.87 16.2735H17.2624L15.6238 14.4907H18.87L15.6238 10.9353H17.5921C17.8188 10.9353 18.0353 11.0281 18.1898 11.1929L21.4876 14.7999C21.7865 15.1193 21.7865 15.6243 21.4876 15.9438L18.1898 19.5507L18.1795 19.5713Z"
            fill="var(--color-primary)" />
      <path
            d="M11.141 23.1163H4.68973C3.20574 23.1163 2 24.3221 2 25.8061C2 27.2901 3.20574 28.4958 4.68973 28.4958H27.3103C28.7943 28.4958 30 27.2901 30 25.8061C30 24.3221 28.7943 23.1163 27.3103 23.1163H21.1476"
            stroke="currentColor" stroke-width="2" />
</svg>