<svg width="32" height="32" viewBox="0 0 32 32" fill="none" xmlns="http://www.w3.org/2000/svg">
<circle cx="15.5" cy="16.5" r="11.5" stroke="currentColor" stroke-width="2"/>
<circle cx="15.5" cy="16.5" r="6.5" stroke="currentColor" stroke-width="2"/>
<path d="M14.5964 17.6674L14.5409 17.612C14.3046 17.3745 14.1264 17.0857 14.0199 16.7677C13.9135 16.4498 13.8817 16.1113 13.927 15.7785C13.9723 15.4456 14.0935 15.1272 14.2812 14.848C14.4689 14.5688 14.7181 14.3362 15.0096 14.1682L20.6937 11.126C20.7522 11.0923 20.82 11.0788 20.8867 11.0876C20.9534 11.0964 21.0152 11.127 21.0626 11.1745C21.11 11.2223 21.1401 11.2845 21.1484 11.3513C21.1568 11.4182 21.1427 11.486 21.1085 11.5443L18.0383 17.2164C17.8729 17.4994 17.6462 17.7419 17.3751 17.9262C17.104 18.1104 16.7952 18.2317 16.4717 18.2811C16.1322 18.3322 15.7859 18.3034 15.4603 18.1969C15.1347 18.0903 14.8388 17.909 14.5964 17.6674ZM15.0299 17.2339C15.2047 17.4079 15.4179 17.5384 15.6525 17.6151C15.8871 17.6918 16.1367 17.7126 16.3812 17.6757C16.6144 17.6404 16.8369 17.5532 17.0323 17.4206C17.2277 17.288 17.391 17.1134 17.5103 16.9096L20 12.2389L15.3138 14.6971C15.1038 14.8183 14.9243 14.9859 14.7891 15.187C14.6539 15.3882 14.5666 15.6176 14.534 15.8574C14.5014 16.0972 14.5243 16.3411 14.6009 16.5701C14.6776 16.7992 14.806 17.0073 14.9762 17.1784L15.0299 17.2339Z" stroke="#1DA2B4" stroke-width="0.9"/>
</svg>
