<svg width="32" height="32" viewBox="0 0 32 32" fill="none" xmlns="http://www.w3.org/2000/svg">
  <path
    d="M29.0397 26.3801H4.17969C3.91447 26.3801 3.66013 26.2747 3.4726 26.0872C3.28506 25.8997 3.17969 25.6453 3.17969 25.3801V6.6001C3.17969 6.33488 3.28506 6.08053 3.4726 5.89299C3.66013 5.70546 3.91447 5.6001 4.17969 5.6001H29.0497C29.3149 5.6001 29.5693 5.70546 29.7568 5.89299C29.9443 6.08053 30.0497 6.33488 30.0497 6.6001V25.3801C30.0497 25.5123 30.0235 25.6431 29.9726 25.7651C29.9217 25.8871 29.8472 25.9978 29.7533 26.0908C29.6593 26.1838 29.5479 26.2572 29.4254 26.3069C29.303 26.3565 29.1718 26.3814 29.0397 26.3801ZM5.17969 24.3801H28.0497V7.6001H5.17969V24.3801Z"
    fill="var(--color-primary-text)" />
  <path d="M12.5391 12.3604H10.5391V19.6304H12.5391V12.3604Z" fill="var(--color-primary-text)" />
  <path d="M23.1289 12.3604H21.1289V19.6304H23.1289V12.3604Z" fill="var(--color-primary)" />
  <path d="M17.8398 12.3604H15.8398V19.6304H17.8398V12.3604Z" fill="var(--color-primary-text)" />
</svg>