<svg width="32" height="32" viewBox="0 0 32 32" fill="none" xmlns="http://www.w3.org/2000/svg">
  <path
    d="M23.2275 27H8.4375C8.17228 27 7.91793 26.8946 7.73039 26.7071C7.54286 26.5196 7.4375 26.2652 7.4375 26C7.4375 25.7348 7.54286 25.4804 7.73039 25.2929C7.91793 25.1054 8.17228 25 8.4375 25H23.2275C23.4927 25 23.7471 25.1054 23.9346 25.2929C24.1222 25.4804 24.2275 25.7348 24.2275 26C24.2275 26.2652 24.1222 26.5196 23.9346 26.7071C23.7471 26.8946 23.4927 27 23.2275 27Z"
    fill="var(--color-primary-text)" />
  <path
    d="M28.7889 31H2.87891C2.61369 31 2.35934 30.8946 2.1718 30.7071C1.98426 30.5196 1.87891 30.2652 1.87891 30V22C1.87891 21.7348 1.98426 21.4804 2.1718 21.2929C2.35934 21.1054 2.61369 21 2.87891 21H5.59891C5.87505 21 6.09891 21.2239 6.09891 21.5V22.5C6.09891 22.7761 5.87505 23 5.59891 23H3.87891V29H27.7889V23H22.6989C22.4228 23 22.1989 22.7761 22.1989 22.5V21.5C22.1989 21.2239 22.4228 21 22.6989 21H28.7889C29.0541 21 29.3085 21.1054 29.496 21.2929C29.6836 21.4804 29.7889 21.7348 29.7889 22V30C29.7889 30.2652 29.6836 30.5196 29.496 30.7071C29.3085 30.8946 29.0541 31 28.7889 31Z"
    fill="var(--color-primary-text)" />
  <path
    d="M15.0085 25.9999C14.7654 25.9995 14.5308 25.9106 14.3485 25.7499L11.5485 23.2999L4.9285 17.4799C4.72981 17.3047 4.60875 17.0578 4.59188 16.7935C4.575 16.5291 4.6637 16.2689 4.8385 16.0699L16.5585 2.70986C16.7316 2.51143 16.9759 2.38925 17.2385 2.36986C17.3707 2.36111 17.5033 2.3787 17.6286 2.42162C17.7539 2.46453 17.8694 2.53192 17.9685 2.61986L27.3785 10.8899C27.5786 11.0636 27.7016 11.3098 27.7203 11.5742C27.7391 11.8386 27.6521 12.0996 27.4785 12.2999L15.7585 25.6499C15.6716 25.7493 15.5659 25.8305 15.4475 25.8889C15.3291 25.9472 15.2003 25.9815 15.0685 25.9899L15.0085 25.9999ZM12.8685 21.7899L14.8685 23.5899L25.2685 11.7399L17.3585 4.73986L6.9585 16.5899L12.8685 21.7899Z"
    fill="var(--color-primary-text)" />
  <path
    d="M14.4588 20.4202C14.2157 20.4199 13.9811 20.331 13.7988 20.1702L10.2488 17.0502C10.0501 16.8751 9.92906 16.6282 9.91219 16.3639C9.89532 16.0995 9.98401 15.8393 10.1588 15.6402C10.334 15.4416 10.5809 15.3205 10.8452 15.3036C11.1096 15.2867 11.3698 15.3754 11.5688 15.5502L14.3688 18.0102L20.0088 11.5802C20.0935 11.4751 20.1986 11.3882 20.3177 11.3248C20.4369 11.2614 20.5677 11.2227 20.7022 11.2112C20.8367 11.1996 20.9721 11.2155 21.1003 11.2577C21.2286 11.2999 21.3469 11.3676 21.4482 11.4568C21.5496 11.546 21.6318 11.6548 21.69 11.7766C21.7482 11.8984 21.7811 12.0307 21.7867 12.1656C21.7924 12.3005 21.7707 12.4351 21.7229 12.5613C21.6752 12.6876 21.6023 12.8029 21.5088 12.9002L15.2088 20.0802C15.1219 20.1797 15.0162 20.2609 14.8978 20.3192C14.7794 20.3776 14.6506 20.4119 14.5188 20.4202H14.4588Z"
    fill="var(--color-primary)" />
</svg>