<svg width="400" height="400" viewBox="0 0 400 400" fill="none" xmlns="http://www.w3.org/2000/svg">
  <g clip-path="url(#clip0_3879_19226)">
    <mask id="mask0_3879_19226" style="mask-type:luminance" maskUnits="userSpaceOnUse" x="0" y="0"
      width="400" height="400">
      <path
        d="M301 0H99C44.3238 0 0 44.3238 0 99V301C0 355.676 44.3238 400 99 400H301C355.676 400 400 355.676 400 301V99C400 44.3238 355.676 0 301 0Z"
        fill="white" />
    </mask>
    <g mask="url(#mask0_3879_19226)">
      <path
        d="M200 400C310.457 400 400 310.457 400 200C400 89.5431 310.457 0 200 0C89.5431 0 0 89.5431 0 200C0 310.457 89.5431 400 200 400Z"
        fill="#DDDDDD" />
      <mask id="mask1_3879_19226" style="mask-type:alpha" maskUnits="userSpaceOnUse" x="0" y="0"
        width="400" height="400">
        <path
          d="M200 400C310.457 400 400 310.457 400 200C400 89.5431 310.457 0 200 0C89.5431 0 0 89.5431 0 200C0 310.457 89.5431 400 200 400Z"
          fill="#DDDDDD" />
      </mask>
      <g mask="url(#mask1_3879_19226)">
        <path
          d="M200 712.5C358.782 712.5 487.5 617.361 487.5 500C487.5 382.639 358.782 287.5 200 287.5C41.2181 287.5 -87.5 382.639 -87.5 500C-87.5 617.361 41.2181 712.5 200 712.5Z"
          fill="#03AAC7" />
      </g>
      <mask id="mask2_3879_19226" style="mask-type:alpha" maskUnits="userSpaceOnUse" x="-88" y="287"
        width="576" height="426">
        <path
          d="M200 712.5C358.782 712.5 487.5 617.361 487.5 500C487.5 382.639 358.782 287.5 200 287.5C41.2181 287.5 -87.5 382.639 -87.5 500C-87.5 617.361 41.2181 712.5 200 712.5Z"
          fill="#03AAC7" />
      </mask>
      <g mask="url(#mask2_3879_19226)">
        <path
          d="M200 350C241.421 350 275 319.22 275 281.25C275 243.28 241.421 212.5 200 212.5C158.579 212.5 125 243.28 125 281.25C125 319.22 158.579 350 200 350Z"
          fill="#F382AB" />
      </g>
      <path
        d="M139.476 203.107C140.691 209.238 156.599 225.198 156.599 225.198C156.599 225.198 136.983 235.208 127.206 218.032C117.428 200.856 138.26 196.977 139.476 203.107Z"
        fill="#3E2D32" />
      <path
        d="M261.052 203.107C259.836 209.238 243.928 225.198 243.928 225.198C243.928 225.198 263.544 235.208 273.321 218.032C283.099 200.856 262.267 196.977 261.052 203.107Z"
        fill="#3E2D32" />
      <path d="M237.5 250H162.5V300H237.5V250Z" fill="#F382AB" />
      <path
        d="M243.75 175C267.912 175 287.5 155.412 287.5 131.25C287.5 107.088 267.912 87.5 243.75 87.5C219.588 87.5 200 107.088 200 131.25C200 155.412 219.588 175 243.75 175Z"
        fill="#3E2D32" />
      <path
        d="M156.25 175C180.412 175 200 155.412 200 131.25C200 107.088 180.412 87.5 156.25 87.5C132.088 87.5 112.5 107.088 112.5 131.25C112.5 155.412 132.088 175 156.25 175Z"
        fill="#3E2D32" />
      <path
        d="M112.5 187.5C112.5 173.693 123.693 162.5 137.5 162.5H262.5C276.307 162.5 287.5 173.693 287.5 187.5C287.5 201.307 276.307 212.5 262.5 212.5H137.5C123.693 212.5 112.5 201.307 112.5 187.5Z"
        fill="#F382AB" />
      <path
        d="M137.5 137.5C137.5 102.982 165.482 75 200 75C234.518 75 262.5 102.982 262.5 137.5V200C262.5 234.518 234.518 262.5 200 262.5C165.482 262.5 137.5 234.518 137.5 200V137.5Z"
        fill="#FF9DC0" />
      <path
        d="M125 103.333C125 73.8782 147.25 50 174.697 50H232.425C256.441 50 275 70.8934 275 96.6667C275 122.44 256.441 150 232.425 150H125V103.333Z"
        fill="#3E2D32" />
      <path
        d="M263.952 93.75C270.202 93.75 288.952 81.25 288.952 81.25C288.952 81.25 294.955 102.438 276.205 108.688C257.455 114.938 257.702 93.75 263.952 93.75Z"
        fill="#3E2D32" />
    </g>
  </g>
  <defs>
    <clipPath id="clip0_3879_19226">
      <rect width="400" height="400" fill="white" />
    </clipPath>
  </defs>
</svg>
  