<svg width="15" height="14" viewBox="0 0 15 14" fill="none" xmlns="http://www.w3.org/2000/svg">
  <path
    d="M6.91214 8.63677C7.49849 8.24641 7.94366 7.67771 8.1818 7.01479C8.41995 6.35186 8.43844 5.62989 8.23453 4.95564C8.03062 4.28139 7.61514 3.69066 7.04953 3.27081C6.48392 2.85096 5.79821 2.62427 5.09381 2.62427C4.3894 2.62427 3.70369 2.85096 3.13808 3.27081C2.57248 3.69066 2.157 4.28139 1.95309 4.95564C1.74918 5.62989 1.76766 6.35186 2.00581 7.01479C2.24396 7.67771 2.68912 8.24641 3.27547 8.63677C2.21482 9.02769 1.309 9.75108 0.693165 10.699C0.660799 10.7471 0.638317 10.8012 0.627027 10.858C0.615737 10.9149 0.615863 10.9734 0.627399 11.0303C0.638935 11.0871 0.661649 11.1411 0.694222 11.189C0.726796 11.237 0.768578 11.278 0.817141 11.3097C0.865703 11.3413 0.920077 11.363 0.977103 11.3735C1.03413 11.384 1.09267 11.383 1.14932 11.3707C1.20596 11.3583 1.25959 11.3349 1.30709 11.3016C1.35458 11.2683 1.39499 11.226 1.42597 11.177C1.82321 10.566 2.36677 10.0639 3.00731 9.71638C3.64784 9.36882 4.36505 9.18678 5.09381 9.18678C5.82256 9.18678 6.53977 9.36882 7.1803 9.71638C7.82084 10.0639 8.36441 10.566 8.76165 11.177C8.82581 11.2723 8.92494 11.3386 9.03758 11.3615C9.15023 11.3844 9.26736 11.362 9.36363 11.2992C9.45991 11.2364 9.52761 11.1382 9.55209 11.0259C9.57657 10.9136 9.55586 10.7962 9.49445 10.699C8.87862 9.75108 7.97279 9.02769 6.91214 8.63677ZM2.68759 5.9068C2.68759 5.4309 2.82871 4.96568 3.09311 4.56998C3.35751 4.17428 3.73331 3.86587 4.17299 3.68375C4.61267 3.50163 5.09648 3.45398 5.56324 3.54682C6.03 3.63967 6.45874 3.86884 6.79526 4.20535C7.13177 4.54187 7.36094 4.97061 7.45379 5.43737C7.54663 5.90413 7.49898 6.38794 7.31686 6.82762C7.13474 7.2673 6.82633 7.6431 6.43063 7.9075C6.03493 8.1719 5.56971 8.31302 5.09381 8.31302C4.45586 8.3123 3.84425 8.05855 3.39315 7.60746C2.94206 7.15636 2.68831 6.54475 2.68759 5.9068ZM14.1795 11.3044C14.0823 11.3678 13.9639 11.3899 13.8504 11.366C13.7369 11.3421 13.6375 11.2741 13.5741 11.177C13.1773 10.5656 12.6338 10.0634 11.9932 9.71594C11.3525 9.36853 10.635 9.18703 9.90624 9.18801C9.79021 9.18801 9.67893 9.14192 9.59688 9.05987C9.51484 8.97782 9.46875 8.86654 9.46875 8.75051C9.46875 8.63448 9.51484 8.5232 9.59688 8.44116C9.67893 8.35911 9.79021 8.31302 9.90624 8.31302C10.2606 8.31269 10.6105 8.23409 10.931 8.08285C11.2514 7.93161 11.5345 7.71146 11.76 7.43813C11.9855 7.16479 12.1479 6.84503 12.2355 6.50167C12.3231 6.15832 12.3338 5.79985 12.2668 5.45189C12.1998 5.10393 12.0568 4.77506 11.848 4.48877C11.6391 4.20249 11.3696 3.96587 11.0588 3.7958C10.7479 3.62574 10.4033 3.52644 10.0496 3.505C9.69588 3.48355 9.34181 3.5405 9.01266 3.67176C8.95899 3.69496 8.90122 3.70716 8.84276 3.70766C8.78429 3.70815 8.72632 3.69692 8.67227 3.67463C8.61822 3.65234 8.56919 3.61945 8.52807 3.57789C8.48694 3.53633 8.45457 3.48694 8.43286 3.43266C8.41114 3.37838 8.40053 3.32029 8.40165 3.26183C8.40276 3.20338 8.41558 3.14574 8.43935 3.09232C8.46312 3.03891 8.49735 2.9908 8.54003 2.95083C8.5827 2.91087 8.63296 2.87987 8.68782 2.85966C9.44111 2.55924 10.279 2.54843 11.0398 2.82931C11.8005 3.1102 12.4304 3.66287 12.8077 4.38072C13.185 5.09858 13.2832 5.93074 13.0832 6.71667C12.8831 7.5026 12.3992 8.18662 11.7246 8.63677C12.7852 9.02769 13.6911 9.75108 14.3069 10.699C14.3703 10.7962 14.3924 10.9146 14.3685 11.0281C14.3446 11.1416 14.2766 11.241 14.1795 11.3044Z"
    fill="currentColor" />
</svg>
  