<svg width="33" height="16" viewBox="0 0 33 16" fill="none" xmlns="http://www.w3.org/2000/svg">
<g clip-path="url(#clip0_352_188218)">
<path d="M0.322325 7.01856C0.372941 3.23921 3.45108 0.202019 7.23077 0.202019H32.3858C32.611 0.202019 32.7928 0.38623 32.7898 0.611469L32.6777 8.98144C32.6271 12.7608 29.5489 15.798 25.7692 15.798H0.61423C0.388969 15.798 0.20721 15.6138 0.210227 15.3885L0.322325 7.01856Z" fill="url(#paint0_linear_352_188218)" stroke="url(#paint1_linear_352_188218)" stroke-width="0.404039"/>
<mask id="mask0_352_188218" style="mask-type:alpha" maskUnits="userSpaceOnUse" x="-1" y="-1" width="34" height="17">
<path d="M0.200066 7.11096C0.200066 3.29519 3.29336 0.201897 7.10913 0.201897H32.3838C32.6091 0.201897 32.7908 0.386108 32.7878 0.611347L32.6757 8.98132C32.6251 12.7607 29.547 15.7979 25.7673 15.7979H0.604107C0.380962 15.7979 0.200066 15.617 0.200066 15.3938V7.11096Z" fill="url(#paint2_linear_352_188218)" stroke="url(#paint3_linear_352_188218)" stroke-width="0.404039"/>
</mask>
<g mask="url(#mask0_352_188218)">
<g style="mix-blend-mode:soft-light" opacity="0.6">
<path d="M25.9162 -10.4813L19.5176 -16.5256L-8.93992 12.7007L-2.54132 18.7451L25.9162 -10.4813Z" fill="url(#paint4_linear_352_188218)"/>
</g>
<g style="mix-blend-mode:soft-light" opacity="0.6">
<path d="M41.6205 2.66653L35.6191 -3.00256L14.3094 18.8829L20.3108 24.552L41.6205 2.66653Z" fill="url(#paint5_linear_352_188218)"/>
</g>
</g>
<path d="M2.17773 7.45813C2.17773 4.42056 4.64017 1.95813 7.67773 1.95813H30.4553C30.5892 1.95813 30.6977 2.06667 30.6977 2.20055V8.54184C30.6977 11.5794 28.2353 14.0418 25.1977 14.0418H2.42016C2.28627 14.0418 2.17773 13.9333 2.17773 13.7994V7.45813Z" fill="url(#paint6_linear_352_188218)"/>
<path d="M6.96156 11.4341V4.63408H8.65156L10.8016 8.20408L11.3216 9.28408L11.2416 4.63408H12.8416V11.4341H11.1516L9.00156 7.86408L8.48156 6.77408L8.56156 11.4341H6.96156ZM16.3812 11.5941C14.7512 11.5941 13.7412 10.5141 13.7412 8.74408C13.7412 6.91408 14.7812 5.88408 16.3812 5.88408C18.0112 5.88408 19.0312 6.98408 19.0312 8.74408C19.0312 10.5641 17.9812 11.5941 16.3812 11.5941ZM16.3812 10.3541C17.0912 10.3541 17.4612 9.79408 17.4612 8.74408C17.4612 7.70408 17.0812 7.12408 16.3812 7.12408C15.6812 7.12408 15.3112 7.69408 15.3112 8.74408C15.3112 9.78408 15.6912 10.3541 16.3812 10.3541ZM19.6636 11.4341V9.82408H21.2636V11.4341H19.6636ZM22.8122 11.4441V10.2741H23.9922V6.74408H22.8122V5.63408H23.2722C24.0422 5.63408 24.2622 5.45408 24.2622 5.08408V5.00408H25.6022V10.2741H26.7922V11.4441H22.8122Z" fill="white"/>
</g>
<defs>
<linearGradient id="paint0_linear_352_188218" x1="16.5" y1="0" x2="16.5" y2="16" gradientUnits="userSpaceOnUse">
<stop stop-color="#FFB904"/>
<stop offset="1" stop-color="#FFCF53"/>
</linearGradient>
<linearGradient id="paint1_linear_352_188218" x1="16.5" y1="0" x2="16.5" y2="16" gradientUnits="userSpaceOnUse">
<stop stop-color="#FFCB44"/>
<stop offset="1" stop-color="#FA9702"/>
</linearGradient>
<linearGradient id="paint2_linear_352_188218" x1="16.498" y1="-0.00012207" x2="16.498" y2="15.9999" gradientUnits="userSpaceOnUse">
<stop stop-color="#F4B615"/>
<stop offset="1" stop-color="#FFD057"/>
</linearGradient>
<linearGradient id="paint3_linear_352_188218" x1="16.498" y1="-0.00012207" x2="16.498" y2="15.9999" gradientUnits="userSpaceOnUse">
<stop stop-color="#FFCB44"/>
<stop offset="1" stop-color="#FA9A02"/>
</linearGradient>
<linearGradient id="paint4_linear_352_188218" x1="6.80071" y1="10.3117" x2="0.787419" y2="4.74745" gradientUnits="userSpaceOnUse">
<stop stop-color="white"/>
<stop offset="1" stop-color="white" stop-opacity="0"/>
</linearGradient>
<linearGradient id="paint5_linear_352_188218" x1="26.5" y1="7.00195" x2="31.5745" y2="11.9252" gradientUnits="userSpaceOnUse">
<stop stop-color="white"/>
<stop offset="1" stop-color="white" stop-opacity="0"/>
</linearGradient>
<linearGradient id="paint6_linear_352_188218" x1="16.4879" y1="1.95813" x2="16.4879" y2="14.0418" gradientUnits="userSpaceOnUse">
<stop stop-color="#F59D1A"/>
<stop offset="1" stop-color="#FAC233"/>
</linearGradient>
<clipPath id="clip0_352_188218">
<rect width="33" height="16" fill="white"/>
</clipPath>
</defs>
</svg>
