<svg width="38" height="16" viewBox="0 0 38 16" fill="none" xmlns="http://www.w3.org/2000/svg">
<g clip-path="url(#clip0_352_188514)">
<path d="M0.322325 7.01856C0.372941 3.23921 3.45108 0.202019 7.23077 0.202019H32.3858C32.611 0.202019 32.7928 0.38623 32.7898 0.611469L32.6777 8.98144C32.6271 12.7608 29.5489 15.798 25.7692 15.798H0.61423C0.388969 15.798 0.20721 15.6138 0.210227 15.3885L0.322325 7.01856Z" fill="url(#paint0_linear_352_188514)" stroke="url(#paint1_linear_352_188514)" stroke-width="0.404039"/>
<mask id="mask0_352_188514" style="mask-type:alpha" maskUnits="userSpaceOnUse" x="-1" y="-1" width="34" height="17">
<path d="M0.200066 7.11096C0.200066 3.29519 3.29336 0.201897 7.10913 0.201897H32.3838C32.6091 0.201897 32.7908 0.386108 32.7878 0.611347L32.6757 8.98132C32.6251 12.7607 29.547 15.7979 25.7673 15.7979H0.604107C0.380962 15.7979 0.200066 15.617 0.200066 15.3938V7.11096Z" fill="url(#paint2_linear_352_188514)" stroke="url(#paint3_linear_352_188514)" stroke-width="0.404039"/>
</mask>
<g mask="url(#mask0_352_188514)">
<g style="mix-blend-mode:soft-light" opacity="0.6">
<path d="M25.9161 -10.4812L17.3516 -18.5717L-11.1059 10.6547L-2.54135 18.7451L25.9161 -10.4812Z" fill="url(#paint4_linear_352_188514)"/>
</g>
<g style="mix-blend-mode:soft-light" opacity="0.6">
<path d="M41.6224 2.66653L35.6211 -3.00256L14.3114 18.8829L20.3127 24.552L41.6224 2.66653Z" fill="url(#paint5_linear_352_188514)"/>
</g>
</g>
<path d="M2.17773 7.45813C2.17773 4.42056 4.64017 1.95813 7.67773 1.95813H30.4553C30.5892 1.95813 30.6977 2.06667 30.6977 2.20055V8.54184C30.6977 11.5794 28.2353 14.0418 25.1977 14.0418H2.42016C2.28627 14.0418 2.17773 13.9333 2.17773 13.7994V7.45813Z" fill="url(#paint6_linear_352_188514)"/>
<path d="M6.96156 11.4341V4.63408H8.65156L10.8016 8.20408L11.3216 9.28408L11.2416 4.63408H12.8416V11.4341H11.1516L9.00156 7.86408L8.48156 6.77408L8.56156 11.4341H6.96156ZM16.3812 11.5941C14.7512 11.5941 13.7412 10.5141 13.7412 8.74408C13.7412 6.91408 14.7812 5.88408 16.3812 5.88408C18.0112 5.88408 19.0312 6.98408 19.0312 8.74408C19.0312 10.5641 17.9812 11.5941 16.3812 11.5941ZM16.3812 10.3541C17.0912 10.3541 17.4612 9.79408 17.4612 8.74408C17.4612 7.70408 17.0812 7.12408 16.3812 7.12408C15.6812 7.12408 15.3112 7.69408 15.3112 8.74408C15.3112 9.78408 15.6912 10.3541 16.3812 10.3541ZM19.6636 11.4341V9.82408H21.2636V11.4341H19.6636ZM22.1822 11.4441V11.0641C22.1822 8.19408 25.5022 8.30408 25.5022 6.91408C25.5022 6.38408 25.1922 6.08408 24.6722 6.08408C24.0822 6.08408 23.7822 6.40408 23.6922 6.94408H22.1522C22.3222 5.64408 23.2622 4.84408 24.6822 4.84408C26.2222 4.84408 27.0322 5.77408 27.0322 6.89408C27.0322 8.73408 24.4522 9.00408 23.8222 10.2741H27.0222V11.4441H22.1822Z" fill="white"/>
</g>
<defs>
<linearGradient id="paint0_linear_352_188514" x1="16.5" y1="0" x2="16.5" y2="16" gradientUnits="userSpaceOnUse">
<stop stop-color="#B2C3C6"/>
<stop offset="1" stop-color="#D5E9EA"/>
</linearGradient>
<linearGradient id="paint1_linear_352_188514" x1="16.5" y1="0" x2="16.5" y2="16" gradientUnits="userSpaceOnUse">
<stop stop-color="#C8D9D9"/>
<stop offset="1" stop-color="#9DB2B7"/>
</linearGradient>
<linearGradient id="paint2_linear_352_188514" x1="16.498" y1="-0.00012207" x2="16.498" y2="15.9999" gradientUnits="userSpaceOnUse">
<stop stop-color="#AFC8C8"/>
<stop offset="1" stop-color="#E2E2E2"/>
</linearGradient>
<linearGradient id="paint3_linear_352_188514" x1="16.498" y1="-0.00012207" x2="16.498" y2="15.9999" gradientUnits="userSpaceOnUse">
<stop stop-color="#FFCB44"/>
<stop offset="1" stop-color="#FA9A02"/>
</linearGradient>
<linearGradient id="paint4_linear_352_188514" x1="7" y1="10.5" x2="-1.11165" y2="3.12276" gradientUnits="userSpaceOnUse">
<stop stop-color="white"/>
<stop offset="1" stop-color="white" stop-opacity="0"/>
</linearGradient>
<linearGradient id="paint5_linear_352_188514" x1="27" y1="7.5" x2="31.5671" y2="11.9309" gradientUnits="userSpaceOnUse">
<stop stop-color="white"/>
<stop offset="1" stop-color="white" stop-opacity="0"/>
</linearGradient>
<linearGradient id="paint6_linear_352_188514" x1="16.4879" y1="1.95813" x2="16.4879" y2="14.0418" gradientUnits="userSpaceOnUse">
<stop stop-color="#90A9AB"/>
<stop offset="1" stop-color="#B7CFD2"/>
</linearGradient>
<clipPath id="clip0_352_188514">
<rect width="38" height="16" fill="white"/>
</clipPath>
</defs>
</svg>
