<svg width="25" height="24" viewBox="0 0 25 24" fill="none" xmlns="http://www.w3.org/2000/svg">
<path d="M11.0955 12.2406L7.09591 8.16718L8.40369 6.83524L12.4017 10.9071L16.4112 6.81401L17.7205 8.14441L13.7095 12.2391L17.5461 16.1466L16.2383 17.4785L12.4033 13.5726L8.58879 17.4667L7.27946 16.1363L11.0955 12.2406Z" fill="white"/>
<path fill-rule="evenodd" clip-rule="evenodd" d="M12.4999 23.6667C18.9432 23.6667 24.1666 18.4434 24.1666 12C24.1666 5.55672 18.9432 0.333374 12.4999 0.333374C6.0566 0.333374 0.833252 5.55672 0.833252 12C0.833252 18.4434 6.0566 23.6667 12.4999 23.6667ZM12.4999 21.8C17.9123 21.8 22.2999 17.4124 22.2999 12C22.2999 6.58765 17.9123 2.20004 12.4999 2.20004C7.08753 2.20004 2.69992 6.58765 2.69992 12C2.69992 17.4124 7.08753 21.8 12.4999 21.8Z" fill="white"/>
</svg>
