<svg width="28" height="27" viewBox="0 0 28 27" fill="none" xmlns="http://www.w3.org/2000/svg">
  <path fill-rule="evenodd" clip-rule="evenodd"
    d="M2.725 3.1249C2.725 2.90399 2.90409 2.7249 3.125 2.7249H19.625C19.8459 2.7249 20.025 2.90399 20.025 3.1249V24.1249C20.025 24.3454 19.8466 24.5242 19.6262 24.5249L19.625 24.5249H2.725V3.1249ZM19.625 26.7249H2.31071C1.32449 26.7249 0.525 25.9254 0.525 24.9392V3.1249C0.525 1.68896 1.68906 0.524902 3.125 0.524902H19.625C21.0609 0.524902 22.225 1.68896 22.225 3.1249V12.5249H24.875C26.3109 12.5249 27.475 13.689 27.475 15.1249V24.1249C27.475 25.5608 26.3109 26.7249 24.875 26.7249H19.625ZM22.225 14.7249V24.1249C22.225 24.2609 22.2146 24.3945 22.1944 24.5249H24.875C25.0959 24.5249 25.275 24.3458 25.275 24.1249V15.1249C25.275 14.904 25.0959 14.7249 24.875 14.7249H22.225ZM17 7.2249H5V5.0249H17V7.2249ZM5 11.7249H11V9.5249H5V11.7249Z"
    fill="#0D0E0E" />
</svg>