<svg width="24" height="24" viewBox="0 0 24 24" fill="none" xmlns="http://www.w3.org/2000/svg">
<g id="ic_insight_delete (1) 1">
<path id="Vector" d="M10.2429 5.25107H13.7621C14.1751 5.25107 14.5099 5.58707 14.5099 6.00012V7.18749H9.49515V6.00012C9.49515 5.58707 9.82988 5.25107 10.2429 5.25107ZM15.6543 7.18749V6.00012C15.6543 4.95423 14.8067 4.10791 13.7621 4.10791H10.2429C9.19704 4.10791 8.35073 4.95423 8.35073 6.00012V7.18749H4.55115V8.33191H5.32925L5.93557 19.2544C5.95009 19.5126 6.0629 19.7554 6.25083 19.933C6.43875 20.1106 6.68753 20.2095 6.94609 20.2094H17.0071C17.2641 20.2093 17.5113 20.1115 17.6987 19.9358C17.8862 19.7601 17.9997 19.5196 18.0164 19.2633L18.7238 8.33191H19.5082V7.18749H15.653H15.6543ZM17.5781 8.33191L16.8834 19.0662H7.07115L6.47494 8.33191H17.5781ZM9.67073 16.5778L9.47873 10.8582L10.6219 10.8203L10.8139 16.5386L9.67073 16.5765V16.5778ZM13.2177 16.5399L14.3608 16.5778L14.5528 10.8582L13.4097 10.8203L13.2177 16.5386V16.5399Z" fill="#9AA3A3"/>
</g>
</svg>
