<svg width="103" height="31" viewBox="0 0 103 31" fill="none" xmlns="http://www.w3.org/2000/svg">
<path d="M40.3717 15.0738C41.1466 14.6338 41.7673 14.0859 42.2192 13.4398C42.7342 12.7043 42.9957 11.8641 42.9957 10.9442C42.9957 9.22179 42.3519 7.87742 41.083 6.94775C39.8292 6.02885 38.1041 5.56348 35.9541 5.56348H28.1797V25.5143H36.2647C38.5291 25.5143 40.3421 24.988 41.653 23.9489C42.9742 22.9011 43.645 21.4338 43.645 19.5868C43.645 18.4625 43.3295 17.495 42.7083 16.7121C42.1507 16.0121 41.3661 15.4615 40.3723 15.0738H40.3717ZM32.387 9.15923H35.616C36.6287 9.15923 37.3934 9.35552 37.8901 9.74163C38.3808 10.1229 38.6191 10.6239 38.6191 11.2726C38.6191 11.9213 38.3808 12.4476 37.8901 12.8305C37.3934 13.2166 36.6287 13.4129 35.616 13.4129H32.387V9.15923ZM38.466 21.2423C37.9062 21.691 37.0515 21.918 35.9261 21.918H32.387V17.0356H35.9261C37.051 17.0356 37.9068 17.2551 38.4687 17.6859C39.0257 18.1157 39.2964 18.683 39.2964 19.4223C39.2964 20.2 39.0247 20.7953 38.466 21.2429V21.2423Z" fill="#00E0FF"/>
<path d="M49.3291 10.5952H45.0938V25.5132H49.3291V10.5952Z" fill="#00E0FF"/>
<path d="M91.1611 12.8391C90.4908 12.041 89.6506 11.4154 88.6638 10.9792C87.678 10.5435 86.5693 10.3213 85.37 10.3213C83.9 10.3213 82.574 10.6551 81.4275 11.313C80.2784 11.973 79.3665 12.8898 78.7162 14.0395C78.0658 15.1881 77.7363 16.5211 77.7363 18.0003C77.7363 19.4795 78.0561 20.9004 78.6865 22.0668C79.3185 23.237 80.2271 24.1548 81.3865 24.7971C82.5438 25.4355 83.9033 25.7596 85.4267 25.7596C87.2968 25.7596 88.8844 25.2894 90.1462 24.3614C91.3617 23.4683 92.1975 22.2086 92.6527 20.6319H88.3888C88.1645 21.1684 87.8485 21.6252 87.396 21.9471C86.8611 22.3267 86.1703 22.5193 85.342 22.5193C84.6237 22.5193 84.0084 22.3445 83.5128 22.0005C83.0151 21.6564 82.6349 21.1479 82.3852 20.4873C82.2353 20.0948 82.1291 19.6434 82.0665 19.1414H92.7271L92.7481 19.0087C92.9385 17.8056 92.8905 16.6656 92.6036 15.6206C92.3162 14.5728 91.8309 13.6372 91.1611 12.8391ZM82.134 16.3793C82.1992 16.0757 82.2871 15.7597 82.3987 15.4717C82.6587 14.8025 83.034 14.2875 83.515 13.9435C83.9938 13.5994 84.5897 13.4258 85.2864 13.4258C86.1595 13.4258 86.8762 13.7089 87.4165 14.2659C87.9288 14.796 88.2195 15.5203 88.2815 16.3793H82.1345H82.134Z" fill="#00E0FF"/>
<path d="M49.4181 5.56299H45.0059V9.15875H49.4181V5.56299Z" fill="#00E0FF"/>
<path d="M72.6108 12.288C72.1098 11.6861 71.5226 11.2197 70.8604 10.8972C70.0698 10.5149 69.145 10.3213 68.1112 10.3213C66.8456 10.3213 65.711 10.6335 64.7403 11.2483C63.7708 11.8625 63.0018 12.7307 62.4555 13.827C61.9114 14.9206 61.6348 16.2046 61.6348 17.6449C61.6348 19.0853 61.9254 20.2937 62.4992 21.3949C63.074 22.4998 63.8711 23.3799 64.8676 24.0119C65.8663 24.6455 67.0052 24.9669 68.2531 24.9669C69.1951 24.9669 70.0558 24.7631 70.8097 24.3603C71.4066 24.0416 71.9065 23.6199 72.3007 23.1049V24.7291C72.3007 25.7359 72.0359 26.5087 71.5156 27.0237C70.9936 27.5386 70.1998 27.7986 69.1558 27.7986C68.2563 27.7986 67.5488 27.5947 67.0537 27.1919C66.6488 26.8624 66.295 26.4299 66.2125 25.5143H62.1293C62.167 26.7956 62.5434 27.6589 63.0746 28.4155C63.6705 29.2632 64.5085 29.9259 65.5676 30.3838C66.6164 30.8362 67.8335 31.0659 69.1843 31.0659C71.4519 31.0659 73.2573 30.4959 74.5489 29.3732C75.8485 28.244 76.5074 26.6629 76.5074 24.6747V10.5952H72.6108V12.288ZM71.865 19.6267C71.5964 20.181 71.2173 20.6157 70.7369 20.9166C70.2569 21.2175 69.6778 21.3706 69.0145 21.3706C68.0557 21.3706 67.3104 21.0444 66.7345 20.3725C66.1607 19.7043 65.8701 18.7865 65.8701 17.6444C65.8701 16.5022 66.1607 15.5844 66.7345 14.9152C67.3029 14.2525 68.0702 13.917 69.0145 13.917C69.9587 13.917 70.793 14.2573 71.3797 14.9303C71.9718 15.6087 72.2721 16.5314 72.2721 17.6708C72.2721 18.409 72.1352 19.0664 71.865 19.6261V19.6267Z" fill="#00E0FF"/>
<path d="M103.002 14.1636V10.5959H99.9453V5.56299H95.738V10.5959H93.127V14.1636H95.738V20.0037C95.738 23.2506 96.3776 25.6368 100.364 25.5629L102.867 25.5138V22.1688H101.625C99.8531 22.1688 99.9518 21.1356 99.9518 19.2169L99.9448 14.1636H103.002H103.002Z" fill="#00E0FF"/>
<path d="M60.6059 14.1636V10.5959H57.5488V5.56299H53.3415V10.5959H50.7305V14.1636H53.3415V20.0037C53.3415 23.2506 53.9811 25.6368 57.9678 25.5629L60.4705 25.5138V22.1688H59.2286C57.4566 22.1688 57.5553 21.1356 57.5553 19.2169L57.5483 14.1636H60.6053H60.6059Z" fill="#00E0FF"/>
<path d="M10.5599 9.15874H16.9128L23.4119 15.6163C23.8347 16.0364 23.8369 16.7196 23.4163 17.1419L15.0815 25.5187H8.53711L10.5156 23.5952L17.78 16.3767L10.6079 9.1582" fill="#00E0FF"/>
<path d="M13.1705 16.3605H6.81755L0.318435 9.90289C-0.104341 9.48281 -0.106498 8.79957 0.314121 8.37734L8.64886 0H15.1933L13.2147 1.92352L5.95042 9.142L13.1225 16.3605" fill="#00E0FF"/>
</svg>
