<svg xmlns="http://www.w3.org/2000/svg" width="24" height="24" viewBox="0 0 24 24" fill="none">
  <path
    d="M21.4615 15.4943L22.2008 15.8001C22.3164 15.5205 22.2645 15.1996 22.0665 14.9708C21.8685 14.742 21.5584 14.6445 21.2651 14.7188L21.4615 15.4943ZM12.0989 2.84619L12.757 3.30106C12.9299 3.05084 12.946 2.72418 12.7985 2.45818C12.6509 2.19217 12.3653 2.03285 12.0615 2.04707L12.0989 2.84619ZM21.2651 14.7188C20.6289 14.8799 19.9601 14.966 19.2692 14.966V16.566C20.0935 16.566 20.8942 16.4632 21.658 16.2698L21.2651 14.7188ZM19.2692 14.966C14.9271 14.966 11.4561 11.5759 11.4561 7.45332H9.85609C9.85609 12.5126 14.0975 16.566 19.2692 16.566V14.966ZM11.4561 7.45332C11.4561 5.91866 11.9339 4.49187 12.757 3.30106L11.4408 2.39132C10.4409 3.83789 9.85609 5.57978 9.85609 7.45332H11.4561ZM3.8 12.0715C3.8 7.57693 7.46932 3.86371 12.1363 3.64532L12.0615 2.04707C6.59536 2.30286 2.2 6.66886 2.2 12.0715H3.8ZM12.5701 20.5077C7.6995 20.5077 3.8 16.7042 3.8 12.0715H2.2C2.2 17.6409 6.86986 22.1077 12.5701 22.1077V20.5077ZM20.7223 15.1885C19.4377 18.2938 16.281 20.5077 12.5701 20.5077V22.1077C16.9241 22.1077 20.6671 19.5077 22.2008 15.8001L20.7223 15.1885Z"
    fill="currentColor" />
</svg>