<svg width="24" height="24" viewBox="0 0 24 24" fill="none" xmlns="http://www.w3.org/2000/svg">
  <g clip-path="url(#clip0_2402_10799)">
    <path
      d="M12.2099 19.14C10.9187 19.14 9.65656 18.7565 8.5835 18.0383C7.51044 17.3201 6.6748 16.2995 6.18252 15.1058C5.69023 13.912 5.56347 12.599 5.8183 11.3332C6.07314 10.0674 6.69808 8.90571 7.61393 7.99548C8.52977 7.08526 9.69526 6.46746 10.9626 6.22042C12.23 5.97338 13.5422 6.10822 14.7329 6.60784C15.9235 7.10746 16.939 7.94937 17.6506 9.02683C18.3622 10.1043 18.7379 11.3688 18.7299 12.66C18.7142 14.3806 18.0209 16.0257 16.8004 17.2387C15.58 18.4517 13.9306 19.1348 12.2099 19.14ZM12.2099 7.59998C11.221 7.59998 10.2543 7.89323 9.43209 8.44263C8.60984 8.99204 7.96898 9.77293 7.59054 10.6866C7.2121 11.6002 7.11308 12.6055 7.30601 13.5754C7.49893 14.5453 7.97514 15.4362 8.6744 16.1355C9.37366 16.8348 10.2646 17.311 11.2345 17.5039C12.2044 17.6968 13.2097 17.5978 14.1234 17.2194C15.037 16.8409 15.8179 16.2001 16.3673 15.3778C16.9167 14.5556 17.2099 13.5889 17.2099 12.6C17.2099 11.2739 16.6832 10.0021 15.7455 9.06444C14.8078 8.12676 13.536 7.59998 12.2099 7.59998Z"
      fill="white" />
    <path
      d="M6.77154 6.66471C6.99602 6.46246 7.02032 6.11041 6.80667 5.89676L5.73356 4.82365C5.5383 4.62838 5.22171 4.62838 5.02645 4.82365L4.74052 5.10958C4.54256 5.30754 4.5457 5.62945 4.74748 5.82351L5.83516 6.86958C6.03975 7.06635 6.36584 7.05217 6.56924 6.85418C6.63545 6.78973 6.7029 6.72656 6.77154 6.66471Z"
      fill="white" />
    <path
      d="M20.7071 11.5701C20.4061 11.5701 20.1746 11.8343 20.19 12.1349C20.1975 12.2798 20.2008 12.4249 20.1999 12.5701C20.1999 12.791 20.379 12.9701 20.5999 12.9701H22.0599C22.336 12.9701 22.5599 12.7462 22.5599 12.4701V12.0701C22.5599 11.7939 22.336 11.5701 22.0599 11.5701H20.7071Z"
      fill="white" />
    <path
      d="M12.21 4.53004C12.2661 4.53004 12.3229 4.53004 12.38 4.53004C12.6562 4.53004 12.88 4.30619 12.88 4.03004V2.42004C12.88 2.1439 12.6562 1.92004 12.38 1.92004H12.03C11.7539 1.92004 11.53 2.1439 11.53 2.42004V4.01253C11.53 4.30654 11.7827 4.53612 12.0767 4.53117C12.1211 4.53042 12.1655 4.53004 12.21 4.53004Z"
      fill="white" />
    <path
      d="M17.8929 18.1346C17.6874 18.3393 17.6743 18.6743 17.8794 18.8794L18.6765 19.6764C18.8717 19.8717 19.1883 19.8717 19.3836 19.6764L19.6765 19.3835C19.8717 19.1883 19.8717 18.8717 19.6765 18.6764L18.875 17.875C18.6643 17.6642 18.3181 17.6845 18.1158 17.9033C18.043 17.9819 17.9687 18.059 17.8929 18.1346Z"
      fill="white" />
    <path
      d="M12.21 20.53C12.15 20.53 12.0899 20.53 12.03 20.53C11.7539 20.53 11.53 20.7538 11.53 21.03V22.12C11.53 22.3961 11.7539 22.62 12.03 22.62H12.38C12.6562 22.62 12.88 22.3961 12.88 22.12V21.0375C12.88 20.7435 12.6278 20.5191 12.3339 20.528C12.2924 20.5293 12.251 20.53 12.21 20.53Z"
      fill="white" />
    <path
      d="M4.20999 12.53C4.20913 12.3849 4.21242 12.2398 4.21985 12.0949C4.23528 11.7942 4.00381 11.53 3.70277 11.53H2.37C2.09385 11.53 1.87 11.7539 1.87 12.03V12.39C1.87 12.6662 2.09385 12.89 2.37 12.89H3.84999C4.04881 12.89 4.20999 12.7289 4.20999 12.53Z"
      fill="white" />
    <path
      d="M6.33314 17.948C6.1317 17.7307 5.78779 17.7122 5.57827 17.9217L4.77347 18.7265C4.57821 18.9217 4.57821 19.2383 4.77347 19.4336L5.06637 19.7265C5.26163 19.9217 5.57821 19.9217 5.77348 19.7265L6.57368 18.9263C6.77758 18.7224 6.76615 18.3896 6.56216 18.1858C6.48431 18.108 6.40795 18.0287 6.33314 17.948Z"
      fill="white" />
    <path
      d="M17.8444 6.85099C18.0501 7.05022 18.3799 7.06007 18.5824 6.85758L19.6664 5.7736C19.8617 5.57834 19.8617 5.26175 19.6664 5.06649L19.3803 4.78037C19.1824 4.58248 18.8606 4.58553 18.6665 4.78714L17.5955 5.89964C17.3895 6.1136 17.4154 6.45799 17.6361 6.65663C17.7067 6.72013 17.7761 6.78493 17.8444 6.85099Z"
      fill="white" />
  </g>
  <defs>
    <clipPath id="clip0_2402_10799">
      <rect width="24" height="24" fill="white" />
    </clipPath>
  </defs>
</svg>
  