<svg
  width="24"
  height="24"
  viewBox="0 0 24 24"
  fill="none"
  xmlns="http://www.w3.org/2000/svg"
>
  <path
    d="M19.4301 6.99984C19.7062 6.99984 19.9301 6.77599 19.9301 6.49984V2.93984C19.9301 2.71441 19.8405 2.49821 19.6811 2.3388C19.5217 2.1794 19.3055 2.08984 19.0801 2.08984H4.91006C4.68462 2.08984 4.46842 2.1794 4.30901 2.3388C4.14961 2.49821 4.06006 2.71441 4.06006 2.93984V21.5298C4.06006 21.7553 4.14961 21.9715 4.30901 22.1309C4.46842 22.2903 4.68462 22.3798 4.91006 22.3798H19.0801C19.3055 22.3798 19.5217 22.2903 19.6811 22.1309C19.8405 21.9715 19.9301 21.7553 19.9301 21.5298V10.2498C19.9301 9.9737 19.7062 9.74984 19.4301 9.74984H18.7301C18.4539 9.74984 18.2301 9.9737 18.2301 10.2498V20.6798H5.76006V3.77984H18.2301V6.49984C18.2301 6.77599 18.4539 6.99984 18.7301 6.99984H19.4301Z"
    fill="currentColor"
  />
  <path
    d="M12.8499 13.0899V7.87988C12.8499 7.60374 12.6261 7.37988 12.3499 7.37988H11.6499C11.3738 7.37988 11.1499 7.60374 11.1499 7.87988V13.0899H9.88893C9.48083 13.0899 9.24461 13.5524 9.48386 13.883L11.5942 16.7992C11.794 17.0753 12.2054 17.075 12.4048 16.7986L14.5083 13.8824C14.7468 13.5517 14.5105 13.0899 14.1028 13.0899H12.8499Z"
    fill="currentColor"
  />
</svg>