<svg data-v-1a35e3a5="" width="24" height="24" viewBox="0 0 24 24" fill="none"
  xmlns="http://www.w3.org/2000/svg">
  <path data-v-1a35e3a5=""
    d="M20.2608 21.0074H3.73922C3.54317 21.0074 3.35515 20.9295 3.21652 20.7909C3.07789 20.6523 3 20.4642 3 20.2682V3.73922C3 3.54317 3.07789 3.35514 3.21652 3.21651C3.35515 3.07788 3.54317 3 3.73922 3H20.2608C20.4568 3 20.6449 3.07788 20.7835 3.21651C20.9222 3.35514 21 3.54317 21 3.73922V7.19877C21 7.39483 20.9222 7.58285 20.7835 7.72148C20.6449 7.86011 20.4568 7.93799 20.2608 7.93799C20.0647 7.93799 19.8767 7.86011 19.7381 7.72148C19.5995 7.58285 19.5216 7.39483 19.5216 7.19877V4.47844H4.47844V19.529H19.5216V10.5253C19.5216 10.3292 19.5995 10.1412 19.7381 10.0026C19.8767 9.86393 20.0647 9.78604 20.2608 9.78604C20.4568 9.78604 20.6449 9.86393 20.7835 10.0026C20.9222 10.1412 21 10.3292 21 10.5253V20.2682C21 20.4642 20.9222 20.6523 20.7835 20.7909C20.6449 20.9295 20.4568 21.0074 20.2608 21.0074Z"
    fill="var(--color-primary-text)"></path>
  <path data-v-1a35e3a5=""
    d="M15.3966 12.9942C15.2373 12.7048 15.018 12.4528 14.7535 12.255C14.4912 12.0501 14.1996 11.8856 13.8886 11.7671C13.5928 11.6474 13.289 11.5486 12.9793 11.4714L12.0775 11.2348C11.9001 11.1905 11.7079 11.1313 11.5157 11.0648C11.3213 10.9947 11.1353 10.9029 10.9613 10.7913C10.7965 10.6918 10.6572 10.5551 10.5547 10.3921C10.4472 10.2222 10.3931 10.0239 10.3995 9.82293C10.3887 9.55865 10.4667 9.29838 10.6212 9.0837C10.7901 8.86538 11.0149 8.6968 11.2717 8.59582C11.5841 8.4707 11.9186 8.41034 12.2549 8.41841C12.7194 8.40004 13.1784 8.52382 13.5707 8.77323C13.7889 8.91581 13.9609 9.11869 14.066 9.35722C14.1127 9.4769 14.1938 9.58008 14.299 9.65375C14.4043 9.72742 14.529 9.76828 14.6574 9.77118H14.7535C14.8543 9.77206 14.9537 9.7487 15.0436 9.70306C15.1334 9.65742 15.2109 9.59084 15.2696 9.50893C15.3284 9.42703 15.3665 9.33221 15.3809 9.23248C15.3953 9.13274 15.3855 9.031 15.3523 8.93586C15.2844 8.76272 15.1949 8.5988 15.0861 8.44798C14.7917 8.05149 14.3995 7.7382 13.9477 7.53873C13.5692 7.36875 13.164 7.26619 12.7502 7.23565V6.49643C12.7502 6.33175 12.6848 6.17381 12.5683 6.05736C12.4519 5.94091 12.2939 5.87549 12.1292 5.87549C11.9645 5.87549 11.8066 5.94091 11.6902 6.05736C11.5737 6.17381 11.5083 6.33175 11.5083 6.49643V7.30958C11.1996 7.35783 10.8987 7.44734 10.6138 7.5757C10.1463 7.77282 9.74041 8.09196 9.4385 8.49972C9.14673 8.90645 8.99377 9.39637 9.00234 9.89685C8.98956 10.1887 9.04123 10.4797 9.15366 10.7493C9.26609 11.0188 9.43652 11.2603 9.65285 11.4566C10.1605 11.8879 10.7636 12.192 11.4122 12.3437L12.5062 12.6467C12.8128 12.7208 13.1122 12.8223 13.4007 12.9498C13.6391 13.0448 13.8537 13.1912 14.029 13.3786C14.1873 13.566 14.2691 13.8062 14.2582 14.0513C14.264 14.3378 14.1699 14.6175 13.9921 14.8422C13.7948 15.0778 13.5402 15.2585 13.2529 15.3671C12.9156 15.496 12.5567 15.5588 12.1958 15.5519C11.8593 15.5556 11.5244 15.5032 11.2052 15.3966C10.921 15.2964 10.6667 15.1261 10.466 14.9014C10.3699 14.786 10.2926 14.6563 10.2368 14.517C10.1943 14.3886 10.1134 14.2765 10.0049 14.1958C9.89646 14.1152 9.76578 14.0698 9.63066 14.0661H9.505C9.40418 14.0656 9.30471 14.0892 9.2148 14.1348C9.12489 14.1805 9.04711 14.2468 8.9879 14.3284C8.92868 14.41 8.88973 14.5045 8.87424 14.6041C8.85876 14.7038 8.86718 14.8056 8.89883 14.9014C8.9779 15.1187 9.08474 15.325 9.21669 15.5149C9.51848 15.9324 9.93064 16.2574 10.4069 16.4537C10.754 16.5984 11.1198 16.6929 11.4935 16.7346V17.4739C11.4935 17.6385 11.5589 17.7965 11.6754 17.9129C11.7918 18.0294 11.9498 18.0948 12.1145 18.0948C12.2792 18.0948 12.4371 18.0294 12.5535 17.9129C12.67 17.7965 12.7354 17.6385 12.7354 17.4739V16.7346C13.1902 16.7022 13.6357 16.5896 14.0512 16.402C14.5274 16.2015 14.9354 15.8678 15.2266 15.441C15.4972 15.041 15.6462 14.5711 15.6553 14.0882C15.6645 13.7074 15.5754 13.3306 15.3966 12.9942Z"
    fill="var(--color-primary)"></path>
</svg>