<svg width="14" height="10" viewBox="0 0 20 13" fill="none" xmlns="http://www.w3.org/2000/svg">
  <path fill-rule="evenodd" clip-rule="evenodd"
    d="M15.2941 2.16843L19.5 6.23319L15.2941 10.2978C12.2658 13.2245 7.45029 13.1834 4.47228 10.2054L0.5 6.23307L4.47222 2.26077C7.45025 -0.717286 12.2658 -0.758362 15.2941 2.16843ZM10.0001 2.1375C7.70464 2.1375 5.84384 3.99831 5.84384 6.29375C5.84384 8.58919 7.70464 10.45 10.0001 10.45C12.2955 10.45 14.1563 8.58919 14.1563 6.29375C14.1563 3.99831 12.2955 2.1375 10.0001 2.1375ZM9.99994 3.79905C11.3116 3.79905 12.3749 4.86234 12.3749 6.17405C12.3749 7.48576 11.3116 8.54905 9.99994 8.54905C8.68824 8.54905 7.62496 7.48576 7.62496 6.17405C7.62496 4.86234 8.68824 3.79905 9.99994 3.79905Z"
    fill="var(--color-third-text)" />
</svg>
  