<svg width="14" height="10" viewBox="0 0 20 16" fill="none" xmlns="http://www.w3.org/2000/svg">
  <path
    d="M10.2916 12.7721L12.0034 14.4809C11.2727 14.7008 10.5219 14.8107 9.76108 14.8107C7.66891 14.8107 5.66684 13.9812 4.1853 12.5122L0.26123 8.6249L3.17425 5.67691L5.56673 8.05529C5.54671 8.23517 5.54671 8.40505 5.56673 8.58493C5.56673 10.9033 7.43868 12.7921 9.76108 12.812C9.94127 12.812 10.1114 12.8021 10.2916 12.7721Z"
    fill="var(--color-third-text)" />
  <path
    d="M19.7388 7.52023L15.8048 3.52296C14.3232 2.05396 12.3211 1.24451 10.239 1.25451C9.4782 1.25451 8.72742 1.36443 7.99666 1.58428L9.70844 3.28312C9.88862 3.27313 10.0588 3.27313 10.239 3.28312C12.5814 3.28312 14.4734 5.18183 14.4734 7.51024C14.4734 8.28971 14.2632 9.04919 13.8527 9.70874L4.17269 0.0153503L2.76123 1.43438L14.0529 12.7067L14.7637 13.4162L16.3754 15.0151L17.7868 13.6061L15.6846 11.5175L19.7388 7.52023Z"
    fill="var(--color-third-text)" />
</svg>