<svg xmlns="http://www.w3.org/2000/svg" width="16" height="16" fill="none"><path fill="#F7931A" d="M15.76 6.065A7.998 7.998 0 1 0 .24 9.935a7.998 7.998 0 0 0 15.52-3.87Z"/><path fill="#fff" fill-rule="evenodd" d="M11.528 9.14c.16 1.064-.65 1.637-1.76 2.018l.36 1.443-.878.218-.35-1.404c-.23.058-.467.112-.703.166l.353 1.413-.878.219-.36-1.442c-.19.044-.378.087-.56.132l.001.005-1.21.302-.234-.938s.651-.15.638-.158c.355-.089.42-.324.409-.51l-.41-1.644a.713.713 0 0 0 .091-.03l-.025.007a6.874 6.874 0 0 1-.067.017L5.37 6.652c-.043-.108-.153-.27-.402-.208.009-.013-.638.16-.638.16l-.436-1.006 1.143-.285c.125-.031.248-.063.37-.095l.256-.066-.364-1.459.877-.219.36 1.444c.24-.065.472-.125.7-.182L6.877 3.3l.878-.219.363 1.456c1.497-.283 2.623-.17 3.096 1.185.382 1.09-.019 1.719-.806 2.129.574.132 1.006.51 1.12 1.289ZM9.523 6.327c-.25-1-1.815-.586-2.531-.397l-.171.044.482 1.933c.06-.015.133-.032.216-.05.74-.167 2.259-.507 2.004-1.53ZM7.667 8.754c.598-.16 1.9-.507 2.127.402.232.93-1.034 1.21-1.652 1.346l-.181.042-.438-1.753.144-.037Z" clip-rule="evenodd"/></svg>