<svg width="16" height="16" viewBox="0 0 16 16" fill="none" xmlns="http://www.w3.org/2000/svg">
<g id="Token">
<path id="Vector" d="M8 16C12.4183 16 16 12.4183 16 8C16 3.58172 12.4183 0 8 0C3.58172 0 0 3.58172 0 8C0 12.4183 3.58172 16 8 16Z" fill="#26A17B"/>
<path id="Vector_2" fill-rule="evenodd" clip-rule="evenodd" d="M8.97606 8.73066V8.72967C8.92139 8.73363 8.63959 8.75045 8.01089 8.75045C7.50892 8.75045 7.15555 8.73561 7.0313 8.72967V8.73116C5.09898 8.64657 3.65669 8.31171 3.65669 7.91106C3.65669 7.5109 5.09898 7.17603 7.0313 7.08997V8.39777C7.15754 8.40668 7.51936 8.42795 8.01933 8.42795C8.61921 8.42795 8.91989 8.40322 8.97606 8.39827V7.09096C10.9044 7.17653 12.3432 7.51139 12.3432 7.91106C12.3432 8.31171 10.9044 8.64558 8.97606 8.73066ZM8.97606 6.95493V5.78463H11.6668V4H4.34056V5.78463H7.0313V6.95444C4.84452 7.05435 3.19995 7.48567 3.19995 8.00207C3.19995 8.51846 4.84452 8.94929 7.0313 9.0497V12.8H8.97606V9.04871C11.1594 8.94879 12.8 8.51797 12.8 8.00207C12.8 7.48617 11.1594 7.05534 8.97606 6.95493Z" fill="white"/>
</g>
</svg>
