<svg width="20" height="20" viewBox="0 0 20 20" fill="none" xmlns="http://www.w3.org/2000/svg">
<path d="M11.6667 5.41658C11.6667 4.26599 10.7339 3.33325 9.58333 3.33325C8.43274 3.33325 7.5 4.26599 7.5 5.41658C7.5 6.56718 8.43274 7.49992 9.58333 7.49992" stroke="var(--color-primary-text)" stroke-width="1.25"/>
<circle cx="12.0833" cy="7.91658" r="2.08333" stroke="var(--color-primary-text)" stroke-width="1.25"/>
<path d="M5.83333 13.3333H7.08333C7.77369 13.3333 8.33333 12.7736 8.33333 12.0833V12.0833C8.33333 11.3929 7.77369 10.8333 7.08333 10.8333H4.16667C3.24619 10.8333 2.5 11.5794 2.5 12.4999V13.382C2.5 14.0994 2.95905 14.7363 3.63962 14.9631L7.89182 16.3805C9.26026 16.8367 10.7397 16.8367 12.1082 16.3805L16.5066 14.9144C17.0998 14.7166 17.5 14.1614 17.5 13.5361V13.5361C17.5 12.7337 16.8495 12.0833 16.0472 12.0833H10.8333" stroke="var(--color-primary-text)" stroke-width="1.25" stroke-linecap="round"/>
</svg>
