<svg width="22" height="22" class="arrows not-jump" viewBox="0 0 22 22" fill="none" xmlns="http://www.w3.org/2000/svg">
<g id="Group 1533208287" class="not-jump">
<path class="not-jump" id="Ellipse 7481 (Stroke)" fill-rule="evenodd" clip-rule="evenodd" d="M3.63461 16.4052C6.69805 20.4378 12.4505 21.2235 16.4831 18.16C19.473 15.8887 20.679 12.1383 19.8521 8.70541C19.7712 8.36984 19.9777 8.03226 20.3133 7.95143C20.6489 7.87059 20.9865 8.0771 21.0673 8.41268C22.0062 12.3106 20.6384 16.5732 17.2392 19.1554C12.7776 22.5448 6.46331 21.7877 2.92061 17.5158L2.9206 18.6577C2.9206 19.0029 2.64078 19.2827 2.2956 19.2827C1.95043 19.2827 1.6706 19.0029 1.6706 18.6577L1.67061 15.4738C1.67061 15.1872 1.8655 14.9373 2.14346 14.8676C2.42141 14.7978 2.7112 14.926 2.84653 15.1786C3.07271 15.6008 3.33517 16.0111 3.63461 16.4052ZM1.37603 13.0891C1.03552 13.1457 0.713612 12.9155 0.657027 12.575C0.0437251 8.88442 1.4449 4.98349 4.63326 2.56139C8.98253 -0.742629 15.0924 -0.1064 18.6791 3.88502L18.7118 2.75064C18.7217 2.4056 19.0095 2.13395 19.3545 2.14388C19.6995 2.15381 19.9712 2.44157 19.9613 2.78661L19.8774 5.70097C19.8694 5.97643 19.682 6.2142 19.416 6.28625C19.15 6.3583 18.8682 6.24763 18.7224 6.01383C18.5733 5.77487 18.4118 5.54051 18.2379 5.31155C15.1745 1.27896 9.42199 0.49331 5.3894 3.55675C2.58485 5.68729 1.34984 9.11895 1.89012 12.3701C1.9467 12.7106 1.71654 13.0325 1.37603 13.0891Z" fill="currentColor"/>
</g>
</svg>
