<svg width="20" height="20" viewBox="0 0 20 20" fill="none" xmlns="http://www.w3.org/2000/svg">
<path d="M14.7266 16.5062C13.2766 17.5687 11.5329 18.1375 9.73914 18.1375C7.94539 18.1375 6.20164 17.5625 4.75164 16.5062M1.33289 10.7625C1.08289 8.975 1.40164 7.15 2.24539 5.55C3.08914 3.95 4.40789 2.6625 6.02039 1.875" stroke="var(--color-primary-text)" stroke-width="1.25" stroke-linecap="round" stroke-linejoin="round"/>
<path d="M4.11523 9.08135L9.15273 4.04385C9.35898 3.83135 9.45898 3.7376 9.57773 3.69385C9.68398 3.6626 9.79648 3.6626 9.89648 3.69385C10.0152 3.7376 10.1152 3.8376 10.3215 4.04385L15.359 9.08135C15.5652 9.28135 15.6652 9.3876 15.7027 9.50635C15.734 9.6126 15.734 9.71885 15.7027 9.81885C15.6652 9.9376 15.559 10.0438 15.359 10.2438L10.3215 15.2813C10.1152 15.4938 10.0152 15.5876 9.89648 15.6313C9.79023 15.6626 9.67773 15.6626 9.57773 15.6313C9.45898 15.5876 9.35898 15.4876 9.15273 15.2813L4.11523 10.2501C3.90898 10.0501 3.80898 9.94385 3.77148 9.8251C3.74023 9.71885 3.74023 9.6126 3.77148 9.5126C3.80898 9.39385 3.91523 9.2876 4.11523 9.0876V9.08135Z" stroke="var(--color-primary-text)" stroke-width="1.25" stroke-linecap="round" stroke-linejoin="round"/>
<path d="M8.36914 10.7875C8.36914 11.3312 8.77539 11.775 9.28164 11.775H10.1316C10.6691 11.775 11.1129 11.3 11.1129 10.7187C11.1129 10.1375 10.6754 9.66245 10.1316 9.66245H9.35039C8.81289 9.66245 8.36914 9.18745 8.36914 8.6062C8.36914 8.02495 8.80664 7.54995 9.35039 7.54995H10.2004C10.7066 7.54995 11.1129 7.9937 11.1129 8.53745M9.74414 6.9187V7.54995M9.74414 11.7687V12.4" stroke="var(--color-primary-text)" stroke-width="0.9375" stroke-linecap="round" stroke-linejoin="round"/>
<path d="M13.459 1.875C15.0715 2.66875 16.3902 3.95625 17.234 5.55C18.0777 7.15 18.3965 8.975 18.1465 10.7625" stroke="var(--color-primary-text)" stroke-width="1.25" stroke-linecap="round" stroke-linejoin="round"/>
</svg>
