<svg width="24" height="24" viewBox="0 0 24 24" fill="none" xmlns="http://www.w3.org/2000/svg">
<g id="Icon24">
<circle id="Ellipse 7202" cx="12" cy="12" r="9.35" stroke="currentColor" stroke-width="1.3"/>
<path id="Ellipse 7203" d="M21.35 12C21.35 13.0019 20.5209 14.0839 18.7804 14.9542C17.0787 15.805 14.6824 16.35 12 16.35C9.31761 16.35 6.92129 15.805 5.21962 14.9542C3.47907 14.0839 2.65 13.0019 2.65 12C2.65 10.9981 3.47907 9.91612 5.21962 9.04584C6.92129 8.19501 9.31761 7.65 12 7.65C14.6824 7.65 17.0787 8.19501 18.7804 9.04584C20.5209 9.91612 21.35 10.9981 21.35 12Z" stroke="currentColor" stroke-width="1.3"/>
<path id="Ellipse 7204" d="M12 2.65C13.0019 2.65 14.0839 3.47907 14.9542 5.21962C15.805 6.92129 16.35 9.3176 16.35 12C16.35 14.6824 15.805 17.0787 14.9542 18.7804C14.0839 20.5209 13.0019 21.35 12 21.35C10.9981 21.35 9.91612 20.5209 9.04584 18.7804C8.19501 17.0787 7.65 14.6824 7.65 12C7.65 9.3176 8.19501 6.92129 9.04584 5.21962C9.91612 3.47907 10.9981 2.65 12 2.65Z" stroke="currentColor" stroke-width="1.3"/>
</g>
</svg>
