<svg width="20" height="20" viewBox="0 0 20 20" fill="none" xmlns="http://www.w3.org/2000/svg">
<path d="M7.70836 7.08342C7.70836 8.34907 6.68234 9.37509 5.41668 9.37509C4.15102 9.37509 3.125 8.34907 3.125 7.08342C3.125 5.81777 4.15102 4.79175 5.41668 4.79175C6.68234 4.79175 7.70836 5.81777 7.70836 7.08342Z" stroke="var(--color-primary-text)" stroke-width="1.25"/>
<path d="M8.80004 17.5001V15.1001C8.80004 13.2223 7.27779 11.7001 5.40002 11.7001V11.7001C3.52224 11.7001 2 13.2223 2 15.1001V17.5001" stroke="var(--color-primary-text)" stroke-width="1.25" stroke-linecap="round" stroke-linejoin="round"/>
<path d="M17.9993 15.0001V12.6001C17.9993 10.7223 16.477 9.20007 14.5992 9.20007V9.20007C12.7215 9.20007 11.1992 10.7223 11.1992 12.6001V15.0001" stroke="var(--color-primary-text)" stroke-width="1.25" stroke-linecap="round" stroke-linejoin="round"/>
<path d="M16.8744 4.58342C16.8744 5.84907 15.8484 6.87509 14.5827 6.87509C13.317 6.87509 12.291 5.84907 12.291 4.58342C12.291 3.31777 13.317 2.29175 14.5827 2.29175C15.8484 2.29175 16.8744 3.31777 16.8744 4.58342Z" stroke="var(--color-primary-text)" stroke-width="1.25"/>
</svg>
