<svg width="20" height="20" viewBox="0 0 20 20" fill="none" xmlns="http://www.w3.org/2000/svg">
<g id="UsersThree">
<path id="Vector" d="M19.1243 11.75C19.0586 11.7992 18.9839 11.8351 18.9044 11.8554C18.8249 11.8758 18.7421 11.8803 18.6609 11.8687C18.5796 11.8571 18.5014 11.8296 18.4308 11.7878C18.3602 11.746 18.2985 11.6907 18.2493 11.625C17.8726 11.1186 17.3822 10.7078 16.8177 10.4256C16.2532 10.1433 15.6304 9.99755 14.9993 10C14.8764 9.99999 14.7562 9.96374 14.6538 9.89579C14.5514 9.82784 14.4713 9.7312 14.4235 9.61797C14.391 9.54107 14.3743 9.45846 14.3743 9.375C14.3743 9.29154 14.391 9.20892 14.4235 9.13203C14.4713 9.01879 14.5514 8.92216 14.6538 8.85421C14.7562 8.78626 14.8764 8.75001 14.9993 8.75C15.3499 8.74997 15.6936 8.65159 15.9912 8.46605C16.2887 8.2805 16.5283 8.01522 16.6827 7.70034C16.837 7.38546 16.9 7.0336 16.8644 6.68473C16.8288 6.33586 16.6961 6.00396 16.4814 5.72673C16.2666 5.44951 15.9784 5.23806 15.6495 5.11642C15.3206 4.99477 14.9642 4.96781 14.6207 5.03858C14.2772 5.10935 13.9605 5.27503 13.7065 5.51679C13.4524 5.75855 13.2713 6.0667 13.1836 6.40625C13.1631 6.48576 13.1271 6.56045 13.0778 6.62606C13.0284 6.69166 12.9665 6.7469 12.8958 6.78861C12.8251 6.83033 12.7468 6.8577 12.6655 6.86917C12.5842 6.88064 12.5014 6.87598 12.4219 6.85547C12.3424 6.83495 12.2677 6.79897 12.2021 6.74958C12.1365 6.7002 12.0813 6.63837 12.0395 6.56764C11.9978 6.49691 11.9705 6.41865 11.959 6.33734C11.9475 6.25603 11.9522 6.17326 11.9727 6.09375C12.0944 5.6229 12.3243 5.18695 12.6441 4.82058C12.9639 4.45422 13.3648 4.16755 13.8149 3.9834C14.265 3.79924 14.7519 3.72267 15.2368 3.75979C15.7217 3.7969 16.1912 3.94668 16.6081 4.19719C17.0249 4.44771 17.3775 4.79205 17.6378 5.20282C17.8982 5.61359 18.059 6.07946 18.1076 6.56334C18.1562 7.04722 18.0912 7.53577 17.9178 7.99011C17.7444 8.44446 17.4673 8.85205 17.1086 9.18047C17.9585 9.54843 18.6973 10.1324 19.2516 10.8742C19.3008 10.94 19.3366 11.0149 19.3569 11.0946C19.3771 11.1743 19.3815 11.2572 19.3696 11.3385C19.3578 11.4199 19.33 11.4981 19.2879 11.5687C19.2458 11.6393 19.1902 11.7009 19.1243 11.75ZM14.9149 16.5625C14.9601 16.6336 14.9905 16.7132 15.0042 16.7964C15.0178 16.8795 15.0145 16.9646 14.9945 17.0465C14.9744 17.1284 14.938 17.2053 14.8875 17.2728C14.8369 17.3402 14.7732 17.3967 14.7002 17.4389C14.6272 17.4811 14.5465 17.5081 14.4628 17.5182C14.3791 17.5284 14.2943 17.5215 14.2133 17.498C14.1323 17.4746 14.057 17.4349 13.9917 17.3816C13.9265 17.3282 13.8727 17.2622 13.8336 17.1875C13.4399 16.5208 12.8792 15.9683 12.2068 15.5845C11.5344 15.2007 10.7735 14.9989 9.99926 14.9989C9.22502 14.9989 8.46415 15.2007 7.79174 15.5845C7.11933 15.9683 6.5586 16.5208 6.16489 17.1875C6.12581 17.2622 6.07204 17.3282 6.00679 17.3816C5.94154 17.4349 5.86618 17.4746 5.78522 17.498C5.70427 17.5215 5.6194 17.5284 5.53572 17.5182C5.45204 17.5081 5.37128 17.4811 5.2983 17.4389C5.22533 17.3967 5.16163 17.3402 5.11106 17.2728C5.06049 17.2053 5.02408 17.1284 5.00403 17.0465C4.98397 16.9646 4.98069 16.8795 4.99437 16.7964C5.00805 16.7132 5.03841 16.6336 5.08363 16.5625C5.68957 15.5214 6.61347 14.7021 7.71957 14.225C7.09717 13.7485 6.63975 13.0889 6.4116 12.3389C6.18346 11.589 6.19606 10.7864 6.44763 10.044C6.69921 9.30157 7.17711 8.65666 7.81416 8.1999C8.45121 7.74314 9.21538 7.49749 9.99926 7.49749C10.7831 7.49749 11.5473 7.74314 12.1844 8.1999C12.8214 8.65666 13.2993 9.30157 13.5509 10.044C13.8025 10.7864 13.8151 11.589 13.5869 12.3389C13.3588 13.0889 12.9013 13.7485 12.2789 14.225C13.385 14.7021 14.3089 15.5214 14.9149 16.5625ZM9.99926 13.75C10.4937 13.75 10.9771 13.6034 11.3882 13.3287C11.7993 13.054 12.1197 12.6635 12.309 12.2067C12.4982 11.7499 12.5477 11.2472 12.4512 10.7623C12.3548 10.2773 12.1167 9.83186 11.767 9.48223C11.4174 9.1326 10.9719 8.8945 10.487 8.79803C10.002 8.70157 9.49937 8.75108 9.04255 8.9403C8.58574 9.12952 8.19529 9.44995 7.92059 9.86107C7.64588 10.2722 7.49926 10.7555 7.49926 11.25C7.49926 11.913 7.76265 12.5489 8.23149 13.0178C8.70033 13.4866 9.33622 13.75 9.99926 13.75ZM5.62426 9.375C5.62426 9.20924 5.55841 9.05027 5.4412 8.93306C5.32399 8.81585 5.16502 8.75 4.99926 8.75C4.64858 8.74997 4.30493 8.65159 4.00736 8.46605C3.70979 8.2805 3.47021 8.01522 3.31585 7.70034C3.16148 7.38546 3.09852 7.0336 3.1341 6.68473C3.16969 6.33586 3.3024 6.00396 3.51716 5.72673C3.73192 5.44951 4.02012 5.23806 4.34903 5.11642C4.67793 4.99477 5.03436 4.96781 5.37783 5.03858C5.72129 5.10935 6.03803 5.27503 6.29205 5.51679C6.54608 5.75855 6.72721 6.0667 6.81489 6.40625C6.85633 6.56683 6.95986 6.70437 7.10271 6.78861C7.24556 6.87286 7.41602 6.89691 7.5766 6.85547C7.73718 6.81403 7.87473 6.71049 7.95897 6.56764C8.04322 6.42479 8.06726 6.25433 8.02582 6.09375C7.90414 5.6229 7.67424 5.18695 7.35442 4.82058C7.03461 4.45422 6.6337 4.16755 6.1836 3.9834C5.7335 3.79924 5.24663 3.72267 4.76173 3.75979C4.27683 3.7969 3.80728 3.94668 3.39045 4.19719C2.97362 4.44771 2.62101 4.79205 2.36068 5.20282C2.10035 5.61359 1.93948 6.07946 1.89088 6.56334C1.84227 7.04722 1.90727 7.53577 2.0807 7.99011C2.25413 8.44446 2.53121 8.85205 2.88989 9.18047C2.04089 9.54878 1.30294 10.1327 0.74926 10.8742C0.649701 11.0068 0.606897 11.1736 0.630266 11.3377C0.653635 11.5019 0.741262 11.65 0.87387 11.7496C1.00648 11.8492 1.17321 11.892 1.33737 11.8686C1.50154 11.8452 1.6497 11.7576 1.74926 11.625C2.12597 11.1186 2.6163 10.7078 3.18079 10.4256C3.74528 10.1433 4.36815 9.99755 4.99926 10C5.16502 10 5.32399 9.93415 5.4412 9.81694C5.55841 9.69973 5.62426 9.54076 5.62426 9.375Z" fill="currentColor"/>
</g>
</svg>
