<svg width="28" height="36" viewBox="0 0 28 36" fill="none" xmlns="http://www.w3.org/2000/svg">
<g id="Group 1533208285">
<path id="Vector 4657" d="M8 36H28V24.1644H18V28.1096H13V32.0548H8V36Z" fill="url(#paint0_linear_3301_15250)"/>
<path id="Vector 4658" d="M0 31.0685L8 36V32.0548L0 27.1233V31.0685Z" fill="#A7A7A7" fill-opacity="0.45"/>
<path id="Vector 4659" d="M5 27.1233L13 32.0548V28.1096L5 23.1781V27.1233Z" fill="#A7A7A7" fill-opacity="0.45"/>
<path id="Vector 4660" d="M10 23.1781L18 28.1096V24.1644L16.3125 22.6875L10 23.1781Z" fill="#A7A7A7" fill-opacity="0.45"/>
<path id="Vector 4661" opacity="0.8" d="M13 32.0548H8L0 27.1233H5L13 32.0548Z" fill="#F8F8F8"/>
<path id="Vector 4662" opacity="0.8" d="M18 28.1096H13L5 23.1781H10L18 28.1096Z" fill="#F8F8F8"/>
<path id="Vector 4663" opacity="0.8" d="M28 24.1644H18L16.125 23.0624L20 19.2328L28 24.1644Z" fill="#F8F8F8"/>
<path id="Vector 4664" d="M28 7.16468V24.1644L20 19.2329V7.16468C20 4.03403 23.434 2.11685 26.099 3.75965C27.2805 4.48798 28 5.77673 28 7.16468Z" fill="url(#paint1_linear_3301_15250)"/>
<path id="Subtract" fill-rule="evenodd" clip-rule="evenodd" d="M19.9801 9.6441C22.3575 12.4017 21.6415 17.1469 18.2631 20.479C15.182 23.5178 10.9095 24.3727 8.06055 22.7212C8.15646 22.8324 8.2574 22.9404 8.36341 23.045C11.0971 25.7412 16.1624 25.1167 19.6771 21.6502C23.1918 18.1836 23.825 13.1877 21.0913 10.4914C20.754 10.1587 20.3812 9.87658 19.9801 9.6441Z" fill="url(#paint2_linear_3301_15250)"/>
<ellipse id="Ellipse 7469" cx="8.93857" cy="6.95222" rx="8.93857" ry="6.95222" transform="matrix(0.711966 -0.702213 0.711966 0.702213 2 16.9919)" fill="url(#paint3_linear_3301_15250)"/>
<path id="Subtract_2" fill-rule="evenodd" clip-rule="evenodd" d="M19.6418 9.28369C22.053 12.015 21.3534 16.7637 17.9784 20.0924C14.6038 23.4208 9.7899 24.1111 7.02051 21.7338C7.10313 21.8274 7.18941 21.9186 7.27935 22.0073C9.99428 24.685 15.0249 24.0648 18.5155 20.622C22.0061 17.1792 22.635 12.2175 19.92 9.5398C19.8298 9.45079 19.737 9.36543 19.6418 9.28369Z" fill="#F8F8F8"/>
<path id="Subtract_3" fill-rule="evenodd" clip-rule="evenodd" d="M8.42498 20.5883C6.47211 18.468 6.94455 14.7013 9.55662 12.0128C12.1692 9.32375 15.9656 8.69797 18.1964 10.5332C18.1292 10.4603 18.0591 10.3893 17.9862 10.3203C15.7931 8.2476 11.825 8.82179 9.12302 11.6028C6.42108 14.3838 6.00854 18.3185 8.2016 20.3913C8.27415 20.4598 8.34865 20.5255 8.42498 20.5883Z" fill="#808080"/>
</g>
<defs>
<linearGradient id="paint0_linear_3301_15250" x1="18" y1="24.1644" x2="18" y2="36" gradientUnits="userSpaceOnUse">
<stop stop-color="#2E2E2E"/>
<stop offset="1" stop-color="#737373" stop-opacity="0.49"/>
</linearGradient>
<linearGradient id="paint1_linear_3301_15250" x1="24" y1="0" x2="24" y2="24.1644" gradientUnits="userSpaceOnUse">
<stop stop-color="#1B1B1B"/>
<stop offset="1" stop-opacity="0.18"/>
</linearGradient>
<linearGradient id="paint2_linear_3301_15250" x1="21.5" y1="9.61632" x2="7.43607" y2="23.1251" gradientUnits="userSpaceOnUse">
<stop stop-color="#BEBEBE"/>
<stop offset="1" stop-color="#3C3C3C"/>
</linearGradient>
<linearGradient id="paint3_linear_3301_15250" x1="8.93857" y1="0" x2="8.93857" y2="13.9044" gradientUnits="userSpaceOnUse">
<stop stop-color="#EBEBEB" stop-opacity="0.5"/>
<stop offset="0.947917" stop-color="#EBEBEB"/>
</linearGradient>
</defs>
</svg>
