<svg width="20" height="20" viewBox="0 0 20 20" fill="none" xmlns="http://www.w3.org/2000/svg">
<g clip-path="url(#clip0_2926_30266)">
<path d="M2.54054 2.49824C2.16743 2.8688 2.04394 3.3146 1.82931 4.08941C1.8258 4.1021 1.82226 4.11488 1.81869 4.12775C1.38586 5.68975 0.836364 8.04936 0.836364 9.97589C0.836364 11.9111 1.39082 14.2833 1.82456 15.8452L1.83506 15.883C2.04763 16.6487 2.16994 17.0893 2.53808 17.4579C2.90622 17.8265 3.3465 17.9493 4.11169 18.1628L4.14944 18.1733C5.7073 18.608 8.07127 19.1631 10.0001 19.1631C11.9289 19.1631 14.2929 18.608 15.8507 18.1733L15.8885 18.1628C16.6537 17.9493 17.094 17.8265 17.4621 17.4579C17.8302 17.0893 17.9525 16.6487 18.1651 15.883L18.1756 15.8452C18.6094 14.2833 19.1638 11.9111 19.1638 9.97589C19.1638 8.04992 18.6146 5.69112 18.1819 4.12911L18.1712 4.09073C17.9565 3.31536 17.8329 2.86923 17.4595 2.49856C17.0861 2.12789 16.6385 2.00746 15.8606 1.79813L15.822 1.78776C14.2608 1.36753 11.9069 0.835368 9.98671 0.83612C8.07467 0.836868 5.73203 1.36765 4.17651 1.78719C4.16358 1.79068 4.15075 1.79414 4.13801 1.79757C3.36081 2.00712 2.91366 2.12768 2.54054 2.49824Z" fill="#F7934B" stroke="#F7934B" stroke-width="0.327273"/>
<mask id="mask0_2926_30266" style="mask-type:alpha" maskUnits="userSpaceOnUse" x="1" y="0" width="18" height="19">
<path d="M1.97638 4.17144C2.20126 3.35992 2.31369 2.95416 2.65585 2.61435C2.99801 2.27453 3.40505 2.16475 4.21912 1.94518C5.77278 1.52614 8.09774 1.0005 9.98677 0.999757C11.884 0.999014 14.2201 1.52604 15.7795 1.94577C16.5944 2.1651 17.0018 2.27477 17.3442 2.61469C17.6867 2.95462 17.7992 3.36068 18.0242 4.1728C18.4564 5.73295 19.0002 8.07358 19.0002 9.97589C19.0002 11.8874 18.4512 14.2413 18.0179 15.8014C17.7953 16.6033 17.6839 17.0042 17.3463 17.3423C17.0087 17.6803 16.6081 17.7921 15.8068 18.0157C14.2507 18.4499 11.9051 18.9994 10.0001 18.9994C8.09511 18.9994 5.74946 18.4499 4.19342 18.0157C3.39212 17.7921 2.99146 17.6803 2.65386 17.3423C2.31626 17.0042 2.20492 16.6033 1.98223 15.8014C1.54899 14.2413 1 11.8874 1 9.97589C1 8.07302 1.54407 5.73159 1.97638 4.17144Z" fill="#D9D9D9"/>
</mask>
<g mask="url(#mask0_2926_30266)">
<path opacity="0.4" d="M13.8633 -1.48568L12.665 -3.50049L-4.3999 6.06402L-3.20163 8.07884L13.8633 -1.48568Z" fill="#F7FAFB"/>
<path opacity="0.4" d="M21.7823 -1.48568L20.584 -3.50049L-6.20035 11.5115L-5.00208 13.5263L21.7823 -1.48568Z" fill="#F7FAFB"/>
<path opacity="0.4" d="M26.2823 11.1146L25.084 9.09979L-1.70035 24.1118L-0.502079 26.1266L26.2823 11.1146Z" fill="#F7FAFB"/>
</g>
<path d="M11.9022 17.596L6.79883 14.6439L10.0112 4.73462L18.9302 9.1584L17.4255 16.0749L11.9022 17.596Z" fill="url(#paint0_linear_2926_30266)" fill-opacity="0.3" style="mix-blend-mode:color-burn"/>
<path d="M2.81518 5.0117C3.03442 4.20231 3.14404 3.79762 3.49014 3.45385C3.83625 3.11008 4.2422 3.00305 5.05411 2.789C6.42973 2.42634 8.38545 2.00063 9.98816 2C11.598 1.99937 13.5634 2.42626 14.9443 2.78958C15.757 3.00341 16.1634 3.11033 16.5098 3.45421C16.8561 3.79808 16.9658 4.20307 17.1852 5.01305C17.5594 6.39494 18 8.3645 18 9.97893C18 11.6021 17.5547 13.5842 17.1791 14.9671C16.9619 15.767 16.8533 16.1669 16.5118 16.5089C16.1702 16.8509 15.7706 16.9599 14.9713 17.178C13.5922 17.5543 11.6174 18 10 18C8.38259 18 6.4078 17.5543 5.02866 17.178C4.2294 16.9599 3.82977 16.8509 3.48823 16.5089C3.14668 16.1669 3.03808 15.767 2.82087 14.9671C2.44533 13.5842 2 11.6021 2 9.97893C2 8.36398 2.44084 6.39366 2.81518 5.0117Z" fill="#FB620C"/>
<path d="M1.71704 3.91118C1.94335 3.09932 2.0565 2.69339 2.39761 2.35462C2.73872 2.01586 3.14588 1.90537 3.96019 1.68441C5.56699 1.24841 8.0078 0.69096 9.98631 0.690186C13.2467 0.688911 17.7604 2.19453 17.7604 2.19453C17.7604 5.46047 2.23974 17.7561 2.23974 17.7561C2.23974 17.7561 0.69043 13.2413 0.69043 9.97532C0.69043 7.98245 1.2673 5.52456 1.71704 3.91118Z" fill="url(#paint1_linear_2926_30266)" fill-opacity="0.5"/>
<path fill-rule="evenodd" clip-rule="evenodd" d="M4.67383 9.13588C4.67383 7.42741 4.67383 6.57317 5.01159 5.92295C5.29621 5.37502 5.74298 4.92826 6.2909 4.64364C6.94112 4.30588 7.79536 4.30588 9.50383 4.30588H10.4966C12.2051 4.30588 13.0593 4.30588 13.7095 4.64364C14.2575 4.92826 14.7042 5.37502 14.9888 5.92295C15.3266 6.57317 15.3266 7.42741 15.3266 9.13588V9.86073C15.3266 11.5692 15.3266 12.4234 14.9888 13.0736C14.7042 13.6216 14.2575 14.0683 13.7095 14.353C13.156 14.6405 12.4545 14.6833 11.204 14.6896L10.4052 15.7921C10.2055 16.0676 9.79503 16.0676 9.59541 15.7921L8.79654 14.6896C7.54594 14.6833 6.84448 14.6405 6.2909 14.353C5.74298 14.0683 5.29621 13.6216 5.01159 13.0736C4.67383 12.4234 4.67383 11.5692 4.67383 9.86073V9.13588ZM9.47131 6.1082C9.6976 5.68636 10.3025 5.68636 10.5288 6.1082L11.3116 7.5676C11.3982 7.729 11.5538 7.84201 11.734 7.87448L13.3639 8.16804C13.835 8.2529 14.0219 8.82819 13.6907 9.17375L12.5446 10.3693C12.4179 10.5015 12.3585 10.6844 12.3833 10.8658L12.6078 12.5066C12.6726 12.9809 12.1833 13.3365 11.7523 13.1282L10.2611 12.4077C10.0962 12.328 9.90391 12.328 9.739 12.4077L8.24784 13.1282C7.81682 13.3365 7.32745 12.9809 7.39233 12.5066L7.6168 10.8658C7.64162 10.6843 7.58221 10.5015 7.45547 10.3693L6.30941 9.17375C5.97814 8.82819 6.16507 8.2529 6.63618 8.16804L8.26608 7.87448C8.44633 7.84201 8.60188 7.729 8.68845 7.5676L9.47131 6.1082ZM11.1135 10.4003C11.2881 10.5357 11.3198 10.787 11.1844 10.9616C10.9054 11.3212 10.4274 11.499 10.0063 11.499C9.59057 11.499 9.10376 11.33 8.81695 10.9624C8.68105 10.7883 8.71207 10.5369 8.88624 10.401C9.06041 10.2651 9.31176 10.2961 9.44766 10.4703C9.54529 10.5954 9.76867 10.699 10.0063 10.699C10.2384 10.699 10.4572 10.5937 10.5523 10.4712C10.6877 10.2966 10.939 10.2649 11.1135 10.4003Z" fill="#F7FAFB"/>
<path fill-rule="evenodd" clip-rule="evenodd" d="M13.1841 6.68014L12.8641 6.38132L13.2909 6.28215L13.5928 5.9729L13.6994 6.39135L14.0194 6.69017L13.5925 6.78934L13.2907 7.09859L13.1841 6.68014Z" fill="#FB620C"/>
</g>
<defs>
<linearGradient id="paint0_linear_2926_30266" x1="9.10027" y1="8.64988" x2="15.8502" y2="13.15" gradientUnits="userSpaceOnUse">
<stop stop-color="#FA0A0A"/>
<stop offset="1" stop-color="#FA560A" stop-opacity="0"/>
</linearGradient>
<linearGradient id="paint1_linear_2926_30266" x1="0.977238" y1="0.8406" x2="11.4999" y2="13.9886" gradientUnits="userSpaceOnUse">
<stop stop-color="white"/>
<stop offset="1" stop-color="white" stop-opacity="0"/>
</linearGradient>
<clipPath id="clip0_2926_30266">
<rect width="20" height="20" fill="white"/>
</clipPath>
</defs>
</svg>
