<svg width="18" height="20" viewBox="0 0 18 20" fill="none" xmlns="http://www.w3.org/2000/svg">
<g id="VIP 5">
<g id="&#231;&#188;&#150;&#231;&#187;&#132;-15">
<g id="&#231;&#188;&#150;&#231;&#187;&#132;-13">
<mask id="mask0_3276_6048" style="mask-type:alpha" maskUnits="userSpaceOnUse" x="0" y="0" width="18" height="20">
<g id="mask-2">
<path id="Vector" d="M9.29587 0.0769624L17.7041 4.78973C17.8872 4.89235 18 5.08199 18 5.28723V14.7128C18 14.918 17.8872 15.1076 17.7041 15.2103L9.29587 19.923C9.11278 20.0257 8.88722 20.0257 8.70413 19.923L0.295866 15.2103C0.112784 15.1076 0 14.918 0 14.7128V5.28723C0 5.08199 0.112784 4.89235 0.295866 4.78973L8.70413 0.0769624C8.88722 -0.0256541 9.11278 -0.0256541 9.29587 0.0769624Z" fill="white"/>
</g>
</mask>
<g mask="url(#mask0_3276_6048)">
<path id="&#229;&#164;&#154;&#232;&#190;&#185;&#229;&#189;&#162;" d="M9.29587 0.0769624L17.7041 4.78973C17.8872 4.89235 18 5.08199 18 5.28723V14.7128C18 14.918 17.8872 15.1076 17.7041 15.2103L9.29587 19.923C9.11278 20.0257 8.88722 20.0257 8.70413 19.923L0.295866 15.2103C0.112784 15.1076 0 14.918 0 14.7128V5.28723C0 5.08199 0.112784 4.89235 0.295866 4.78973L8.70413 0.0769624C8.88722 -0.0256541 9.11278 -0.0256541 9.29587 0.0769624Z" fill="#37D3E8"/>
<path id="&#229;&#164;&#154;&#232;&#190;&#185;&#229;&#189;&#162;_2" fill-rule="evenodd" clip-rule="evenodd" d="M9.29589 0.436032L17.3839 4.96929C17.567 5.0719 17.6797 5.26155 17.6797 5.46678V14.5333C17.6797 14.7385 17.567 14.9282 17.3839 15.0308L9.29589 19.564C9.11281 19.6667 8.88724 19.6667 8.70416 19.564L0.616179 15.0308C0.433096 14.9282 0.320312 14.7385 0.320312 14.5333V5.46678C0.320312 5.26155 0.433096 5.0719 0.616179 4.96929L8.70416 0.436032C8.88724 0.333416 9.11281 0.333416 9.29589 0.436032Z" fill="#37D3E8"/>
<g id="Group 1966">
<mask id="mask1_3276_6048" style="mask-type:alpha" maskUnits="userSpaceOnUse" x="0" y="0" width="18" height="20">
<path id="&#229;&#164;&#154;&#232;&#190;&#185;&#229;&#189;&#162;_3" fill-rule="evenodd" clip-rule="evenodd" d="M9.29589 0.435971L17.3839 4.96923C17.567 5.07184 17.6797 5.26149 17.6797 5.46672V14.5332C17.6797 14.7385 17.567 14.9281 17.3839 15.0307L9.29589 19.564C9.11281 19.6666 8.88724 19.6666 8.70416 19.564L0.616179 15.0307C0.433096 14.9281 0.320312 14.7385 0.320312 14.5332V5.46672C0.320312 5.26149 0.433096 5.07184 0.616179 4.96923L8.70416 0.435971C8.88724 0.333355 9.11281 0.333355 9.29589 0.435971Z" fill="#D6D6D6"/>
</mask>
<g mask="url(#mask1_3276_6048)">
<path id="&#231;&#159;&#169;&#229;&#189;&#162;" opacity="0.4" d="M13.6146 0.58442L12.2832 -1.6543L-1.87338 6.28036L-0.541981 8.51908L13.6146 0.58442Z" fill="white"/>
<path id="&#231;&#159;&#169;&#229;&#189;&#162;&#229;&#164;&#135;&#228;&#187;&#189;-6" opacity="0.4" d="M18.0677 4.44428L16.7363 2.20557L-2.22453 12.833L-0.893129 15.0717L18.0677 4.44428Z" fill="white"/>
<path id="&#231;&#159;&#169;&#229;&#189;&#162;&#229;&#164;&#135;&#228;&#187;&#189;-7" opacity="0.4" d="M22.8753 12.9175L21.5439 10.6788L2.58309 21.3062L3.91449 23.5449L22.8753 12.9175Z" fill="white"/>
</g>
</g>
</g>
</g>
<g id="&#231;&#188;&#150;&#231;&#187;&#132;-14">
<mask id="mask2_3276_6048" style="mask-type:alpha" maskUnits="userSpaceOnUse" x="1" y="1" width="16" height="18">
<g id="mask-4">
<path id="Vector_2" d="M9.29598 1.51306L16.4231 5.50776C16.6062 5.61038 16.719 5.80002 16.719 6.00525V13.9947C16.719 14.1999 16.6062 14.3895 16.4231 14.4922L9.29598 18.4869C9.11289 18.5895 8.88733 18.5895 8.70424 18.4869L1.57712 14.4922C1.39403 14.3895 1.28125 14.1999 1.28125 13.9947V6.00525C1.28125 5.80002 1.39403 5.61038 1.57712 5.50776L8.70424 1.51306C8.88733 1.41044 9.11289 1.41044 9.29598 1.51306Z" fill="white"/>
</g>
</mask>
<g mask="url(#mask2_3276_6048)">
<path id="Vector_3" fill-rule="evenodd" clip-rule="evenodd" d="M9.00062 1.57971C9.07724 1.57971 9.15386 1.59895 9.22252 1.63743L16.3496 5.63214C16.4183 5.67062 16.4738 5.72542 16.5121 5.78984C16.5504 5.85425 16.5715 5.92829 16.5715 6.00526V13.9947C16.5715 14.1486 16.487 14.2908 16.3496 14.3678L9.22252 18.3625C9.15386 18.401 9.07724 18.4202 9.00062 18.4202C8.924 18.4202 8.84737 18.401 8.77872 18.3625L1.65159 14.3678C1.58293 14.3293 1.52746 14.2745 1.48915 14.2101C1.45083 14.1457 1.42969 14.0716 1.42969 13.9947V6.00526C1.42969 5.85133 1.51428 5.7091 1.65159 5.63214L8.77872 1.63743C8.84737 1.59895 8.924 1.57971 9.00062 1.57971Z" fill="url(#paint0_linear_3276_6048)" stroke="white" stroke-width="1.68513"/>
<path id="&#229;&#189;&#162;&#231;&#138;&#182;&#231;&#187;&#147;&#229;&#144;&#136;" fill-rule="evenodd" clip-rule="evenodd" d="M5.41249 6.51733H12.6612L13.6228 8.59973L8.99986 14.4879L4.37695 8.59973L5.41249 6.51733Z" fill="#ACFAFF"/>
<path id="&#231;&#159;&#169;&#229;&#189;&#162;&#229;&#164;&#135;&#228;&#187;&#189;-9" fill-rule="evenodd" clip-rule="evenodd" d="M9.00096 14.4879L12.5034 17.9545L19.4395 13.516L12.6623 6.51734L9.00096 14.4879Z" fill="url(#paint1_linear_3276_6048)"/>
<path id="&#231;&#159;&#169;&#229;&#189;&#162;_2" fill-rule="evenodd" clip-rule="evenodd" d="M5.41249 6.51733L7.11372 8.59973H4.37695L5.41249 6.51733Z" fill="#5BEBFF"/>
<path id="&#231;&#159;&#169;&#229;&#189;&#162;&#229;&#164;&#135;&#228;&#187;&#189;-8" fill-rule="evenodd" clip-rule="evenodd" d="M12.6615 6.51733L10.8863 8.59973H13.623L12.6615 6.51733Z" fill="#5BEBFF"/>
<path id="&#231;&#159;&#169;&#229;&#189;&#162;_3" fill-rule="evenodd" clip-rule="evenodd" d="M8.99986 14.4879V8.59975H4.37695L8.99986 14.4879Z" fill="#DBF8FA"/>
<path id="&#231;&#159;&#169;&#229;&#189;&#162;_4" fill-rule="evenodd" clip-rule="evenodd" d="M8.99986 14.4879L7.11372 8.59975H4.37695L8.99986 14.4879Z" fill="#9EF3FF"/>
<path id="&#231;&#159;&#169;&#229;&#189;&#162;&#229;&#164;&#135;&#228;&#187;&#189;-9_2" fill-rule="evenodd" clip-rule="evenodd" d="M9.00014 14.4879L10.8863 8.59975H13.623L9.00014 14.4879Z" fill="#5BEBFF"/>
<path id="&#231;&#159;&#169;&#229;&#189;&#162;_5" fill-rule="evenodd" clip-rule="evenodd" d="M8.99986 14.4879L5.98074 8.59975H4.37695L8.99986 14.4879Z" fill="#ACFAFF"/>
<path id="&#230;&#152;&#159;&#229;&#189;&#162;" fill-rule="evenodd" clip-rule="evenodd" d="M11.8527 8.75689L11.4783 8.40979L11.9813 8.29096L12.3389 7.92743L12.4613 8.41581L12.8357 8.76291L12.3327 8.88174L11.9751 9.24527L11.8527 8.75689Z" fill="white"/>
<path id="&#231;&#159;&#169;&#229;&#189;&#162;_6" fill-rule="evenodd" clip-rule="evenodd" d="M8.96289 6.51733L10.886 8.59973H8.96289V6.51733Z" fill="#DBF8FA"/>
</g>
</g>
</g>
</g>
<defs>
<linearGradient id="paint0_linear_3276_6048" x1="9.00062" y1="1.57971" x2="9.00062" y2="18.4202" gradientUnits="userSpaceOnUse">
<stop stop-color="#25CFE6"/>
<stop offset="1" stop-color="#CAF6F4"/>
</linearGradient>
<linearGradient id="paint1_linear_3276_6048" x1="9.56979" y1="11.2496" x2="13.8663" y2="14.5246" gradientUnits="userSpaceOnUse">
<stop stop-color="#15939B"/>
<stop offset="1" stop-color="#1C7F85" stop-opacity="0"/>
</linearGradient>
</defs>
</svg>
