<svg width="20" height="20" viewBox="0 0 20 20" fill="none" xmlns="http://www.w3.org/2000/svg">
<g clip-path="url(#clip0_2926_30287)">
<path d="M2.54055 2.49828C2.16744 2.86884 2.04395 3.31464 1.82932 4.08946C1.82581 4.10214 1.82227 4.11492 1.8187 4.12779C1.38587 5.68984 0.836364 8.04954 0.836364 9.97614C0.836364 11.9114 1.39083 14.2837 1.82458 15.8457L1.83507 15.8834C2.04764 16.6492 2.16995 17.0897 2.53808 17.4583C2.90622 17.827 3.3465 17.9498 4.11169 18.1632L4.14943 18.1738C5.7073 18.6085 8.07127 19.1636 10.0001 19.1636C11.9289 19.1636 14.2929 18.6085 15.8507 18.1738L15.8885 18.1632C16.6537 17.9498 17.094 17.827 17.4621 17.4583C17.8302 17.0897 17.9525 16.6492 18.1651 15.8834L18.1756 15.8457C18.6094 14.2837 19.1638 11.9114 19.1638 9.97614C19.1638 8.05009 18.6146 5.6912 18.1819 4.12915L18.1712 4.09077C17.9565 3.3154 17.8329 2.86927 17.4595 2.4986C17.0861 2.12792 16.6385 2.00749 15.8606 1.79816L15.822 1.78778C14.2608 1.36755 11.9069 0.835368 9.98671 0.83612C8.07467 0.836868 5.73202 1.36766 4.1765 1.78722C4.16358 1.7907 4.15075 1.79416 4.138 1.7976C3.36081 2.00715 2.91366 2.12772 2.54055 2.49828Z" fill="#24D7EF" stroke="#24D7EF" stroke-width="0.327273"/>
<mask id="mask0_2926_30287" style="mask-type:alpha" maskUnits="userSpaceOnUse" x="1" y="0" width="18" height="19">
<path d="M1.9764 4.17149C2.20127 3.35996 2.3137 2.9542 2.65586 2.61438C2.99801 2.27456 3.40505 2.16478 4.21911 1.94521C5.77278 1.52616 8.09774 1.0005 9.98677 0.999757C11.884 0.999014 14.2201 1.52606 15.7795 1.9458C16.5944 2.16514 17.0018 2.27481 17.3442 2.61473C17.6867 2.95465 17.7992 3.36072 18.0242 4.17284C18.4564 5.73303 19.0002 8.07375 19.0002 9.97614C19.0002 11.8877 18.4512 14.2417 18.0179 15.8019C17.7953 16.6038 17.6839 17.0047 17.3463 17.3427C17.0087 17.6807 16.6081 17.7925 15.8068 18.0161C14.2507 18.4504 11.9051 18.9999 10.0001 18.9999C8.09511 18.9999 5.74946 18.4504 4.19341 18.0161C3.39211 17.7925 2.99146 17.6807 2.65387 17.3427C2.31627 17.0047 2.20493 16.6038 1.98225 15.8019C1.549 14.2418 1 11.8877 1 9.97614C1 8.0732 1.54408 5.73168 1.9764 4.17149Z" fill="#D9D9D9"/>
</mask>
<g mask="url(#mask0_2926_30287)">
<path opacity="0.4" d="M13.8633 -1.48562L12.665 -3.50049L-4.3999 6.06428L-3.20163 8.07915L13.8633 -1.48562Z" fill="#F7FAFB"/>
<path opacity="0.4" d="M21.7823 -1.48562L20.584 -3.50049L-6.20035 11.5119L-5.00208 13.5268L21.7823 -1.48562Z" fill="#F7FAFB"/>
<path opacity="0.4" d="M26.2823 11.115L25.084 9.10014L-1.70035 24.1126L-0.502079 26.1274L26.2823 11.115Z" fill="#F7FAFB"/>
</g>
<path d="M2.81518 5.0117C3.03442 4.20231 3.14404 3.79762 3.49014 3.45385C3.83625 3.11008 4.2422 3.00305 5.05411 2.789C6.42973 2.42634 8.38545 2.00063 9.98816 2C11.598 1.99937 13.5634 2.42626 14.9443 2.78958C15.757 3.00341 16.1634 3.11033 16.5098 3.45421C16.8561 3.79808 16.9658 4.20307 17.1852 5.01305C17.5594 6.39494 18 8.3645 18 9.97893C18 11.6021 17.5547 13.5842 17.1791 14.9671C16.9619 15.767 16.8533 16.1669 16.5118 16.5089C16.1702 16.8509 15.7706 16.9599 14.9713 17.178C13.5922 17.5543 11.6174 18 10 18C8.38259 18 6.4078 17.5543 5.02866 17.178C4.2294 16.9599 3.82977 16.8509 3.48823 16.5089C3.14668 16.1669 3.03808 15.767 2.82087 14.9671C2.44533 13.5842 2 11.6021 2 9.97893C2 8.36398 2.44084 6.39366 2.81518 5.0117Z" fill="#1DA2B4"/>
<path fill-rule="evenodd" clip-rule="evenodd" d="M14.6392 4.87329L14.3192 4.57446L14.746 4.47529L15.0479 4.16603L15.1544 4.58449L15.4744 4.88332L15.0476 4.98249L14.7457 5.29175L14.6392 4.87329Z" fill="#F7FAFB"/>
<path d="M10.0586 4.46919L18.8088 8.45292L17.4253 16.0754L11.8002 18.5505L4.35059 15.4241L4.99468 14.3871L5.09444 13.7556L10.6222 12.7819C10.6222 12.7819 10.6275 8.91337 10.6275 8.46476C10.6275 7.75422 9.89987 7.69369 9.89987 7.69369L10.0586 4.46919Z" fill="url(#paint0_linear_2926_30287)" fill-opacity="0.3" style="mix-blend-mode:color-burn"/>
<path d="M1.71704 3.91118C1.94335 3.09932 2.0565 2.69339 2.39761 2.35462C2.73872 2.01586 3.14588 1.90537 3.96019 1.68441C5.56699 1.24841 8.0078 0.69096 9.98631 0.690186C13.2467 0.688911 17.7604 2.19453 17.7604 2.19453C17.7604 5.46047 2.23974 17.7561 2.23974 17.7561C2.23974 17.7561 0.69043 13.2413 0.69043 9.97532C0.69043 7.98245 1.2673 5.52456 1.71704 3.91118Z" fill="url(#paint1_linear_2926_30287)" fill-opacity="0.5"/>
<path fill-rule="evenodd" clip-rule="evenodd" d="M15.8706 8.70454C16.0536 8.70454 16.2132 8.57778 16.2581 8.39683C16.3029 8.21589 16.2216 8.02698 16.0606 7.93828L10.3554 4.54322C10.2369 4.47795 9.93483 4.47817 9.81633 4.54336L4.10255 7.93842C3.94144 8.02704 3.85997 8.21596 3.90478 8.39697C3.94959 8.57798 4.10924 8.7048 4.29228 8.7048H5.89961V12.4456H5.77111C5.39645 12.4456 5.09274 12.7494 5.09274 13.124V13.6415L15.0711 13.6413V13.1237C15.0711 12.7491 14.7674 12.4454 14.3927 12.4454H14.264V8.70454H15.8706ZM7.99661 8.65794H6.95839V12.4456H7.99661V8.65794ZM11.1082 12.4454V8.60784C11.1082 8.085 10.5969 7.66989 10.074 7.66989C9.55452 7.66989 9.0608 8.07988 9.05544 8.59812V12.4456L11.1082 12.4454ZM13.2053 8.64482V12.4454H12.167V8.64482H13.2053ZM4.6034 14.344C4.28983 14.344 4.03563 14.6041 4.03563 14.9248C4.03563 15.2456 4.28983 15.5056 4.6034 15.5056L15.5604 15.5054C15.874 15.5054 16.1282 15.2453 16.1282 14.9246C16.1282 14.6038 15.874 14.3438 15.5604 14.3438L4.6034 14.344Z" fill="#F7FAFB"/>
</g>
<defs>
<linearGradient id="paint0_linear_2926_30287" x1="9.1002" y1="8.65006" x2="15.8503" y2="13.1501" gradientUnits="userSpaceOnUse">
<stop stop-color="#2489D2"/>
<stop offset="1" stop-color="#1F7DC1" stop-opacity="0"/>
</linearGradient>
<linearGradient id="paint1_linear_2926_30287" x1="0.977238" y1="0.8406" x2="11.4999" y2="13.9886" gradientUnits="userSpaceOnUse">
<stop stop-color="white"/>
<stop offset="1" stop-color="white" stop-opacity="0"/>
</linearGradient>
<clipPath id="clip0_2926_30287">
<rect width="20" height="20" fill="white"/>
</clipPath>
</defs>
</svg>
