<svg width="20" height="20" viewBox="0 0 20 20" fill="none" xmlns="http://www.w3.org/2000/svg">
<g id="Trophy">
<path id="Vector" d="M18.125 4.375H16.25V3.75C16.25 3.41848 16.1183 3.10054 15.8839 2.86612C15.6495 2.6317 15.3315 2.5 15 2.5H5C4.66848 2.5 4.35054 2.6317 4.11612 2.86612C3.8817 3.10054 3.75 3.41848 3.75 3.75V4.375H1.875C1.54348 4.375 1.22554 4.5067 0.991117 4.74112C0.756696 4.97554 0.625 5.29348 0.625 5.625V6.875C0.625 7.7038 0.95424 8.49866 1.54029 9.08471C1.83047 9.37489 2.17497 9.60508 2.55411 9.76212C2.93326 9.91917 3.33962 10 3.75 10H4.03516C4.40332 11.1667 5.10529 12.2 6.0543 12.9721C7.00331 13.7443 8.15777 14.2214 9.375 14.3445V16.25H7.5C7.33424 16.25 7.17527 16.3158 7.05806 16.4331C6.94085 16.5503 6.875 16.7092 6.875 16.875C6.875 17.0408 6.94085 17.1997 7.05806 17.3169C7.17527 17.4342 7.33424 17.5 7.5 17.5H12.5C12.6658 17.5 12.8247 17.4342 12.9419 17.3169C13.0592 17.1997 13.125 17.0408 13.125 16.875C13.125 16.7092 13.0592 16.5503 12.9419 16.4331C12.8247 16.3158 12.6658 16.25 12.5 16.25H10.625V14.3422C13.1203 14.0898 15.1906 12.3391 15.9438 10H16.25C17.0788 10 17.8737 9.67076 18.4597 9.08471C19.0458 8.49866 19.375 7.7038 19.375 6.875V5.625C19.375 5.29348 19.2433 4.97554 19.0089 4.74112C18.7745 4.5067 18.4565 4.375 18.125 4.375ZM3.75 8.75C3.25272 8.75 2.77581 8.55246 2.42417 8.20083C2.07254 7.84919 1.875 7.37228 1.875 6.875V5.625H3.75V8.125C3.75 8.33333 3.76016 8.54167 3.78047 8.75H3.75ZM15 8.05469C15 10.8297 12.7742 13.1047 10.0383 13.125H10C8.67392 13.125 7.40215 12.5982 6.46447 11.6605C5.52678 10.7229 5 9.45108 5 8.125V3.75H15V8.05469ZM18.125 6.875C18.125 7.37228 17.9275 7.84919 17.5758 8.20083C17.2242 8.55246 16.7473 8.75 16.25 8.75H16.2109C16.2366 8.51911 16.2496 8.287 16.25 8.05469V5.625H18.125V6.875Z" fill="currentColor"/>
</g>
</svg>
