<svg width="32" height="32" viewBox="0 0 32 32" fill="none" xmlns="http://www.w3.org/2000/svg">
<g id="i-switch account">
<path id="Vector" d="M14.3019 26.261H7.60596C7.49919 26.2625 7.39321 26.2425 7.29428 26.2023C7.19535 26.1621 7.10548 26.1025 7.02998 26.027C6.95447 25.9515 6.89486 25.8616 6.85467 25.7627C6.81448 25.6638 6.79452 25.5578 6.79597 25.451V6.8969C6.79597 6.68208 6.88131 6.47606 7.03321 6.32415C7.18511 6.17225 7.39114 6.08691 7.60596 6.08691H23.2657C23.4797 6.08971 23.6841 6.17595 23.8354 6.32725C23.9867 6.47855 24.0729 6.68295 24.0757 6.8969V11.0548C24.0757 11.2697 23.9904 11.4757 23.8385 11.6276C23.6866 11.7795 23.4805 11.8648 23.2657 11.8648C23.0509 11.8648 22.8449 11.7795 22.693 11.6276C22.5411 11.4757 22.4557 11.2697 22.4557 11.0548V7.70689H8.41595V24.6518H14.3019C14.5167 24.6518 14.7227 24.7372 14.8746 24.8891C15.0265 25.041 15.1118 25.247 15.1118 25.4618C15.1118 25.6766 15.0265 25.8827 14.8746 26.0346C14.7227 26.1865 14.5167 26.2718 14.3019 26.2718V26.261Z" fill="currentColor"/>
<path id="Vector_2" d="M19.3775 12.222H11.4936C11.2788 12.222 11.0727 12.1367 10.9208 11.9848C10.7689 11.8329 10.6836 11.6269 10.6836 11.412C10.6836 11.1972 10.7689 10.9912 10.9208 10.8393C11.0727 10.6874 11.2788 10.6021 11.4936 10.6021H19.3775C19.5923 10.6021 19.7983 10.6874 19.9502 10.8393C20.1021 10.9912 20.1874 11.1972 20.1874 11.412C20.1874 11.6269 20.1021 11.8329 19.9502 11.9848C19.7983 12.1367 19.5923 12.222 19.3775 12.222Z" fill="currentColor"/>
<path id="Vector_3" d="M16.8071 16.1312H11.4936C11.2788 16.1312 11.0727 16.0459 10.9208 15.894C10.7689 15.7421 10.6836 15.536 10.6836 15.3212C10.6836 15.1064 10.7689 14.9004 10.9208 14.7485C11.0727 14.5966 11.2788 14.5112 11.4936 14.5112H16.8071C17.0219 14.5112 17.2279 14.5966 17.3798 14.7485C17.5318 14.9004 17.6171 15.1064 17.6171 15.3212C17.6171 15.536 17.5318 15.7421 17.3798 15.894C17.2279 16.0459 17.0219 16.1312 16.8071 16.1312Z" fill="currentColor"/>
<path id="Vector_4" d="M27.4341 19.4687H16.8071C16.5922 19.4687 16.3862 19.3833 16.2343 19.2314C16.0824 19.0795 15.9971 18.8735 15.9971 18.6587C15.9971 18.4438 16.0824 18.2378 16.2343 18.0859C16.3862 17.934 16.5922 17.8487 16.8071 17.8487H25.4469L23.5246 15.8939C23.3815 15.7404 23.3036 15.5373 23.3073 15.3274C23.311 15.1176 23.396 14.9174 23.5444 14.769C23.6928 14.6206 23.893 14.5356 24.1029 14.5319C24.3127 14.5282 24.5158 14.6061 24.6693 14.7491L28.0065 18.0863C28.1196 18.1996 28.1966 18.3438 28.2278 18.5008C28.259 18.6579 28.243 18.8206 28.1818 18.9685C28.1205 19.1165 28.0168 19.2429 27.8837 19.3319C27.7507 19.4209 27.5942 19.4685 27.4341 19.4687Z" fill="currentColor"/>
<path id="Vector_5" d="M20.1552 26.4782C20.0485 26.4806 19.9425 26.4607 19.844 26.4198C19.7454 26.3789 19.6565 26.3178 19.5828 26.2406L16.2349 22.8926C16.1224 22.7805 16.0459 22.6374 16.0152 22.4816C15.9844 22.3258 16.0007 22.1643 16.0621 22.0178C16.1232 21.8697 16.2263 21.7428 16.3588 21.6526C16.4912 21.5624 16.6471 21.5129 16.8073 21.5103H27.4343C27.6491 21.5103 27.8552 21.5956 28.0071 21.7475C28.159 21.8994 28.2443 22.1054 28.2443 22.3202C28.2443 22.5351 28.159 22.7411 28.0071 22.893C27.8552 23.0449 27.6491 23.1302 27.4343 23.1302H18.7945L20.76 25.0958C20.9117 25.2477 20.9969 25.4535 20.9969 25.6682C20.9969 25.8828 20.9117 26.0887 20.76 26.2406C20.6815 26.3203 20.5871 26.3827 20.4829 26.4236C20.3787 26.4646 20.2671 26.4831 20.1552 26.4782Z" fill="currentColor"/>
</g>
</svg>
