<svg width="18" height="20" viewBox="0 0 18 20" fill="none" xmlns="http://www.w3.org/2000/svg">
<g id="VIP 6">
<g id="&#231;&#188;&#150;&#231;&#187;&#132;-15">
<g id="&#231;&#188;&#150;&#231;&#187;&#132;-13">
<mask id="mask0_2834_16158" style="mask-type:alpha" maskUnits="userSpaceOnUse" x="0" y="0" width="18" height="20">
<g id="mask-2">
<path id="Vector" d="M9.29587 0.0769624L17.7041 4.78973C17.8872 4.89235 18 5.08199 18 5.28723V14.7128C18 14.918 17.8872 15.1076 17.7041 15.2103L9.29587 19.923C9.11278 20.0257 8.88722 20.0257 8.70413 19.923L0.295866 15.2103C0.112784 15.1076 0 14.918 0 14.7128V5.28723C0 5.08199 0.112784 4.89235 0.295866 4.78973L8.70413 0.0769624C8.88722 -0.0256541 9.11278 -0.0256541 9.29587 0.0769624Z" fill="white"/>
</g>
</mask>
<g mask="url(#mask0_2834_16158)">
<path id="&#229;&#164;&#154;&#232;&#190;&#185;&#229;&#189;&#162;" d="M9.29587 0.0769624L17.7041 4.78973C17.8872 4.89235 18 5.08199 18 5.28723V14.7128C18 14.918 17.8872 15.1076 17.7041 15.2103L9.29587 19.923C9.11278 20.0257 8.88722 20.0257 8.70413 19.923L0.295866 15.2103C0.112784 15.1076 0 14.918 0 14.7128V5.28723C0 5.08199 0.112784 4.89235 0.295866 4.78973L8.70413 0.0769624C8.88722 -0.0256541 9.11278 -0.0256541 9.29587 0.0769624Z" fill="#B0B0B0"/>
<path id="&#229;&#164;&#154;&#232;&#190;&#185;&#229;&#189;&#162;_2" fill-rule="evenodd" clip-rule="evenodd" d="M9.29589 0.436093L17.3839 4.96935C17.567 5.07196 17.6797 5.26161 17.6797 5.46684V14.5333C17.6797 14.7386 17.567 14.9282 17.3839 15.0308L9.29589 19.5641C9.11281 19.6667 8.88724 19.6667 8.70416 19.5641L0.616179 15.0308C0.433096 14.9282 0.320312 14.7386 0.320312 14.5333V5.46684C0.320312 5.26161 0.433096 5.07196 0.616179 4.96935L8.70416 0.436093C8.88724 0.333477 9.11281 0.333477 9.29589 0.436093Z" fill="#B0B0B0"/>
<g id="Group 1966">
<mask id="mask1_2834_16158" style="mask-type:alpha" maskUnits="userSpaceOnUse" x="0" y="0" width="18" height="20">
<path id="&#229;&#164;&#154;&#232;&#190;&#185;&#229;&#189;&#162;_3" fill-rule="evenodd" clip-rule="evenodd" d="M9.29589 0.436093L17.3839 4.96935C17.567 5.07196 17.6797 5.26161 17.6797 5.46684V14.5333C17.6797 14.7386 17.567 14.9282 17.3839 15.0308L9.29589 19.5641C9.11281 19.6667 8.88724 19.6667 8.70416 19.5641L0.616179 15.0308C0.433096 14.9282 0.320312 14.7386 0.320312 14.5333V5.46684C0.320312 5.26161 0.433096 5.07196 0.616179 4.96935L8.70416 0.436093C8.88724 0.333477 9.11281 0.333477 9.29589 0.436093Z" fill="#D6D6D6"/>
</mask>
<g mask="url(#mask1_2834_16158)">
<path id="&#231;&#159;&#169;&#229;&#189;&#162;" opacity="0.4" d="M13.6146 0.584611L12.2832 -1.65411L-1.87338 6.28055L-0.541981 8.51927L13.6146 0.584611Z" fill="white"/>
<path id="&#231;&#159;&#169;&#229;&#189;&#162;&#229;&#164;&#135;&#228;&#187;&#189;-6" opacity="0.4" d="M18.0677 4.44435L16.7363 2.20564L-2.22453 12.8331L-0.893129 15.0718L18.0677 4.44435Z" fill="white"/>
<path id="&#231;&#159;&#169;&#229;&#189;&#162;&#229;&#164;&#135;&#228;&#187;&#189;-7" opacity="0.4" d="M22.8753 12.9175L21.5439 10.6788L2.58309 21.3062L3.91449 23.545L22.8753 12.9175Z" fill="white"/>
</g>
</g>
</g>
</g>
<g id="&#231;&#188;&#150;&#231;&#187;&#132;-14">
<mask id="mask2_2834_16158" style="mask-type:alpha" maskUnits="userSpaceOnUse" x="1" y="1" width="16" height="18">
<g id="mask-4">
<path id="Vector_2" d="M9.29598 1.513L16.4231 5.5077C16.6062 5.61032 16.719 5.79996 16.719 6.00519V13.9946C16.719 14.1998 16.6062 14.3895 16.4231 14.4921L9.29598 18.4868C9.11289 18.5894 8.88733 18.5894 8.70424 18.4868L1.57712 14.4921C1.39403 14.3895 1.28125 14.1998 1.28125 13.9946V6.00519C1.28125 5.79996 1.39403 5.61032 1.57712 5.5077L8.70424 1.513C8.88733 1.41038 9.11289 1.41038 9.29598 1.513Z" fill="white"/>
</g>
</mask>
<g mask="url(#mask2_2834_16158)">
<path id="Vector_3" fill-rule="evenodd" clip-rule="evenodd" d="M8.99964 1.57983C9.07626 1.57983 9.15288 1.59907 9.22154 1.63756L16.3487 5.63226C16.4173 5.67074 16.4728 5.72554 16.5111 5.78996C16.5494 5.85438 16.5706 5.92842 16.5706 6.00538V13.9948C16.5706 14.1487 16.486 14.2909 16.3487 14.3679L9.22154 18.3626C9.15288 18.4011 9.07626 18.4203 8.99964 18.4203C8.92302 18.4203 8.8464 18.4011 8.77774 18.3626L1.65061 14.3679C1.58195 14.3294 1.52648 14.2746 1.48817 14.2102C1.44986 14.1458 1.42871 14.0717 1.42871 13.9948V6.00538C1.42871 5.85145 1.5133 5.70922 1.65061 5.63226L8.77774 1.63756C8.8464 1.59907 8.92302 1.57983 8.99964 1.57983Z" fill="url(#paint0_linear_2834_16158)" stroke="white" stroke-width="1.68513"/>
<path id="&#229;&#189;&#162;&#231;&#138;&#182;&#231;&#187;&#147;&#229;&#144;&#136;" fill-rule="evenodd" clip-rule="evenodd" d="M5.41249 6.51733H12.6612L13.6228 8.59973L8.99986 14.4879L4.37695 8.59973L5.41249 6.51733Z" fill="#ECECEC"/>
<path id="&#231;&#159;&#169;&#229;&#189;&#162;&#229;&#164;&#135;&#228;&#187;&#189;-9" fill-rule="evenodd" clip-rule="evenodd" d="M8.99999 14.488L12.5025 17.9546L19.4385 13.5161L12.6613 6.5174L8.99999 14.488Z" fill="url(#paint1_linear_2834_16158)"/>
<path id="&#231;&#159;&#169;&#229;&#189;&#162;_2" fill-rule="evenodd" clip-rule="evenodd" d="M5.41249 6.51733L7.11372 8.59973H4.37695L5.41249 6.51733Z" fill="#C6C8CC"/>
<path id="&#231;&#159;&#169;&#229;&#189;&#162;&#229;&#164;&#135;&#228;&#187;&#189;-8" fill-rule="evenodd" clip-rule="evenodd" d="M12.6615 6.51733L10.8863 8.59973H13.623L12.6615 6.51733Z" fill="#C5C5C7"/>
<path id="&#231;&#159;&#169;&#229;&#189;&#162;_3" fill-rule="evenodd" clip-rule="evenodd" d="M8.99986 14.4878V8.59963H4.37695L8.99986 14.4878Z" fill="#F4F4F4"/>
<path id="&#231;&#159;&#169;&#229;&#189;&#162;_4" fill-rule="evenodd" clip-rule="evenodd" d="M8.99986 14.4878L7.11372 8.59963H4.37695L8.99986 14.4878Z" fill="#D5D7DC"/>
<path id="&#231;&#159;&#169;&#229;&#189;&#162;&#229;&#164;&#135;&#228;&#187;&#189;-9_2" fill-rule="evenodd" clip-rule="evenodd" d="M9.00014 14.4878L10.8863 8.59963H13.623L9.00014 14.4878Z" fill="#C5C5C7"/>
<path id="&#231;&#159;&#169;&#229;&#189;&#162;_5" fill-rule="evenodd" clip-rule="evenodd" d="M8.99986 14.4878L5.98074 8.59963H4.37695L8.99986 14.4878Z" fill="#E6E6E6"/>
<path id="&#230;&#152;&#159;&#229;&#189;&#162;" fill-rule="evenodd" clip-rule="evenodd" d="M11.8527 8.75695L11.4783 8.40985L11.9813 8.29103L12.3389 7.92749L12.4613 8.41587L12.8357 8.76297L12.3327 8.8818L11.9751 9.24533L11.8527 8.75695Z" fill="white"/>
<path id="&#231;&#159;&#169;&#229;&#189;&#162;_6" fill-rule="evenodd" clip-rule="evenodd" d="M8.96289 6.51733L10.886 8.59973H8.96289V6.51733Z" fill="#F4F4F4"/>
</g>
</g>
</g>
</g>
<defs>
<linearGradient id="paint0_linear_2834_16158" x1="8.99964" y1="1.57983" x2="8.99964" y2="18.4203" gradientUnits="userSpaceOnUse">
<stop stop-color="#8B8B8B"/>
<stop offset="1" stop-color="#C7C7C7"/>
</linearGradient>
<linearGradient id="paint1_linear_2834_16158" x1="9.56882" y1="11.2496" x2="13.8654" y2="14.5247" gradientUnits="userSpaceOnUse">
<stop stop-color="#575757"/>
<stop offset="1" stop-color="#5E5E5E" stop-opacity="0"/>
</linearGradient>
</defs>
</svg>
