<svg width="20" height="20" viewBox="0 0 20 20" fill="none" xmlns="http://www.w3.org/2000/svg">
<circle cx="10" cy="10" r="10" fill="#03AAC7"/>
<path fill-rule="evenodd" clip-rule="evenodd" d="M7.691 11.8253H6.44434C6.52256 12.852 6.85011 13.6562 7.427 14.238C8.00389 14.8198 8.78122 15.1595 9.759 15.2573V16.46H10.5657V15.2573C11.035 15.2182 11.4652 15.1204 11.8563 14.964C12.2474 14.8076 12.5848 14.5949 12.8683 14.326C13.1519 14.0571 13.3743 13.7369 13.5357 13.3653C13.697 12.9938 13.7777 12.5684 13.7777 12.0893C13.7777 11.6396 13.6921 11.2533 13.521 10.9307C13.3499 10.608 13.1421 10.3391 12.8977 10.124C12.6532 9.90888 12.399 9.74022 12.135 9.61799C11.871 9.49577 11.6412 9.41022 11.4457 9.36133L10.5657 9.12666V5.51866C11.4652 5.68488 12.0128 6.25199 12.2083 7.21999H13.455C13.2594 6.35955 12.927 5.68488 12.4577 5.19599C11.9883 4.70711 11.3577 4.41377 10.5657 4.31599V3.33333H9.759V4.30133C9.33856 4.33066 8.945 4.42355 8.57834 4.57999C8.21167 4.73644 7.89389 4.94911 7.625 5.21799C7.35611 5.48688 7.14345 5.80466 6.987 6.17133C6.83056 6.53799 6.75234 6.94133 6.75234 7.38133C6.75234 7.81155 6.811 8.17822 6.92834 8.48133C7.04567 8.78444 7.229 9.04111 7.47834 9.25133C7.72767 9.46155 8.04056 9.64244 8.417 9.79399C8.79345 9.94555 9.24078 10.0849 9.759 10.212V14.0987C9.17234 14.0009 8.68589 13.7613 8.29967 13.38C7.91345 12.9987 7.71056 12.4804 7.691 11.8253ZM10.5657 14.0987V10.4173C10.8297 10.4956 11.079 10.5811 11.3137 10.674C11.5483 10.7669 11.7488 10.8818 11.915 11.0187C12.0812 11.1556 12.2132 11.3193 12.311 11.51C12.4088 11.7007 12.4577 11.9378 12.4577 12.2213C12.4577 12.5342 12.4112 12.8056 12.3183 13.0353C12.2254 13.2651 12.0934 13.4558 11.9223 13.6073C11.7512 13.7589 11.5508 13.8738 11.321 13.952C11.0912 14.0302 10.8394 14.0791 10.5657 14.0987ZM9.759 8.90666V5.47466C9.28967 5.52355 8.89122 5.69222 8.56367 5.98066C8.23611 6.26911 8.07234 6.69199 8.07234 7.24933C8.07234 7.50355 8.11389 7.72111 8.197 7.902C8.28011 8.08288 8.39745 8.23444 8.549 8.35666C8.70056 8.47888 8.879 8.58399 9.08434 8.67199C9.28967 8.75999 9.51456 8.83822 9.759 8.90666Z" fill="white"/>
</svg>
