<svg width="20" height="20" viewBox="0 0 20 20" fill="none" xmlns="http://www.w3.org/2000/svg">
<g id="CodeBlock">
<path id="Vector" d="M4.5583 7.94217L2.0583 5.44217C2.00019 5.38412 1.95409 5.31519 1.92264 5.23932C1.89119 5.16345 1.875 5.08212 1.875 4.99998C1.875 4.91785 1.89119 4.83652 1.92264 4.76064C1.95409 4.68477 2.00019 4.61584 2.0583 4.55779L4.5583 2.05779C4.67558 1.94052 4.83464 1.87463 5.00049 1.87463C5.16634 1.87463 5.3254 1.94052 5.44268 2.05779C5.55995 2.17507 5.62584 2.33413 5.62584 2.49998C5.62584 2.66583 5.55995 2.82489 5.44268 2.94217L3.38409 4.99998L5.44268 7.05779C5.55995 7.17507 5.62584 7.33413 5.62584 7.49998C5.62584 7.66583 5.55995 7.82489 5.44268 7.94217C5.3254 8.05944 5.16634 8.12533 5.00049 8.12533C4.83464 8.12533 4.67558 8.05944 4.5583 7.94217ZM7.6833 7.94217C7.74135 8.00028 7.81028 8.04638 7.88615 8.07783C7.96203 8.10928 8.04336 8.12547 8.12549 8.12547C8.20763 8.12547 8.28896 8.10928 8.36483 8.07783C8.4407 8.04638 8.50963 8.00028 8.56768 7.94217L11.0677 5.44217C11.1258 5.38412 11.1719 5.31519 11.2033 5.23932C11.2348 5.16345 11.251 5.08212 11.251 4.99998C11.251 4.91785 11.2348 4.83652 11.2033 4.76064C11.1719 4.68477 11.1258 4.61584 11.0677 4.55779L8.56768 2.05779C8.4504 1.94052 8.29134 1.87463 8.12549 1.87463C7.95964 1.87463 7.80058 1.94052 7.6833 2.05779C7.56603 2.17507 7.50014 2.33413 7.50014 2.49998C7.50014 2.66583 7.56603 2.82489 7.6833 2.94217L9.7419 4.99998L7.6833 7.05779C7.62519 7.11584 7.57909 7.18477 7.54764 7.26064C7.51619 7.33652 7.5 7.41785 7.5 7.49998C7.5 7.58212 7.51619 7.66345 7.54764 7.73932C7.57909 7.81519 7.62519 7.88412 7.6833 7.94217ZM15.6255 3.12498H13.7505C13.5847 3.12498 13.4258 3.19083 13.3085 3.30804C13.1913 3.42525 13.1255 3.58422 13.1255 3.74998C13.1255 3.91574 13.1913 4.07471 13.3085 4.19192C13.4258 4.30913 13.5847 4.37498 13.7505 4.37498H15.6255V15.625H4.37549V10.625C4.37549 10.4592 4.30964 10.3003 4.19243 10.183C4.07522 10.0658 3.91625 9.99998 3.75049 9.99998C3.58473 9.99998 3.42576 10.0658 3.30855 10.183C3.19134 10.3003 3.12549 10.4592 3.12549 10.625V15.625C3.12549 15.9565 3.25719 16.2744 3.49161 16.5089C3.72603 16.7433 4.04397 16.875 4.37549 16.875H15.6255C15.957 16.875 16.275 16.7433 16.5094 16.5089C16.7438 16.2744 16.8755 15.9565 16.8755 15.625V4.37498C16.8755 4.04346 16.7438 3.72552 16.5094 3.4911C16.275 3.25668 15.957 3.12498 15.6255 3.12498Z" fill="currentColor"/>
</g>
</svg>
