<svg xmlns="http://www.w3.org/2000/svg" width="21" height="20" fill="none"><path fill="currentColor" d="M7.461 13.625a.624.624 0 0 0 .876-.125 4.062 4.062 0 0 1 6.5 0 .625.625 0 0 0 1-.75 5.302 5.302 0 0 0-2.14-1.694 3.126 3.126 0 1 0-4.215 0c-.85.367-1.59.951-2.145 1.694a.625.625 0 0 0 .124.875Zm2.25-4.875a1.875 1.875 0 1 1 3.751 0 1.875 1.875 0 0 1-3.75 0Zm7.5-6.875H5.962a1.25 1.25 0 0 0-1.25 1.25V5h-1.25a.625.625 0 0 0 0 1.25h1.25v3.125h-1.25a.625.625 0 0 0 0 1.25h1.25v3.125h-1.25a.625.625 0 1 0 0 1.25h1.25v1.875a1.25 1.25 0 0 0 1.25 1.25h11.25a1.25 1.25 0 0 0 1.25-1.25V3.125a1.25 1.25 0 0 0-1.25-1.25Zm0 15H5.962V3.125h11.25v13.75Z"/></svg>