<svg width="20" height="20" viewBox="0 0 20 20" fill="none" xmlns="http://www.w3.org/2000/svg">
<g clip-path="url(#clip0_2926_30237)">
<path d="M2.54055 2.49852C2.16744 2.86908 2.04395 3.31488 1.82932 4.0897C1.82581 4.10239 1.82227 4.11517 1.8187 4.12803C1.38587 5.69008 0.836364 8.04978 0.836364 9.97638C0.836364 11.9116 1.39083 14.284 1.82458 15.8459L1.83507 15.8837C2.04764 16.6494 2.16995 17.09 2.53808 17.4586C2.90622 17.8272 3.3465 17.95 4.11169 18.1635L4.14943 18.174C5.7073 18.6087 8.07127 19.1638 10.0001 19.1638C11.9289 19.1638 14.2929 18.6087 15.8507 18.174L15.8885 18.1635C16.6537 17.95 17.094 17.8272 17.4621 17.4586C17.8302 17.09 17.9525 16.6494 18.1651 15.8837L18.1756 15.8459C18.6094 14.284 19.1638 11.9116 19.1638 9.97638C19.1638 8.05034 18.6146 5.69145 18.1819 4.1294L18.1712 4.09101C17.9565 3.31564 17.8329 2.86951 17.4595 2.49884C17.0861 2.12817 16.6385 2.00773 15.8606 1.7984L15.822 1.78803C14.2608 1.36779 11.9069 0.835612 9.98671 0.836364C8.07467 0.837112 5.73202 1.36791 4.1765 1.78746C4.16358 1.79095 4.15074 1.79441 4.138 1.79784C3.36081 2.0074 2.91366 2.12796 2.54055 2.49852Z" fill="#7F5EFF" stroke="#7F5EFF" stroke-width="0.327273"/>
<mask id="mask0_2926_30237" style="mask-type:alpha" maskUnits="userSpaceOnUse" x="1" y="1" width="18" height="19">
<path d="M1.9764 4.17173C2.20127 3.36021 2.3137 2.95444 2.65586 2.61463C2.99801 2.27481 3.40505 2.16502 4.21911 1.94545C5.77278 1.5264 8.09774 1.00074 9.98677 1C11.884 0.999259 14.2201 1.5263 15.7795 1.94604C16.5944 2.16538 17.0018 2.27505 17.3442 2.61497C17.6867 2.9549 17.7992 3.36096 18.0242 4.17309C18.4564 5.73328 19.0002 8.07399 19.0002 9.97638C19.0002 11.8879 18.4512 14.242 18.0179 15.8021C17.7953 16.604 17.6839 17.0049 17.3463 17.343C17.0087 17.681 16.6081 17.7928 15.8068 18.0164C14.2507 18.4506 11.9051 19.0002 10.0001 19.0002C8.09511 19.0002 5.74946 18.4506 4.19341 18.0164C3.39211 17.7928 2.99146 17.681 2.65387 17.343C2.31627 17.0049 2.20493 16.604 1.98225 15.8021C1.549 14.242 1 11.8879 1 9.97638C1 8.07344 1.54408 5.73192 1.9764 4.17173Z" fill="#D9D9D9"/>
</mask>
<g mask="url(#mask0_2926_30237)">
<path opacity="0.4" d="M13.8633 -1.48513L12.665 -3.5L-4.3999 6.06477L-3.20163 8.07964L13.8633 -1.48513Z" fill="#F7FAFB"/>
<path opacity="0.4" d="M21.7823 -1.48513L20.584 -3.5L-6.20035 11.5124L-5.00208 13.5273L21.7823 -1.48513Z" fill="#F7FAFB"/>
<path opacity="0.4" d="M26.2823 11.1153L25.084 9.10039L-1.70035 24.1128L-0.502079 26.1277L26.2823 11.1153Z" fill="#F7FAFB"/>
</g>
<path d="M2.8824 5.07896C3.10115 4.2697 3.21052 3.86506 3.55699 3.52093C3.90345 3.17679 4.30936 3.07001 5.12117 2.85644C6.48209 2.49842 8.40852 2.08054 9.98844 2.07993C11.5754 2.07931 13.5114 2.49833 14.8776 2.85702C15.6902 3.07037 16.0965 3.17705 16.4432 3.52129C16.79 3.86553 16.8994 4.27046 17.1183 5.08032C17.4878 6.4475 17.9202 8.38763 17.9202 9.97914C17.9202 11.5794 17.483 13.532 17.1122 14.9004C16.8955 15.7001 16.7871 16.0999 16.4452 16.4422C16.1033 16.7846 15.7038 16.8934 14.9047 17.111C13.5401 17.4825 11.5947 17.9201 10.0002 17.9201C8.4056 17.9201 6.46017 17.4825 5.09562 17.111C4.29653 16.8934 3.89698 16.7846 3.55508 16.4422C3.21317 16.0999 3.10481 15.7001 2.8881 14.9004C2.51729 13.532 2.08008 11.5794 2.08008 9.97914C2.08008 8.3871 2.51283 6.44622 2.8824 5.07896Z" fill="#5922CB"/>
<path fill-rule="evenodd" clip-rule="evenodd" d="M15.064 5.84729L14.744 5.54846L15.1708 5.44929L15.4727 5.14003L15.5792 5.55849L15.8992 5.85732L15.4724 5.95649L15.1705 6.26575L15.064 5.84729Z" fill="#F7FAFB"/>
<path d="M12.817 17.7561L5.88379 15.2743L8.62847 12.6634L8.36012 10.1046L8.0822 9.35705L5.88379 7.9214L7.5803 4.82389L9.81126 4.00488L11.975 4.67695L18.2998 8.25139L17.1897 15.0379L16.323 16.3773L12.817 17.7561Z" fill="url(#paint0_linear_2926_30237)" fill-opacity="0.5" style="mix-blend-mode:color-burn"/>
<path d="M1.71704 3.91118C1.94335 3.09932 2.0565 2.69339 2.39761 2.35462C2.73872 2.01586 3.14588 1.90537 3.96019 1.68441C5.56699 1.24841 8.0078 0.69096 9.98631 0.690186C13.2467 0.688911 17.7604 2.19453 17.7604 2.19453C17.7604 5.46047 2.23974 17.7561 2.23974 17.7561C2.23974 17.7561 0.69043 13.2413 0.69043 9.97532C0.69043 7.98245 1.2673 5.52456 1.71704 3.91118Z" fill="url(#paint1_linear_2926_30237)" fill-opacity="0.5"/>
<path fill-rule="evenodd" clip-rule="evenodd" d="M9.89785 3.92318L9.85451 3.92055L8.90314 4.33457L9.49571 4.43848C10.4771 4.61057 11.2725 4.97048 11.8742 5.50231C12.7142 6.24441 13.1486 7.3046 13.1486 8.67773L13.1486 8.71917C13.4471 8.74803 13.7356 8.8113 14.01 8.90498C14.0107 8.65659 14.0111 8.40032 14.0111 8.13868C14.0111 7.2809 13.8405 6.53633 13.4928 5.91659C13.1445 5.2956 12.6239 4.80991 11.9408 4.46314L11.9384 4.46197C11.3006 4.14994 10.6066 3.9663 9.89785 3.92318ZM12.5054 8.71085C10.526 8.85022 8.9635 10.5001 8.9635 12.515C8.9635 13.7625 9.56253 14.8701 10.4887 15.5659H6.40502C6.04606 15.5659 5.75507 15.2749 5.75507 14.916C5.75507 14.557 6.04606 14.266 6.40502 14.266H6.81582C6.8711 13.8247 7.04332 13.1118 7.57887 12.7937C8.33745 12.3432 8.35339 11.0597 8.3617 10.3911L8.3617 10.3911L8.3617 10.391L8.36171 10.3909C8.36221 10.3503 8.36269 10.312 8.3633 10.2762L8.36671 10.0883L8.48423 10.0462C8.81971 9.92598 9.11383 9.71466 9.33342 9.43515C9.67477 8.99703 9.77444 8.45367 9.78212 7.99812C9.78978 7.54432 9.70556 7.19827 9.70033 7.17762C9.68235 7.10571 9.63655 7.0439 9.57299 7.00576C9.50944 6.96763 9.433 6.95639 9.36109 6.97437C9.32545 6.9832 9.29189 6.99899 9.26235 7.02081C9.2328 7.04263 9.20785 7.07006 9.18892 7.10153C9.16999 7.133 9.15745 7.1679 9.15202 7.20423C9.14659 7.24055 9.14838 7.27759 9.15727 7.31322C9.16106 7.32841 9.22305 7.59837 9.22328 7.94586C9.22349 8.28914 9.16354 8.74167 8.89198 9.0904C8.58648 9.4822 8.07028 9.65578 7.41464 9.65578C7.35917 9.65578 7.30494 9.67222 7.25934 9.70279L5.43616 10.9209L4.41309 9.89575L4.63294 9.54479L4.73215 9.54402C4.76889 9.54374 4.80521 9.53621 4.83903 9.52186C4.87285 9.50752 4.90351 9.48664 4.92926 9.46043C4.955 9.43422 4.97532 9.40318 4.98905 9.36911C5.00278 9.33503 5.00965 9.29843 5.00927 9.26169C5.00888 9.22051 4.99951 9.1799 4.98181 9.14271L4.93928 9.05331L7.57887 4.82094L7.67208 4.81534C8.0831 4.79067 9.02414 4.77541 9.96537 5.0593C10.4742 5.21198 10.9905 5.45497 11.4219 5.83596C12.1494 6.47864 12.5061 7.41619 12.5061 8.59095C12.5061 8.62864 12.5059 8.66873 12.5054 8.71085ZM6.71394 7.58077C6.66942 7.44032 6.69244 7.28111 6.78978 7.15633L6.94474 6.95721C7.02005 6.86107 7.13042 6.79874 7.25164 6.7839C7.27014 6.78163 7.28868 6.7805 7.30713 6.78048C7.40979 6.78025 7.5102 6.81431 7.59195 6.87812C7.68829 6.95371 7.75079 7.06437 7.76579 7.1859C7.78078 7.30743 7.74706 7.42996 7.67199 7.5267L7.51609 7.72678C7.44062 7.82285 7.33012 7.88506 7.20884 7.89975C7.08756 7.91444 6.9654 7.88042 6.86917 7.80515C6.79329 7.74539 6.74103 7.66657 6.71394 7.58077ZM15.869 12.5152C15.869 14.2227 14.4848 15.607 12.7773 15.607C11.0697 15.607 9.68548 14.2227 9.68548 12.5152C9.68548 10.8076 11.0697 9.42341 12.7773 9.42341C14.4848 9.42341 15.869 10.8076 15.869 12.5152ZM13.082 10.4846C13.082 10.3164 12.9456 10.1801 12.7774 10.1801C12.6092 10.1801 12.4728 10.3164 12.4728 10.4846V10.5863H12.4728C11.8346 10.5863 11.2544 11.0536 11.2544 11.7031C11.2544 12.3527 11.8346 12.82 12.4728 12.82H12.4728V13.8175C12.2609 13.7974 12.079 13.7547 11.8983 13.6644C11.7478 13.5891 11.5648 13.6501 11.4896 13.8006C11.4144 13.951 11.4754 14.134 11.6258 14.2092C11.9069 14.3498 12.1888 14.4064 12.4728 14.4292V14.5459C12.4728 14.7141 12.6092 14.8505 12.7774 14.8505C12.9456 14.8505 13.082 14.7141 13.082 14.5459V14.4445C13.7202 14.4444 14.3003 13.9771 14.3003 13.3276C14.3003 12.6781 13.7202 12.2108 13.082 12.2108V11.2133C13.2938 11.2334 13.4757 11.276 13.6564 11.3664C13.8069 11.4416 13.9899 11.3806 14.0651 11.2302C14.1403 11.0797 14.0793 10.8967 13.9289 10.8215C13.6478 10.681 13.366 10.6244 13.082 10.6016V10.4846ZM12.4728 11.1955H12.4728C12.1016 11.1955 11.8636 11.4555 11.8636 11.7031C11.8636 11.9508 12.1016 12.2108 12.4728 12.2108H12.4728V11.1955ZM13.6911 13.3276C13.6911 13.08 13.4531 12.82 13.082 12.82V13.8353C13.4531 13.8352 13.6911 13.5752 13.6911 13.3276Z" fill="#F7FAFB"/>
</g>
<defs>
<linearGradient id="paint0_linear_2926_30237" x1="9.54267" y1="8.40578" x2="15.3932" y2="12.3062" gradientUnits="userSpaceOnUse">
<stop stop-color="#461BAE"/>
<stop offset="1" stop-color="#461BAE" stop-opacity="0"/>
</linearGradient>
<linearGradient id="paint1_linear_2926_30237" x1="0.977238" y1="0.8406" x2="11.4999" y2="13.9886" gradientUnits="userSpaceOnUse">
<stop stop-color="white"/>
<stop offset="1" stop-color="white" stop-opacity="0"/>
</linearGradient>
<clipPath id="clip0_2926_30237">
<rect width="20" height="20" fill="white"/>
</clipPath>
</defs>
</svg>
