<svg width="20" height="20" viewBox="0 0 20 20" fill="none" xmlns="http://www.w3.org/2000/svg">
<path d="M7.15032 12.25C6.04275 11.2227 5.34961 9.75482 5.34961 8.12502C5.34961 5.01841 7.86802 2.5 10.9746 2.5C14.0812 2.5 16.5997 5.01841 16.5997 8.12502C16.5997 10.5742 15.0344 12.6578 12.8496 13.43" stroke="var(--color-primary-text)" stroke-width="1.25"/>
<path d="M3.09961 14.5H4.96283C5.10848 14.5 5.24096 14.4157 5.3026 14.2837L5.64634 13.5478C6.01618 12.756 6.81103 12.25 7.68493 12.25H11.7113C12.0828 12.25 12.3842 12.5505 12.3854 12.9219L12.3905 14.4927C12.3905 14.4967 12.3873 14.5 12.3832 14.5V14.5M10.0842 14.5H12.3832M3.09961 17.5H11.4612C12.5282 17.5 13.5611 17.124 14.3784 16.4381L17.7462 13.6114C18.1658 13.2592 18.2672 12.6543 17.9854 12.1845V12.1845C17.6454 11.6179 16.8898 11.4699 16.3612 11.8664L12.855 14.4965C12.852 14.4988 12.8483 14.5 12.8445 14.5H12.3832" stroke="var(--color-primary-text)" stroke-width="1.12501" stroke-linecap="round"/>
<path d="M10.4254 8.09277L10.9421 7.57614L11.4587 8.09277L10.9421 8.60941L10.4254 8.09277Z" stroke="var(--color-primary-text)" stroke-width="1.87501"/>
</svg>
