<svg xmlns="http://www.w3.org/2000/svg" viewBox="0 0 24 24" fill="none">
  <path
    d="M20.5567 21.7949H3.07422C2.87531 21.7949 2.68451 21.7159 2.54385 21.5753C2.4032 21.4346 2.32422 21.2438 2.32422 21.0449V16.8749C2.32404 16.7648 2.34814 16.6559 2.39481 16.5561C2.44147 16.4562 2.50955 16.3679 2.59421 16.2974L8.38419 11.3924C8.52106 11.2722 8.69704 11.2059 8.87922 11.2059C9.0614 11.2059 9.23733 11.2722 9.3742 11.3924C10.6642 12.5699 12.1342 13.8674 12.7942 14.3924C13.8592 13.5599 17.1442 10.7249 20.0617 8.14492C20.17 8.04979 20.3034 7.98789 20.446 7.9666C20.5885 7.94531 20.7341 7.96555 20.8655 8.0249C20.9968 8.08424 21.1083 8.18018 21.1866 8.30122C21.2648 8.42227 21.3066 8.56329 21.3067 8.70742V21.03C21.3087 21.1297 21.2908 21.2288 21.254 21.3215C21.2172 21.4143 21.1623 21.4987 21.0924 21.57C21.0226 21.6412 20.9392 21.6978 20.8472 21.7365C20.7552 21.7751 20.6565 21.7949 20.5567 21.7949ZM3.82422 20.2949H19.8067V10.3874C13.3567 16.0499 13.1317 16.0499 12.8017 16.0499C12.4717 16.0499 12.2392 16.0499 8.84919 12.9674L3.82422 17.2199V20.2949Z"
    fill="var(--color-primary-text)" />
  <path fill-rule="evenodd" clip-rule="evenodd"
    d="M18.6775 6.75858C18.7774 6.80656 18.8866 6.83182 18.9974 6.83256L19.1249 6.81756C19.254 6.79605 19.3753 6.74111 19.4766 6.65822C19.5779 6.57533 19.6558 6.46737 19.7024 6.34506L20.6474 3.84006C20.6941 3.71672 20.7073 3.58327 20.6859 3.45316C20.6645 3.32305 20.6092 3.20086 20.5256 3.09894C20.4419 2.99702 20.3328 2.91898 20.2094 2.87265C20.0859 2.82631 19.9525 2.81336 19.8224 2.83506L17.1824 3.27005C17.0527 3.29159 16.9309 3.34687 16.8292 3.43034C16.7276 3.51381 16.6497 3.62256 16.6033 3.74565C16.557 3.86874 16.5438 4.00183 16.5651 4.13161C16.5865 4.26139 16.6416 4.38328 16.7249 4.48505L17.1281 4.97746C15.0574 6.72967 13.0958 8.35746 12.3152 8.94001C11.6702 8.43001 10.1927 7.12501 8.8952 5.94001C8.75833 5.81977 8.5824 5.75347 8.40022 5.75347C8.21804 5.75347 8.0421 5.81977 7.90524 5.94001L2.11521 10.845C1.99629 10.9436 1.91071 11.0764 1.87012 11.2254C1.82953 11.3744 1.83592 11.5323 1.88843 11.6776C1.94095 11.8228 2.037 11.9483 2.1635 12.0369C2.29 12.1254 2.44079 12.1728 2.59522 12.1725C2.78382 12.1881 2.97137 12.1319 3.12023 12.015L8.37024 7.51502C11.7527 10.5975 11.9927 10.5975 12.3227 10.5975C12.6215 10.5975 12.8466 10.5975 18.0821 6.1425L18.4199 6.55506C18.4897 6.6411 18.5777 6.7106 18.6775 6.75858Z"
    fill="var(--color-primary)" />
</svg>