<svg width="32" height="32" viewBox="0 0 32 32" fill="none" xmlns="http://www.w3.org/2000/svg">
  <path d="M19 23L28 23" stroke="var(--color-primary-text)" stroke-width="2" stroke-linecap="round"
    stroke-linejoin="round" />
  <path d="M9 23H13" stroke="var(--color-primary-text)" stroke-width="2" stroke-linecap="round"
    stroke-linejoin="round" />
  <path d="M3 9H12" stroke="var(--color-primary-text)" stroke-width="2" stroke-linecap="round"
    stroke-linejoin="round" />
  <path d="M18 9L22 9" stroke="var(--color-primary-text)" stroke-width="2" stroke-linecap="round"
    stroke-linejoin="round" />
  <path
    d="M5.75 25.5C7.26878 25.5 8.5 24.2688 8.5 22.75C8.5 21.2312 7.26878 20 5.75 20C4.23122 20 3 21.2312 3 22.75C3 24.2688 4.23122 25.5 5.75 25.5Z"
    stroke="var(--color-primary)" stroke-width="2" stroke-linecap="round" stroke-linejoin="round" />
  <path
    d="M25.25 6C23.7312 6 22.5 7.23122 22.5 8.75C22.5 10.2688 23.7312 11.5 25.25 11.5C26.7688 11.5 28 10.2688 28 8.75C28 7.23122 26.7688 6 25.25 6Z"
    stroke="var(--color-primary)" stroke-width="2" stroke-linecap="round" stroke-linejoin="round" />
  <path
    d="M15.75 25.5C17.2688 25.5 18.5 24.2688 18.5 22.75C18.5 21.2312 17.2688 20 15.75 20C14.2312 20 13 21.2312 13 22.75C13 24.2688 14.2312 25.5 15.75 25.5Z"
    stroke="var(--color-primary)" stroke-width="2" stroke-linecap="round" stroke-linejoin="round" />
  <path
    d="M14.75 6C13.2312 6 12 7.23122 12 8.75C12 10.2688 13.2312 11.5 14.75 11.5C16.2688 11.5 17.5 10.2688 17.5 8.75C17.5 7.23122 16.2688 6 14.75 6Z"
    stroke="var(--color-primary)" stroke-width="2" stroke-linecap="round" stroke-linejoin="round" />
</svg>