<svg xmlns="http://www.w3.org/2000/svg" viewBox="0 0 24 24" fill="none">
  <circle cx="9.0251" cy="9.0251" r="5.87508" stroke="var(--color-primary)" stroke-width="1.5" />
  <path
    d="M9.57019 20.1894H14.7346C15.1852 20.1894 15.4059 19.6402 15.0805 19.3284L12.3861 16.7462C12.1866 16.555 11.8698 16.5619 11.6788 16.7616L9.20887 19.3438C8.90465 19.6618 9.13007 20.1894 9.57019 20.1894Z"
    stroke="var(--color-primary-text)" stroke-width="1.5" />
  <path fill-rule="evenodd" clip-rule="evenodd"
    d="M17.8438 11.1006L19.5214 11.5501L19.971 9.87246L18.2933 9.42293L17.8438 11.1006ZM16.2655 11.1953C16.1225 11.7288 16.4391 12.2771 16.9726 12.4201L19.6162 13.1284C20.1496 13.2714 20.698 12.9548 20.8409 12.4213L21.5493 9.77773C21.6922 9.24426 21.3756 8.69592 20.8422 8.55298L18.1986 7.84464C17.6651 7.70169 17.1168 8.01828 16.9738 8.55174L16.2655 11.1953Z"
    fill="var(--color-primary-text)" />
  <path d="M2.40002 18.4L22.4 14.4" stroke="var(--color-primary-text)" stroke-width="1.5"
    stroke-linecap="round" />
</svg>