<svg width="14" height="14" viewBox="0 0 24 25" fill="none" xmlns="http://www.w3.org/2000/svg">
  <path
    d="M13.1633 11.7795H11V10.1795H13.1633V7.76102H14.7633V10.1795H17V11.7795H14.7633V14H13.1633V11.7795Z"
    fill="var(--color-third-text)" />
  <path fill-rule="evenodd" clip-rule="evenodd"
    d="M6.99995 4.92334C6.99995 4.37106 7.44767 3.92334 7.99995 3.92334H20C20.5522 3.92334 21 4.37106 21 4.92334V16.9233C21 17.4756 20.5522 17.9233 20 17.9233H7.99995C7.44767 17.9233 6.99995 17.4756 6.99995 16.9233V4.92334ZM8.59995 16.3233V5.52334H19.4V16.3233H8.59995Z"
    fill="var(--color-third-text)" />
  <path
    d="M15.9999 20.1233H4.79995V8.92334H3.19995V20.6233C3.19995 21.2309 3.69244 21.7233 4.29995 21.7233H15.9999V20.1233Z"
    fill="var(--color-third-text)" />
</svg>
  