<svg xmlns="http://www.w3.org/2000/svg" width="24" height="24" viewBox="0 0 24 24" fill="none">
  <path
    d="M12.0272 1.62305C10.7212 1.62305 9.44462 2.0106 8.35903 2.73662C7.27344 3.46264 6.42771 4.49447 5.92892 5.70146C5.43014 6.90845 5.30073 8.2363 5.55709 9.51688C5.81346 10.7975 6.44406 11.9732 7.36905 12.8951C8.29404 13.8171 9.47181 14.4438 10.7532 14.696C12.0346 14.9481 13.3621 14.8144 14.5674 14.3116C15.7727 13.8089 16.8018 12.9598 17.5242 11.8718C18.2467 10.7838 18.63 9.50594 18.6258 8.19996C18.6172 6.45455 17.9186 4.78339 16.6823 3.55121C15.4461 2.31903 13.7727 1.62588 12.0272 1.62305ZM12.0272 12.9704C11.0863 12.9704 10.1665 12.6915 9.38406 12.169C8.60158 11.6465 7.99153 10.9038 7.63097 10.0347C7.27041 9.16561 7.17552 8.20917 7.3583 7.28619C7.54107 6.36322 7.99331 5.51512 8.65787 4.84905C9.32243 4.18298 10.1695 3.72882 11.0921 3.54395C12.0146 3.35908 12.9713 3.45179 13.8412 3.81037C14.7111 4.16896 15.4551 4.77733 15.9794 5.55862C16.5037 6.33991 16.7847 7.25906 16.7868 8.19996C16.7883 8.82591 16.6662 9.44599 16.4276 10.0247C16.1891 10.6034 15.8387 11.1294 15.3966 11.5725C14.9545 12.0156 14.4293 12.3672 13.8511 12.607C13.273 12.8469 12.6532 12.9704 12.0272 12.9704Z"
    fill="currentColor" />
  <path
    d="M12.0267 12.9707C9.36524 12.9736 6.81359 14.0321 4.93163 15.9141C3.04968 17.796 1.99114 20.0094 1.98828 22.6709C1.98828 22.9175 2.18814 23.1173 2.43467 23.1173H3.38083C3.62736 23.1173 3.82722 22.9175 3.82722 22.6709C3.83008 20.4972 4.69487 18.7515 6.23196 17.2144C7.76904 15.6773 9.85296 14.8125 12.0267 14.8096H12.1349V12.9707H12.0267Z"
    fill="currentColor" />
  <path
    d="M17.9068 14.9212C17.6823 14.7534 17.3659 14.82 17.2147 15.0559L16.7712 15.7479C16.624 15.9777 16.6893 16.2819 16.9071 16.4463C17.8535 17.1602 18.6356 18.0718 19.1978 19.1199C19.7594 20.1668 20.0861 21.4048 20.1578 22.6072C20.1743 22.8828 20.3967 23.1067 20.6728 23.1067H21.5114C21.7877 23.1067 22.0129 22.8825 21.999 22.6065C21.9245 21.1186 21.5267 19.5932 20.8315 18.291C20.1379 16.9917 19.0977 15.8111 17.9068 14.9212Z"
    fill="currentColor" />
</svg>