<svg width="32" height="32" viewBox="0 0 32 32" fill="none" xmlns="http://www.w3.org/2000/svg">
  <path
    d="M16.4742 22.5034C16.4723 22.7782 16.249 23 15.9742 23H5.78711C5.5792 22.9973 5.38057 22.9156 5.23354 22.7721C5.08652 22.6287 5.00272 22.4349 5 22.2321V8.76792C5.00272 8.56508 5.08652 8.37129 5.23354 8.22785C5.38057 8.08441 5.5792 8.00265 5.78711 8H25.2129C25.4208 8.00265 25.6194 8.08441 25.7665 8.22785C25.9135 8.37129 25.9973 8.56508 26 8.76792V12.3635C26 12.6396 25.7761 12.8635 25.5 12.8635H24.9258C24.6496 12.8635 24.4258 12.6396 24.4258 12.3635V9.99489C24.4258 9.71874 24.2019 9.49489 23.9258 9.49489H7.08471C6.80856 9.49489 6.58471 9.71874 6.58471 9.99489V20.9642C6.58471 21.2403 6.80856 21.4642 7.08471 21.4642H15.9778C16.2553 21.4642 16.4797 21.6901 16.4778 21.9676L16.4742 22.5034Z"
    fill="var(--color-primary-text)" />
  <path
    d="M16.5 12H9.5C9.22386 12 9 12.2239 9 12.5V13.5C9 13.7761 9.22386 14 9.5 14H16.5C16.7761 14 17 13.7761 17 13.5V12.5C17 12.2239 16.7761 12 16.5 12Z"
    fill="var(--color-primary-text)" />
  <path
    d="M13.5 16H9.5C9.22386 16 9 16.2239 9 16.5V17.5C9 17.7761 9.22386 18 9.5 18H13.5C13.7761 18 14 17.7761 14 17.5V16.5C14 16.2239 13.7761 16 13.5 16Z"
    fill="var(--color-primary-text)" />
  <path
    d="M23 20C22.4067 20 21.8266 19.8241 21.3333 19.4944C20.8399 19.1648 20.4554 18.6962 20.2284 18.1481C20.0013 17.5999 19.9419 16.9967 20.0576 16.4147C20.1734 15.8328 20.4591 15.2982 20.8787 14.8787C21.2982 14.4591 21.8328 14.1734 22.4147 14.0576C22.9967 13.9419 23.5999 14.0013 24.1481 14.2284C24.6962 14.4554 25.1648 14.8399 25.4944 15.3333C25.824 15.8266 26 16.4067 26 17C26 17.7957 25.6839 18.5587 25.1213 19.1213C24.5587 19.6839 23.7956 20 23 20ZM23 15.47C22.699 15.468 22.4041 15.5555 22.1528 15.7213C21.9016 15.8871 21.7052 16.1238 21.5886 16.4014C21.472 16.6789 21.4405 16.9849 21.498 17.2804C21.5555 17.5759 21.6995 17.8476 21.9117 18.0612C22.1238 18.2748 22.3946 18.4206 22.6898 18.48C22.9849 18.5395 23.291 18.51 23.5693 18.3952C23.8477 18.2805 24.0857 18.0857 24.2531 17.8355C24.4206 17.5853 24.51 17.2911 24.51 16.99C24.51 16.5886 24.3512 16.2035 24.0683 15.9187C23.7854 15.634 23.4014 15.4727 23 15.47Z"
    fill="var(--color-primary)" />
  <path
    d="M27.975 23.5008C28.0026 23.7756 27.7761 24 27.5 24H26.9472C26.6711 24 26.4509 23.775 26.411 23.5017C26.3044 22.7717 25.9654 22.0903 25.4375 21.5624C24.7911 20.916 23.9143 20.5528 23 20.5528C22.0857 20.5528 21.2089 20.916 20.5625 21.5624C20.0346 22.0903 19.6956 22.7717 19.589 23.5017C19.5491 23.775 19.3289 24 19.0528 24H18.5C18.2239 24 17.9974 23.7756 18.025 23.5008C18.1396 22.3581 18.6452 21.2837 19.4645 20.4645C20.4021 19.5268 21.6739 19 23 19C24.3261 19 25.5979 19.5268 26.5355 20.4645C27.3548 21.2837 27.8604 22.3581 27.975 23.5008Z"
    fill="var(--color-primary)" />
</svg>
  