<svg data-v-a20e9fe6="" width="24" height="24" viewBox="0 0 24 24" fill="none"
  xmlns="http://www.w3.org/2000/svg">
  <g data-v-a20e9fe6="" clip-path="url(#clip0_1677_18195)">
    <path data-v-a20e9fe6="" fill-rule="evenodd" clip-rule="evenodd"
      d="M3 2.25C2.58579 2.25 2.25 2.58579 2.25 3V22C2.25 22.4142 2.58579 22.75 3 22.75H12.7074C13.1217 22.75 13.4574 22.4142 13.4574 22C13.4574 21.5858 13.1217 21.25 12.7074 21.25H3.75V3.75H19.25V10.0021C19.25 10.4163 19.5858 10.7521 20 10.7521C20.4142 10.7521 20.75 10.4163 20.75 10.0021V3C20.75 2.58579 20.4142 2.25 20 2.25H3ZM6.25 8C6.25 7.58579 6.58579 7.25 7 7.25H15C15.4142 7.25 15.75 7.58579 15.75 8C15.75 8.41421 15.4142 8.75 15 8.75H7C6.58579 8.75 6.25 8.41421 6.25 8ZM6.25 12C6.25 11.5858 6.58579 11.25 7 11.25H11C11.4142 11.25 11.75 11.5858 11.75 12C11.75 12.4142 11.4142 12.75 11 12.75H7C6.58579 12.75 6.25 12.4142 6.25 12Z"
      fill="currentColor"></path>
    <path data-v-a20e9fe6="" fill-rule="evenodd" clip-rule="evenodd"
      d="M13.5 14.2698H18.99V13.4471C18.99 13.0017 19.5286 12.7786 19.8435 13.0936L21.6664 14.9164C21.9814 15.2314 21.7583 15.77 21.3129 15.77H19.49L19.4752 15.7698H13.5C13.2239 15.7698 13 15.5459 13 15.2698V14.7698C13 14.4936 13.2239 14.2698 13.5 14.2698ZM21.0202 19.54H15.7801V20.3629C15.7801 20.8083 15.2416 21.0314 14.9266 20.7164L13.1037 18.8935C12.7887 18.5785 13.0118 18.04 13.4572 18.04H14.7802H15.2801H21.0202C21.2963 18.04 21.5202 18.2638 21.5202 18.54V19.04C21.5202 19.3161 21.2963 19.54 21.0202 19.54Z"
      fill="currentColor"></path>
  </g>
  <defs data-v-a20e9fe6="">
    <clipPath data-v-a20e9fe6="" id="clip0_1677_18195">
      <rect data-v-a20e9fe6="" width="24" height="24" fill="currentColor"></rect>
    </clipPath>
  </defs>
</svg>