<svg width="28" height="28" viewBox="0 0 28 28" fill="none" xmlns="http://www.w3.org/2000/svg">
  <path
    d="M12.514 22.9784H6.65509C6.56167 22.9797 6.46894 22.9622 6.38237 22.927C6.29581 22.8919 6.21717 22.8397 6.15111 22.7736C6.08504 22.7076 6.03288 22.6289 5.99771 22.5424C5.96255 22.4558 5.94508 22.3631 5.94635 22.2696V6.03479C5.94635 5.84682 6.02102 5.66655 6.15394 5.53363C6.28685 5.40072 6.46712 5.32605 6.65509 5.32605H20.3574C20.5446 5.3285 20.7234 5.40395 20.8558 5.53634C20.9882 5.66873 21.0637 5.84758 21.0661 6.03479V9.67298C21.0661 9.86095 20.9915 10.0412 20.8585 10.1741C20.7256 10.3071 20.5454 10.3817 20.3574 10.3817C20.1694 10.3817 19.9891 10.3071 19.8562 10.1741C19.7233 10.0412 19.6486 9.86095 19.6486 9.67298V6.74353H7.36383V21.5704H12.514C12.702 21.5704 12.8822 21.645 13.0152 21.7779C13.1481 21.9109 13.2227 22.0911 13.2227 22.2791C13.2227 22.4671 13.1481 22.6473 13.0152 22.7802C12.8822 22.9132 12.702 22.9878 12.514 22.9878V22.9784Z"
    fill="var(--color-primary-text)" />
  <path
    d="M16.9555 10.6943H10.0571C9.86916 10.6943 9.68889 10.6197 9.55597 10.4867C9.42306 10.3538 9.34839 10.1736 9.34839 9.98559C9.34839 9.79763 9.42306 9.61735 9.55597 9.48444C9.68889 9.35153 9.86916 9.27686 10.0571 9.27686H16.9555C17.1435 9.27686 17.3238 9.35153 17.4567 9.48444C17.5896 9.61735 17.6643 9.79763 17.6643 9.98559C17.6643 10.1736 17.5896 10.3538 17.4567 10.4867C17.3238 10.6197 17.1435 10.6943 16.9555 10.6943Z"
    fill="var(--color-primary-text)" />
  <path
    d="M14.7065 14.1147H10.0571C9.86916 14.1147 9.68889 14.0401 9.55597 13.9072C9.42306 13.7742 9.34839 13.594 9.34839 13.406C9.34839 13.218 9.42306 13.0378 9.55597 12.9049C9.68889 12.7719 9.86916 12.6973 10.0571 12.6973H14.7065C14.8944 12.6973 15.0747 12.7719 15.2076 12.9049C15.3405 13.0378 15.4152 13.218 15.4152 13.406C15.4152 13.594 15.3405 13.7742 15.2076 13.9072C15.0747 14.0401 14.8944 14.1147 14.7065 14.1147Z"
    fill="var(--color-primary-text)" />
  <path
    d="M24.005 17.0351H14.7063C14.5183 17.0351 14.3381 16.9605 14.2051 16.8276C14.0722 16.6946 13.9976 16.5144 13.9976 16.3264C13.9976 16.1384 14.0722 15.9582 14.2051 15.8252C14.3381 15.6923 14.5183 15.6177 14.7063 15.6177H22.2662L20.5841 13.9072C20.4589 13.7729 20.3908 13.5952 20.394 13.4116C20.3972 13.228 20.4716 13.0528 20.6015 12.9229C20.7313 12.7931 20.9065 12.7187 21.0901 12.7154C21.2737 12.7122 21.4514 12.7804 21.5858 12.9056L24.5058 15.8256C24.6048 15.9247 24.6722 16.0509 24.6995 16.1883C24.7268 16.3257 24.7127 16.4681 24.6592 16.5975C24.6056 16.727 24.5148 16.8376 24.3984 16.9155C24.2819 16.9934 24.145 17.035 24.005 17.0351Z"
    fill="var(--color-primary)" />
  <path
    d="M17.6358 23.1685C17.5425 23.1706 17.4497 23.1532 17.3635 23.1174C17.2772 23.0816 17.1994 23.0282 17.135 22.9606L14.2055 20.0311C14.1071 19.933 14.0402 19.8078 14.0133 19.6714C13.9863 19.5351 14.0006 19.3938 14.0543 19.2657C14.1078 19.1361 14.198 19.025 14.3139 18.9461C14.4298 18.8671 14.5662 18.8238 14.7064 18.8215H24.005C24.193 18.8215 24.3733 18.8962 24.5062 19.0291C24.6391 19.162 24.7138 19.3423 24.7138 19.5303C24.7138 19.7182 24.6391 19.8985 24.5062 20.0314C24.3733 20.1643 24.193 20.239 24.005 20.239H16.4451L18.165 21.9589C18.2977 22.0918 18.3723 22.2719 18.3723 22.4597C18.3723 22.6475 18.2977 22.8277 18.165 22.9606C18.0963 23.0304 18.0137 23.0849 17.9225 23.1207C17.8313 23.1565 17.7337 23.1728 17.6358 23.1685Z"
    fill="var(--color-primary)" />
</svg>