<svg data-v-2b5f2a88="" width="24" height="24" viewBox="0 0 24 24" fill="none"
  xmlns="http://www.w3.org/2000/svg">
  <path data-v-2b5f2a88=""
    d="M17.45 1.7204C17.3489 1.51901 17.1729 1.36533 16.9597 1.29239C16.7465 1.21946 16.5132 1.23311 16.31 1.3304L9.47998 4.6304H13.2563C13.3311 4.6304 13.405 4.6136 13.4725 4.58125L16.29 3.2304L16.8611 4.35655C16.9463 4.52454 17.1187 4.6304 17.307 4.6304H18.0847C18.4555 4.6304 18.6973 4.24097 18.5328 3.90864L17.45 1.7204Z"
    fill="currentColor"></path>
  <path data-v-2b5f2a88=""
    d="M11.6 10.8301C11.3746 10.8301 11.1584 10.9196 10.999 11.079C10.8396 11.2384 10.75 11.4546 10.75 11.6801V15.5801C10.75 15.8055 10.8396 16.0217 10.999 16.1811C11.1584 16.3405 11.3746 16.4301 11.6 16.4301H21.42V10.8301H11.6ZM12.45 14.7301V12.5301H20.71V14.7301H12.45Z"
    fill="currentColor"></path>
  <path data-v-2b5f2a88=""
    d="M21.5601 5.36035H2.44009C2.21546 5.36295 2.00077 5.45334 1.84192 5.61218C1.68307 5.77103 1.59269 5.98572 1.59009 6.21035V21.0604C1.59269 21.285 1.68307 21.4997 1.84192 21.6585C2.00077 21.8174 2.21546 21.9078 2.44009 21.9104H21.5601C21.7847 21.9078 21.9994 21.8174 22.1583 21.6585C22.3171 21.4997 22.4075 21.285 22.4101 21.0604V6.21035C22.4075 5.98572 22.3171 5.77103 22.1583 5.61218C21.9994 5.45334 21.7847 5.36295 21.5601 5.36035V5.36035ZM20.7101 7.05035V20.2104H3.29009V7.05035H20.7101Z"
    fill="currentColor"></path>
</svg>