<svg
  width="24"
  height="24"
  viewBox="0 0 24 24"
  fill="none"
  xmlns="http://www.w3.org/2000/svg"
>
  <path
    d="M12 14C10.8133 14 9.65328 13.6481 8.66658 12.9888C7.67989 12.3295 6.91085 11.3925 6.45673 10.2961C6.0026 9.19975 5.88378 7.99335 6.11529 6.82946C6.3468 5.66558 6.91825 4.59648 7.75736 3.75736C8.59648 2.91825 9.66558 2.3468 10.8295 2.11529C11.9933 1.88378 13.1997 2.0026 14.2961 2.45673C15.3925 2.91085 16.3295 3.67989 16.9888 4.66658C17.6481 5.65328 18 6.81331 18 8C18 9.5913 17.3679 11.1174 16.2426 12.2426C15.1174 13.3679 13.5913 14 12 14ZM12 3.52C11.1091 3.52001 10.2383 3.78444 9.49787 4.2798C8.75742 4.77516 8.18066 5.47915 7.84067 6.30258C7.50067 7.12601 7.41273 8.03184 7.58799 8.90529C7.76325 9.77875 8.19382 10.5805 8.82516 11.2091C9.4565 11.8376 10.2602 12.2646 11.1344 12.436C12.0086 12.6073 12.9141 12.5154 13.736 12.1717C14.5579 11.828 15.2593 11.2481 15.7514 10.5055C16.2434 9.76285 16.504 8.89086 16.5 8C16.4921 6.81081 16.0148 5.67287 15.172 4.83385C14.3293 3.99482 13.1892 3.52261 12 3.52Z"
    fill="var(--color-primary-text)"
  />
  <path
    d="M4.33631 21.1903C4.31837 21.4659 4.09621 21.69 3.82007 21.69H3.32061C3.04426 21.69 2.8189 21.4656 2.83423 21.1897C2.95936 18.9382 3.90905 16.8044 5.51175 15.2017C7.23276 13.4807 9.56619 12.5127 12.0001 12.51V14C9.96229 14.0027 8.00887 14.814 6.56888 16.2559C5.24705 17.5794 4.45705 19.3349 4.33631 21.1903Z"
    fill="var(--color-primary-text)"
  />
  <path
    fill-rule="evenodd"
    clip-rule="evenodd"
    d="M21.7698 17.85C21.7698 19.9708 20.0506 21.69 17.9298 21.69C15.8091 21.69 14.0898 19.9708 14.0898 17.85C14.0898 15.7292 15.8091 14.01 17.9298 14.01C20.0506 14.01 21.7698 15.7292 21.7698 17.85ZM16.4398 16.29L17.9298 18.91L19.4198 16.29C19.4576 16.2226 19.5128 16.1666 19.5796 16.1278C19.6465 16.0891 19.7226 16.0692 19.7998 16.07H20.9198L18.3198 20.64C18.2826 20.7113 18.2266 20.771 18.1578 20.8126C18.0891 20.8543 18.0102 20.8763 17.9298 20.8763C17.8494 20.8763 17.7706 20.8543 17.7018 20.8126C17.6331 20.771 17.577 20.7113 17.5398 20.64L14.9398 16.07H16.0498C16.1286 16.0684 16.2063 16.088 16.2749 16.1267C16.3435 16.1654 16.4005 16.2218 16.4398 16.29Z"
    fill="var(--color-primary)"
  />
</svg>