<svg width="24" height="24" viewBox="0 0 24 24" fill="none" xmlns="http://www.w3.org/2000/svg">
  <path fill-rule="evenodd" clip-rule="evenodd"
    d="M1.25 5C1.25 3.34315 2.59315 2 4.25 2H14.25C14.8023 2 15.25 2.44772 15.25 3C15.25 3.55228 14.8023 4 14.25 4H4.25C3.69772 4 3.25 4.44772 3.25 5V6.17071C3.56278 6.06015 3.89936 6 4.25 6H19.75C21.4069 6 22.75 7.34315 22.75 9V19.5C22.75 21.1569 21.4069 22.5 19.75 22.5H4.25C2.59315 22.5 1.25 21.1569 1.25 19.5V5ZM17.25 16C18.3546 16 19.25 15.1046 19.25 14C19.25 12.8954 18.3546 12 17.25 12C16.1454 12 15.25 12.8954 15.25 14C15.25 15.1046 16.1454 16 17.25 16Z"
    fill="currentColor" />
</svg>