<svg width="25" height="24" viewBox="0 0 25 24" fill="none" xmlns="http://www.w3.org/2000/svg">
<path d="M17.75 16C18.8546 16 19.75 15.1046 19.75 14C19.75 12.8954 18.8546 12 17.75 12C16.6454 12 15.75 12.8954 15.75 14C15.75 15.1046 16.6454 16 17.75 16Z" fill="#898989"/>
<path d="M1.75 5C1.75 3.34315 3.09315 2 4.75 2H14.75C15.3023 2 15.75 2.44772 15.75 3C15.75 3.55228 15.3023 4 14.75 4H4.75C4.19772 4 3.75 4.44772 3.75 5V6.17071C4.06278 6.06015 4.39936 6 4.75 6H20.25C21.9069 6 23.25 7.34315 23.25 9V19.5C23.25 21.1569 21.9069 22.5 20.25 22.5H4.75C3.09315 22.5 1.75 21.1569 1.75 19.5V5ZM3.75 9V19.5C3.75 20.0523 4.19772 20.5 4.75 20.5H20.25C20.8023 20.5 21.25 20.0523 21.25 19.5V9C21.25 8.44772 20.8023 8 20.25 8H4.75C4.19772 8 3.75 8.44772 3.75 9Z" fill="#898989"/>
</svg>
