<svg width="25" height="24" viewBox="0 0 25 24" fill="none" xmlns="http://www.w3.org/2000/svg">
<g clip-path="url(#clip0_137_25201)">
<path d="M13.2548 9.04243C13.7269 9.32903 13.8773 9.94408 13.5907 10.4162L11.4698 13.9098L8.21451 12.5752L7.00615 14.0349C6.65397 14.4604 6.0236 14.5197 5.59817 14.1676C5.17274 13.8154 5.11336 13.185 5.46553 12.7596L7.61201 10.1666L10.6471 11.411L11.881 9.37832C12.1676 8.90622 12.7827 8.75584 13.2548 9.04243Z" fill="#898989"/>
<path fill-rule="evenodd" clip-rule="evenodd" d="M0.719333 5.13834C0.567862 4.04421 1.33204 3.03444 2.42618 2.88297L13.7943 1.30918C14.8884 1.15771 15.8982 1.92189 16.0497 3.01602L16.4817 6.13711L22.7788 7.69117C23.8457 7.95448 24.5003 9.02931 24.2447 10.0981L21.6197 21.074C21.368 22.1266 20.3246 22.788 19.2653 22.5665L14.041 21.4741C14.0332 21.4725 14.0254 21.4708 14.0177 21.469L5.16881 22.694C4.07467 22.8455 3.06491 22.0813 2.91344 20.9872L0.719333 5.13834ZM17.9298 20.244L19.6746 20.6088L22.2996 9.63291L16.777 8.26999L18.2438 18.8649C18.3133 19.3674 18.1898 19.8521 17.9298 20.244ZM14.0685 3.29028L2.70044 4.86408L4.89455 20.7129L16.2627 19.1391L14.0685 3.29028Z" fill="#898989"/>
</g>
<defs>
<clipPath id="clip0_137_25201">
<rect width="24" height="24" fill="white" transform="translate(0.5)"/>
</clipPath>
</defs>
</svg>
