<svg width="24" height="24" viewBox="0 0 24 24" fill="none" xmlns="http://www.w3.org/2000/svg">
  <path
    d="M0.219333 5.13834C0.0678621 4.04421 0.832041 3.03444 1.92618 2.88297L13.2943 1.30918C14.3884 1.15771 15.3982 1.92188 15.5497 3.01602L15.9817 6.13705L22.279 7.69117C23.3459 7.95448 24.0006 9.02931 23.7449 10.0981L21.1199 21.074C20.8682 22.1266 19.8248 22.788 18.7655 22.5665L13.5412 21.4741C13.5334 21.4725 13.5256 21.4708 13.5179 21.469L4.66881 22.694C3.57467 22.8455 2.56491 22.0813 2.41344 20.9872L0.219333 5.13834ZM17.4298 20.2439L19.1748 20.6088L21.7998 9.63291L16.277 8.26993L17.7438 18.8649C17.8133 19.3673 17.6898 19.852 17.4298 20.2439ZM12.755 9.04244C12.2829 8.75584 11.6679 8.90622 11.3813 9.37832L10.1473 11.411L7.11228 10.1666L4.96581 12.7596C4.61363 13.185 4.67301 13.8154 5.09844 14.1676C5.52387 14.5197 6.15424 14.4604 6.50642 14.0349L7.71478 12.5752L10.97 13.9098L13.0909 10.4162C13.3775 9.94408 13.2271 9.32903 12.755 9.04244Z"
    fill="currentColor" />
</svg>