<svg width="26" height="26" viewBox="0 0 26 26" fill="none" xmlns="http://www.w3.org/2000/svg">
  <path
    d="M6.50017 8.66665C6.50017 8.37933 6.6143 8.10378 6.81747 7.90061C7.02063 7.69745 7.29618 7.58331 7.5835 7.58331H13.0002C13.1424 7.58329 13.2833 7.6113 13.4148 7.66573C13.5462 7.72016 13.6657 7.79996 13.7663 7.90056C13.8669 8.00115 13.9467 8.12059 14.0012 8.25203C14.0556 8.38348 14.0837 8.52437 14.0837 8.66665C14.0837 8.80893 14.0556 8.94981 14.0012 9.08126C13.9467 9.21271 13.8669 9.33214 13.7663 9.43274C13.6657 9.53334 13.5462 9.61313 13.4148 9.66756C13.2833 9.722 13.1424 9.75 13.0002 9.74998H7.5835C7.44123 9.74998 7.30036 9.72196 7.16893 9.66752C7.03749 9.61307 6.91806 9.53328 6.81747 9.43268C6.71687 9.33208 6.63707 9.21266 6.58263 9.08122C6.52819 8.94978 6.50017 8.80891 6.50017 8.66665ZM7.5835 13C7.44122 13 7.30033 13.028 7.16887 13.0824C7.03742 13.1368 6.91797 13.2166 6.81736 13.3172C6.71675 13.4178 6.63693 13.5373 6.58248 13.6687C6.52803 13.8001 6.5 13.941 6.5 14.0833C6.5 14.2256 6.52803 14.3665 6.58248 14.4979C6.63693 14.6294 6.71675 14.7488 6.81736 14.8494C6.91797 14.95 7.03742 15.0298 7.16887 15.0842C7.30033 15.1387 7.44122 15.1667 7.5835 15.1666H13.0002C13.1424 15.1667 13.2833 15.1387 13.4148 15.0842C13.5462 15.0298 13.6657 14.95 13.7663 14.8494C13.8669 14.7488 13.9467 14.6294 14.0012 14.4979C14.0556 14.3665 14.0837 14.2256 14.0837 14.0833C14.0837 13.941 14.0556 13.8001 14.0012 13.6687C13.9467 13.5373 13.8669 13.4178 13.7663 13.3172C13.6657 13.2166 13.5462 13.1368 13.4148 13.0824C13.2833 13.028 13.1424 13 13.0002 13H7.5835Z"
    fill="currentColor" />
  <path
    d="M3.25033 23.8334C2.96301 23.8334 2.68746 23.7192 2.48429 23.5161C2.28113 23.3129 2.16699 23.0373 2.16699 22.75V3.25002C2.16699 2.9627 2.28113 2.68715 2.48429 2.48399C2.68746 2.28082 2.96301 2.16669 3.25033 2.16669H17.3337C17.621 2.16669 17.8965 2.28082 18.0997 2.48399C18.3029 2.68715 18.417 2.9627 18.417 3.25002V15.1667H22.7503C23.0376 15.1667 23.3132 15.2808 23.5164 15.484C23.7195 15.6872 23.8337 15.9627 23.8337 16.25V22.75C23.8337 23.0373 23.7195 23.3129 23.5164 23.5161C23.3132 23.7192 23.0376 23.8334 22.7503 23.8334H3.25033ZM4.33366 21.6667H16.2503V4.33335H4.33366V21.6667ZM18.417 21.6667H21.667V17.3334H18.417V21.6667Z"
    fill="currentColor" />
</svg>