<svg width="24" height="24" viewBox="0 0 24 24" fill="none" xmlns="http://www.w3.org/2000/svg">
  <path
    d="M14.0692 1.58778C12.9105 0.484086 11.0895 0.484087 9.93084 1.58778L2.43084 8.7319C1.83642 9.29812 1.5 10.0832 1.5 10.9041V20.1127C1.5 21.7696 2.84315 23.1127 4.5 23.1127H19.5C21.1569 23.1127 22.5 21.7696 22.5 20.1127V10.9041C22.5 10.0832 22.1636 9.29812 21.5692 8.7319L14.0692 1.58778ZM11 17.1126V13.1126C11 12.5603 11.4477 12.1126 12 12.1126C12.5523 12.1126 13 12.5603 13 13.1126V17.1126C13 17.6649 12.5523 18.1126 12 18.1126C11.4477 18.1126 11 17.6649 11 17.1126Z"
    fill="currentColor" />
</svg>