<svg width="25" height="24" viewBox="0 0 25 24" fill="none" xmlns="http://www.w3.org/2000/svg">
<path fill-rule="evenodd" clip-rule="evenodd" d="M11.5 17.1148V13.1148C11.5 12.5625 11.9477 12.1148 12.5 12.1148C13.0523 12.1148 13.5 12.5625 13.5 13.1148V17.1148C13.5 17.667 13.0523 18.1148 12.5 18.1148C11.9477 18.1148 11.5 17.667 11.5 17.1148Z" fill="#898989"/>
<path fill-rule="evenodd" clip-rule="evenodd" d="M14.5692 1.58992C13.4105 0.486222 11.5895 0.486224 10.4308 1.58992L2.93084 8.73404C2.33642 9.30025 2 10.0853 2 10.9063V20.1149C2 21.7717 3.34315 23.1149 5 23.1149H20C21.6569 23.1149 23 21.7717 23 20.1149V10.9063C23 10.0853 22.6636 9.30025 22.0692 8.73404L14.5692 1.58992ZM11.8103 3.03807C12.1965 2.67017 12.8035 2.67017 13.1897 3.03807L20.6897 10.1822C20.8879 10.3709 21 10.6326 21 10.9063V20.1149C21 20.6671 20.5523 21.1149 20 21.1149H5C4.44772 21.1149 4 20.6671 4 20.1149V10.9063C4 10.6326 4.11214 10.3709 4.31028 10.1822L11.8103 3.03807Z" fill="#898989"/>
</svg>
