<svg width="25" height="24" viewBox="0 0 25 24" fill="none" xmlns="http://www.w3.org/2000/svg">
<path d="M18 0.5C18.5523 0.5 19 0.947715 19 1.5V3H21C22.1046 3 23 3.89543 23 5V14C23 15.1046 22.1046 16 21 16H19V17.5C19 18.0523 18.5523 18.5 18 18.5C17.4477 18.5 17 18.0523 17 17.5V16H15C13.8954 16 13 15.1046 13 14V5C13 3.89543 13.8954 3 15 3H17V1.5C17 0.947715 17.4477 0.5 18 0.5ZM7 5.5C7.55229 5.5 8 5.94772 8 6.5V8H10C11.1046 8 12 8.89543 12 10V19C12 20.1046 11.1046 21 10 21H8V22.5C8 23.0523 7.55229 23.5 7 23.5C6.44772 23.5 6 23.0523 6 22.5V21H4C2.89543 21 2 20.1046 2 19V10C2 8.89543 2.89543 8 4 8H6V6.5C6 5.94772 6.44772 5.5 7 5.5ZM15 5V14H21V5L15 5ZM10 19V10H4V19H10Z" fill="#898989"/>
</svg>
