<svg width="24" height="24" viewBox="0 0 24 24" fill="none" xmlns="http://www.w3.org/2000/svg">
  <path fill-rule="evenodd" clip-rule="evenodd"
    d="M17.5 0.5C18.0523 0.5 18.5 0.947715 18.5 1.5V3H20.5C21.6046 3 22.5 3.89543 22.5 5V14C22.5 15.1046 21.6046 16 20.5 16H18.5V17.5C18.5 18.0523 18.0523 18.5 17.5 18.5C16.9477 18.5 16.5 18.0523 16.5 17.5V16H14.5C13.3954 16 12.5 15.1046 12.5 14V5C12.5 3.89543 13.3954 3 14.5 3H16.5V1.5C16.5 0.947715 16.9477 0.5 17.5 0.5ZM6.5 5.5C7.05229 5.5 7.5 5.94772 7.5 6.5V8H9.5C10.6046 8 11.5 8.89543 11.5 10V19C11.5 20.1046 10.6046 21 9.5 21H7.5V22.5C7.5 23.0523 7.05229 23.5 6.5 23.5C5.94772 23.5 5.5 23.0523 5.5 22.5V21H3.5C2.39543 21 1.5 20.1046 1.5 19V10C1.5 8.89543 2.39543 8 3.5 8H5.5V6.5C5.5 5.94772 5.94772 5.5 6.5 5.5Z"
    fill="currentColor" />
</svg>