<svg width="26" height="26" viewBox="0 0 26 26" fill="none" xmlns="http://www.w3.org/2000/svg">
  <path
    d="M8.34941 13.7583C8.14632 13.5552 8.03223 13.2797 8.03223 12.9924C8.03223 12.7051 8.14632 12.4296 8.34941 12.2265L12.2267 8.34923C12.4298 8.14614 12.7053 8.03204 12.9926 8.03204C13.2798 8.03204 13.5553 8.14614 13.7585 8.34923L17.6357 12.2265C17.8388 12.4296 17.9529 12.7051 17.9529 12.9924C17.9529 13.2797 17.8388 13.5552 17.6357 13.7583L13.7574 17.6345C13.5543 17.8372 13.279 17.9511 12.992 17.9511C12.705 17.9511 12.4298 17.8372 12.2267 17.6345L8.34941 13.7583ZM12.9926 15.3367L15.3369 12.9924L12.9926 10.647L10.6472 12.9924L12.9926 15.3367Z"
    fill="currentColor" />
  <path
    d="M24.375 13C24.375 19.2822 19.2822 24.375 13 24.375C6.71775 24.375 1.625 19.2822 1.625 13C1.625 6.71775 6.71775 1.625 13 1.625C19.2822 1.625 24.375 6.71775 24.375 13ZM22.2083 13C22.2083 10.5578 21.2382 8.21562 19.5113 6.48873C17.7844 4.76183 15.4422 3.79167 13 3.79167C10.5578 3.79167 8.21562 4.76183 6.48873 6.48873C4.76183 8.21562 3.79167 10.5578 3.79167 13C3.79167 15.4422 4.76183 17.7844 6.48873 19.5113C8.21562 21.2382 10.5578 22.2083 13 22.2083C15.4422 22.2083 17.7844 21.2382 19.5113 19.5113C21.2382 17.7844 22.2083 15.4422 22.2083 13Z"
    fill="currentColor" />
</svg>