<svg width="25" height="25" viewBox="0 0 25 25" fill="none" xmlns="http://www.w3.org/2000/svg">
  <path
    d="M10.3861 3.12532L4.1819 8.48893C3.48115 9.09474 3.90958 10.2454 4.8359 10.2454H20.9301C21.4824 10.2454 21.9301 9.79771 21.9301 9.24543V7.41267C21.9301 6.86038 21.4824 6.41267 20.9301 6.41267H13.0401C12.4878 6.41267 12.0401 5.96495 12.0401 5.41267V3.88182C12.0401 3.02548 11.0339 2.56528 10.3861 3.12532Z"
    fill="currentColor" />
  <path fill-rule="evenodd" clip-rule="evenodd"
    d="M14.6143 21.8655L20.8185 16.5019C21.5193 15.8961 21.0908 14.7454 20.1645 14.7454H4.07031C3.51803 14.7454 3.07031 15.1931 3.07031 15.7454V17.5782C3.07031 18.1304 3.51803 18.5782 4.07031 18.5782H11.9603C12.5126 18.5782 12.9603 19.0259 12.9603 19.5782V21.109C12.9603 21.9654 13.9665 22.4256 14.6143 21.8655Z"
    fill="currentColor" />
</svg>