<svg width="103" height="32" viewBox="0 0 103 32" fill="none" xmlns="http://www.w3.org/2000/svg">
  <g clip-path="url(#clip0_920_12430)">
    <path
      d="M40.3717 16.0738C41.1466 15.6338 41.7673 15.0859 42.2192 14.4398C42.7342 13.7043 42.9957 12.8641 42.9957 11.9442C42.9957 10.2218 42.3519 8.87742 41.083 7.94775C39.8292 7.02885 38.1041 6.56348 35.9541 6.56348H28.1797V26.5143H36.2647C38.5291 26.5143 40.3421 25.988 41.653 24.9489C42.9742 23.9011 43.645 22.4338 43.645 20.5868C43.645 19.4625 43.3295 18.495 42.7083 17.7121C42.1507 17.0121 41.3661 16.4615 40.3723 16.0738H40.3717ZM32.387 10.1592H35.616C36.6287 10.1592 37.3934 10.3555 37.8901 10.7416C38.3808 11.1229 38.6191 11.6239 38.6191 12.2726C38.6191 12.9213 38.3808 13.4476 37.8901 13.8305C37.3934 14.2166 36.6287 14.4129 35.616 14.4129H32.387V10.1592ZM38.466 22.2423C37.9062 22.691 37.0515 22.918 35.9261 22.918H32.387V18.0356H35.9261C37.051 18.0356 37.9068 18.2551 38.4687 18.6859C39.0257 19.1157 39.2964 19.683 39.2964 20.4223C39.2964 21.2 39.0247 21.7953 38.466 22.2429V22.2423Z"
      fill="#03AAC7" />
    <path d="M49.3291 11.5952H45.0938V26.5132H49.3291V11.5952Z" fill="#03AAC7" />
    <path
      d="M91.1611 13.8391C90.4908 13.041 89.6506 12.4154 88.6638 11.9792C87.678 11.5435 86.5693 11.3213 85.37 11.3213C83.9 11.3213 82.574 11.6551 81.4275 12.313C80.2784 12.973 79.3665 13.8898 78.7162 15.0395C78.0658 16.1881 77.7363 17.5211 77.7363 19.0003C77.7363 20.4795 78.0561 21.9004 78.6865 23.0668C79.3185 24.237 80.2271 25.1548 81.3865 25.7971C82.5438 26.4355 83.9033 26.7596 85.4267 26.7596C87.2968 26.7596 88.8844 26.2894 90.1462 25.3614C91.3617 24.4683 92.1975 23.2086 92.6527 21.6319H88.3888C88.1645 22.1684 87.8485 22.6252 87.396 22.9471C86.8611 23.3267 86.1703 23.5193 85.342 23.5193C84.6237 23.5193 84.0084 23.3445 83.5128 23.0005C83.0151 22.6564 82.6349 22.1479 82.3852 21.4873C82.2353 21.0948 82.1291 20.6434 82.0665 20.1414H92.7271L92.7481 20.0087C92.9385 18.8056 92.8905 17.6656 92.6036 16.6206C92.3162 15.5728 91.8309 14.6372 91.1611 13.8391ZM82.134 17.3793C82.1992 17.0757 82.2871 16.7597 82.3987 16.4717C82.6587 15.8025 83.034 15.2875 83.515 14.9435C83.9938 14.5994 84.5897 14.4258 85.2864 14.4258C86.1595 14.4258 86.8762 14.7089 87.4165 15.2659C87.9288 15.796 88.2195 16.5203 88.2815 17.3793H82.1345H82.134Z"
      fill="#03AAC7" />
    <path d="M49.4181 6.56299H45.0059V10.1587H49.4181V6.56299Z" fill="#03AAC7" />
    <path
      d="M72.6108 13.288C72.1098 12.6861 71.5226 12.2197 70.8604 11.8972C70.0698 11.5149 69.145 11.3213 68.1112 11.3213C66.8456 11.3213 65.711 11.6335 64.7403 12.2483C63.7708 12.8625 63.0018 13.7307 62.4555 14.827C61.9114 15.9206 61.6348 17.2046 61.6348 18.6449C61.6348 20.0853 61.9254 21.2937 62.4992 22.3949C63.074 23.4998 63.8711 24.3799 64.8676 25.0119C65.8663 25.6455 67.0052 25.9669 68.2531 25.9669C69.1951 25.9669 70.0558 25.7631 70.8097 25.3603C71.4066 25.0416 71.9065 24.6199 72.3007 24.1049V25.7291C72.3007 26.7359 72.0359 27.5087 71.5156 28.0237C70.9936 28.5386 70.1998 28.7986 69.1558 28.7986C68.2563 28.7986 67.5488 28.5947 67.0537 28.1919C66.6488 27.8624 66.295 27.4299 66.2125 26.5143H62.1293C62.167 27.7956 62.5434 28.6589 63.0746 29.4155C63.6705 30.2632 64.5085 30.9259 65.5676 31.3838C66.6164 31.8362 67.8335 32.0659 69.1843 32.0659C71.4519 32.0659 73.2573 31.4959 74.5489 30.3732C75.8485 29.244 76.5074 27.6629 76.5074 25.6747V11.5952H72.6108V13.288ZM71.865 20.6267C71.5964 21.181 71.2173 21.6157 70.7369 21.9166C70.2569 22.2175 69.6778 22.3706 69.0145 22.3706C68.0557 22.3706 67.3104 22.0444 66.7345 21.3725C66.1607 20.7043 65.8701 19.7865 65.8701 18.6444C65.8701 17.5022 66.1607 16.5844 66.7345 15.9152C67.3029 15.2525 68.0702 14.917 69.0145 14.917C69.9587 14.917 70.793 15.2573 71.3797 15.9303C71.9718 16.6087 72.2721 17.5314 72.2721 18.6708C72.2721 19.409 72.1352 20.0664 71.865 20.6261V20.6267Z"
      fill="#03AAC7" />
    <path
      d="M103.002 15.1636V11.5959H99.9453V6.56299H95.738V11.5959H93.127V15.1636H95.738V21.0037C95.738 24.2506 96.3776 26.6368 100.364 26.5629L102.867 26.5138V23.1688H101.625C99.8531 23.1688 99.9518 22.1356 99.9518 20.2169L99.9448 15.1636H103.002H103.002Z"
      fill="#03AAC7" />
    <path
      d="M60.6059 15.1636V11.5959H57.5488V6.56299H53.3415V11.5959H50.7305V15.1636H53.3415V21.0037C53.3415 24.2506 53.9811 26.6368 57.9678 26.5629L60.4705 26.5138V23.1688H59.2286C57.4566 23.1688 57.5553 22.1356 57.5553 20.2169L57.5483 15.1636H60.6053H60.6059Z"
      fill="#03AAC7" />
    <path
      d="M10.5599 10.1587H16.9128L23.4119 16.6163C23.8347 17.0364 23.8369 17.7196 23.4163 18.1419L15.0815 26.5187H8.53711L10.5156 24.5952L17.78 17.3767L10.6079 10.1582"
      fill="#03AAC7" />
    <path
      d="M13.1705 17.3605H6.81755L0.318435 10.9029C-0.104341 10.4828 -0.106498 9.79957 0.314121 9.37734L8.64886 1H15.1933L13.2147 2.92352L5.95042 10.142L13.1225 17.3605"
      fill="#03AAC7" />
  </g>
  <defs>
    <clipPath id="clip0_920_12430">
      <rect width="103" height="32" fill="white" />
    </clipPath>
  </defs>
</svg>