<svg width="88" height="86" viewBox="0 0 88 86" fill="none" xmlns="http://www.w3.org/2000/svg">
  <path
    d="M61.5 41.1198C63.7701 41.0244 65.9032 41.086 67.8562 41.2995C71.0644 41.6503 73.7715 42.4093 75.7997 43.543C77.8261 44.6757 79.1568 46.171 79.6602 47.9934C80.1636 49.8159 79.8056 51.8419 78.6787 53.9656C77.5508 56.091 75.6621 58.2945 73.1446 60.4446C72.7761 60.7593 72.3944 61.0727 72 61.3843M28.2887 51.5447C26.3172 52.7849 24.543 54.0786 23.0003 55.3962C20.4828 57.5464 18.5941 59.7498 17.4662 61.8753C16.3393 63.999 15.9813 66.025 16.4847 67.8474C16.9881 69.6698 18.3188 71.1651 20.3452 72.2978C22.3734 73.4315 25.0805 74.1906 28.2887 74.5413C34.7041 75.2427 43.0626 74.3048 51.8366 71.5474C52.5668 71.3179 53.2882 71.0796 54 70.8328"
    stroke="var(--color-disabled-text)" stroke-width="0.622027" />
  <path
    d="M64.8571 55.5L56.843 23.4049C56.2182 20.9025 53.699 19.4471 51.2192 20.1559L26.9782 27.084C24.4981 27.7928 22.9987 30.3972 23.631 32.8977L34.1662 74.5583C34.1832 74.5586 34.2013 74.5588 34.2203 74.559C34.4057 74.5612 34.684 74.5612 35.0526 74.552C35.7896 74.5338 36.8873 74.4793 38.323 74.334C41.1942 74.0435 45.4175 73.3897 50.8111 71.936C51.8964 71.6435 52.9632 71.3167 54 70.9681"
    stroke="var(--color-disabled-text)" stroke-width="0.622027" />
  <path
    d="M52.7654 32.3288L31.1859 38.4962C30.82 38.6008 30.5986 38.9847 30.6913 39.3538L31.1243 41.0774C31.217 41.4464 31.5888 41.6608 31.9546 41.5563L53.5341 35.3888C53.9 35.2842 54.1214 34.9003 54.0287 34.5313L53.5957 32.8076C53.503 32.4386 53.1313 32.2242 52.7654 32.3288Z"
    stroke="var(--color-disabled-text)" stroke-width="0.622027" />
  <path
    d="M55.0701 41.1745L33.4906 47.3419C33.1247 47.4465 32.9033 47.8304 32.996 48.1995L33.429 49.9231C33.5217 50.2921 33.8934 50.5065 34.2593 50.402L55.8388 44.2345C56.2047 44.13 56.4261 43.746 56.3334 43.377L55.9004 41.6534C55.8077 41.2843 55.436 41.0699 55.0701 41.1745Z"
    stroke="var(--color-disabled-text)" stroke-width="0.622027" />
  <path
    d="M80.0897 16.3879C80.5844 17.5588 80.3321 18.9478 79.4635 20.2646C78.5961 21.5796 77.1282 22.7953 75.2595 23.5846C73.3908 24.374 71.4959 24.5789 69.9484 24.2839C68.3988 23.9886 67.2272 23.2011 66.7325 22.0301C66.2379 20.8592 66.4902 19.4702 67.3588 18.1534C68.2262 16.8384 69.6941 15.6227 71.5628 14.8334C73.4315 14.044 75.3264 13.8391 76.8739 14.1341C78.4235 14.4294 79.5951 15.2169 80.0897 16.3879Z"
    stroke="var(--color-disabled-text)" stroke-width="0.5" />
  <path d="M77.9445 18.3791C78.3743 19.3966 77.073 20.9183 75.038 21.7779"
    stroke="var(--color-disabled-text)"
    stroke-width="0.5" />
  <path fill-rule="evenodd" clip-rule="evenodd"
    d="M65.0429 18.6722C63.9146 16.0012 66.0932 12.5293 69.9089 10.9175C73.7246 9.30573 77.7324 10.1644 78.8607 12.8353L80.2226 16.0595L80.2141 16.0631C79.0048 13.7023 75.1652 13.0394 71.4654 14.6023C67.7655 16.1651 65.564 19.3799 66.4133 21.8927L66.4048 21.8963L65.0429 18.6722Z"
    fill="var(--color-disabled-text)" />
  <path
    d="M57.5074 56.3595C58.8612 55.0057 60.9317 54.5815 63.224 55.04C65.5143 55.498 67.9952 56.8342 70.1121 58.9512C72.2291 61.0681 73.5653 63.5491 74.0234 65.8393C74.4818 68.1316 74.0576 70.2021 72.7038 71.5559C71.35 72.9098 69.2795 73.3339 66.9872 72.8755C64.697 72.4174 62.216 71.0812 60.0991 68.9643C57.9821 66.8473 56.6459 64.3664 56.1878 62.0761C55.7294 59.7838 56.1536 57.7133 57.5074 56.3595Z"
    stroke="var(--color-disabled-text)" stroke-width="0.5" />
  <path d="M61.4764 58.2557C62.6215 57.1106 65.4062 58.0389 67.6964 60.329"
    stroke="var(--color-disabled-text)"
    stroke-width="0.5" />
  <path fill-rule="evenodd" clip-rule="evenodd"
    d="M68.9933 75.62C65.9875 78.6258 60.0698 77.5815 55.7758 73.2875C51.4818 68.9935 50.4375 63.0759 53.4433 60.0701L57.0716 56.4417L57.0811 56.4512C54.5409 59.3959 55.7581 64.9774 59.922 69.1413C64.0859 73.3052 69.6674 74.5224 72.6121 71.9822L72.6216 71.9917L68.9933 75.62Z"
    fill="var(--color-disabled-text)" />
  <path
    d="M12.7754 26.537C12.1076 26.9225 11.2219 26.8589 10.2994 26.3713C9.38049 25.8857 8.46155 24.9944 7.77499 23.8053C7.08843 22.6161 6.77608 21.3747 6.81495 20.336C6.85397 19.2934 7.24171 18.4945 7.90944 18.109C8.57718 17.7234 9.46291 17.7871 10.3854 18.2746C11.3043 18.7603 12.2233 19.6515 12.9098 20.8407C13.5964 22.0298 13.9087 23.2713 13.8699 24.3099C13.8308 25.3526 13.4431 26.1515 12.7754 26.537Z"
    stroke="var(--color-disabled-text)" stroke-width="0.5" />
  <path d="M11.4775 25.3629C10.8625 25.718 9.75317 24.9479 8.99971 23.6429"
    stroke="var(--color-disabled-text)"
    stroke-width="0.5" />
  <path fill-rule="evenodd" clip-rule="evenodd"
    d="M9.87181 16.6877C11.4862 15.7556 13.9402 16.9836 15.3529 19.4305C16.7656 21.8774 16.6021 24.6166 14.9877 25.5487L13.039 26.6738L13.0357 26.6681C14.4416 25.7022 14.495 23.0888 13.1253 20.7163C11.7555 18.3439 9.46558 17.0835 7.9261 17.818L7.92307 17.8128L9.87181 16.6877Z"
    fill="var(--color-disabled-text)" />
</svg>