<svg width="16" height="16" viewBox="0 0 16 16" fill="none" xmlns="http://www.w3.org/2000/svg">
    <mask id="path-1-outside-1_3837_39844" maskUnits="userSpaceOnUse" x="2" y="1.56055" width="12" height="12"
          fill="var(--color-primary-text)">
        <rect fill="var(--color-bg)" x="2" y="1.56055" width="12" height="12"/>
        <path fill-rule="evenodd" clip-rule="evenodd"
              d="M7.98734 9.0966L7.96771 9.09654C6.86491 9.10315 5.80888 9.54448 5.0292 10.3252C4.33077 11.0245 3.90495 11.9453 3.82007 12.9223C3.80271 13.1221 3.64178 13.285 3.44123 13.285H3.35085C3.15016 13.285 2.98615 13.122 3.00093 12.9218C3.08896 11.729 3.60202 10.6024 4.45342 9.75099C4.96774 9.23666 5.58248 8.84581 6.25159 8.59753C6.22475 8.58071 6.19813 8.56348 6.17174 8.54584C5.63432 8.18675 5.21545 7.67635 4.9681 7.0792C4.72076 6.48204 4.65604 5.82495 4.78214 5.19102C4.90823 4.55708 5.21948 3.97477 5.67652 3.51773C6.13356 3.06069 6.71586 2.74944 7.34979 2.62334C7.98372 2.49725 8.6408 2.56196 9.23795 2.80931C9.8351 3.05666 10.3455 3.47553 10.7046 4.01296C11.0637 4.55038 11.2553 5.18222 11.2553 5.82858C11.2553 6.69531 10.911 7.52655 10.2982 8.13942C10.1229 8.31468 9.9298 8.46797 9.72311 8.59753C10.3922 8.84581 11.007 9.23667 11.5213 9.75099C12.3727 10.6024 12.8857 11.729 12.9738 12.9218C12.9885 13.122 12.8245 13.285 12.6238 13.285H12.5335C12.3329 13.285 12.172 13.1221 12.1546 12.9223C12.0697 11.9453 11.6439 11.0245 10.9455 10.3252C10.1658 9.54448 9.10978 9.10315 8.00698 9.09654C8.00044 9.09658 7.99389 9.0966 7.98734 9.0966ZM8.12103 8.28684C8.07655 8.28561 8.032 8.28496 7.98738 8.28491L8.12103 8.28684ZM8.12103 8.28684C8.39881 8.27167 8.67348 8.20924 8.93287 8.10078C9.38054 7.91359 9.76257 7.59774 10.0306 7.19324C10.2986 6.78875 10.4405 6.3138 10.4383 5.82858C10.434 5.18086 10.1741 4.56106 9.71504 4.10406C9.25601 3.64707 8.63507 3.38987 7.98734 3.38845C7.50212 3.38845 7.02781 3.53248 6.62451 3.80229C6.22122 4.0721 5.90708 4.45554 5.72189 4.90404C5.5367 5.35254 5.48881 5.84591 5.58426 6.32166C5.67972 6.79741 5.91424 7.23411 6.25811 7.57646C6.60198 7.9188 7.03972 8.15138 7.51589 8.24471C7.62781 8.26665 7.74067 8.28067 7.85366 8.28684C7.89814 8.28561 7.94269 8.28496 7.98731 8.28491"/>
    </mask>
    <path fill-rule="evenodd" clip-rule="evenodd"
          d="M7.98734 9.0966L7.96771 9.09654C6.86491 9.10315 5.80888 9.54448 5.0292 10.3252C4.33077 11.0245 3.90495 11.9453 3.82007 12.9223C3.80271 13.1221 3.64178 13.285 3.44123 13.285H3.35085C3.15016 13.285 2.98615 13.122 3.00093 12.9218C3.08896 11.729 3.60202 10.6024 4.45342 9.75099C4.96774 9.23666 5.58248 8.84581 6.25159 8.59753C6.22475 8.58071 6.19813 8.56348 6.17174 8.54584C5.63432 8.18675 5.21545 7.67635 4.9681 7.0792C4.72076 6.48204 4.65604 5.82495 4.78214 5.19102C4.90823 4.55708 5.21948 3.97477 5.67652 3.51773C6.13356 3.06069 6.71586 2.74944 7.34979 2.62334C7.98372 2.49725 8.6408 2.56196 9.23795 2.80931C9.8351 3.05666 10.3455 3.47553 10.7046 4.01296C11.0637 4.55038 11.2553 5.18222 11.2553 5.82858C11.2553 6.69531 10.911 7.52655 10.2982 8.13942C10.1229 8.31468 9.9298 8.46797 9.72311 8.59753C10.3922 8.84581 11.007 9.23667 11.5213 9.75099C12.3727 10.6024 12.8857 11.729 12.9738 12.9218C12.9885 13.122 12.8245 13.285 12.6238 13.285H12.5335C12.3329 13.285 12.172 13.1221 12.1546 12.9223C12.0697 11.9453 11.6439 11.0245 10.9455 10.3252C10.1658 9.54448 9.10978 9.10315 8.00698 9.09654C8.00044 9.09658 7.99389 9.0966 7.98734 9.0966ZM8.12103 8.28684C8.07655 8.28561 8.032 8.28496 7.98738 8.28491L8.12103 8.28684ZM8.12103 8.28684C8.39881 8.27167 8.67348 8.20924 8.93287 8.10078C9.38054 7.91359 9.76257 7.59774 10.0306 7.19324C10.2986 6.78875 10.4405 6.3138 10.4383 5.82858C10.434 5.18086 10.1741 4.56106 9.71504 4.10406C9.25601 3.64707 8.63507 3.38987 7.98734 3.38845C7.50212 3.38845 7.02781 3.53248 6.62451 3.80229C6.22122 4.0721 5.90708 4.45554 5.72189 4.90404C5.5367 5.35254 5.48881 5.84591 5.58426 6.32166C5.67972 6.79741 5.91424 7.23411 6.25811 7.57646C6.60198 7.9188 7.03972 8.15138 7.51589 8.24471C7.62781 8.26665 7.74067 8.28067 7.85366 8.28684C7.89814 8.28561 7.94269 8.28496 7.98731 8.28491"
          fill="var(--color-primary-text)"/>
    <path d="M8.12103 8.28684L8.11995 8.36183L8.12212 8.21185L8.12103 8.28684ZM7.9863 8.3599L8.11995 8.36183L8.12212 8.21185L7.98847 8.20992L7.9863 8.3599ZM7.98623 8.3599L8.11995 8.36183L8.12212 8.21185L7.98839 8.20992L7.98623 8.3599ZM7.96771 9.09654L7.96816 8.94654L7.96681 8.94655L7.96771 9.09654ZM7.98734 9.0966L7.98689 9.2466H7.98734V9.0966ZM5.0292 10.3252L5.13533 10.4312H5.13533L5.0292 10.3252ZM3.82007 12.9223L3.67063 12.9093L3.82007 12.9223ZM3.00093 12.9218L2.85133 12.9108L3.00093 12.9218ZM4.45342 9.75099L4.55948 9.85706H4.55948L4.45342 9.75099ZM6.25159 8.59753L6.30377 8.73816L6.58932 8.63221L6.33126 8.47044L6.25159 8.59753ZM6.17174 8.54584L6.25507 8.42112L6.25507 8.42112L6.17174 8.54584ZM4.9681 7.0792L4.82952 7.1366L4.9681 7.0792ZM4.78214 5.19102L4.92925 5.22028L4.78214 5.19102ZM5.67652 3.51773L5.57045 3.41167L5.67652 3.51773ZM7.34979 2.62334L7.32052 2.47622L7.34979 2.62334ZM9.23795 2.80931L9.29535 2.67073V2.67073L9.23795 2.80931ZM10.2982 8.13942L10.4042 8.24549L10.2982 8.13942ZM9.72311 8.59753L9.64344 8.47044L9.38537 8.63221L9.67093 8.73816L9.72311 8.59753ZM11.5213 9.75099L11.6273 9.64493L11.5213 9.75099ZM12.9738 12.9218L12.8242 12.9328L12.9738 12.9218ZM12.1546 12.9223L12.0052 12.9353L12.1546 12.9223ZM10.9455 10.3252L10.8394 10.4312L10.9455 10.3252ZM8.00698 9.09654L8.00788 8.94654L8.00608 8.94655L8.00698 9.09654ZM8.12103 8.28684L8.11685 8.43729L8.12921 8.43662L8.12103 8.28684ZM8.93287 8.10078L8.87501 7.96239H8.87501L8.93287 8.10078ZM10.0306 7.19324L9.90553 7.1104L10.0306 7.19324ZM10.4383 5.82858L10.5883 5.82791L10.5883 5.82758L10.4383 5.82858ZM9.71504 4.10406L9.82088 3.99776L9.71504 4.10406ZM7.98734 3.38845L7.98767 3.23845L7.98734 3.23845L7.98734 3.38845ZM6.62451 3.80229L6.54111 3.67762V3.67762L6.62451 3.80229ZM5.72189 4.90404L5.86054 4.96129L5.86054 4.96128L5.72189 4.90404ZM5.58426 6.32166L5.4372 6.35117L5.58426 6.32166ZM6.25811 7.57646L6.36394 7.47016L6.25811 7.57646ZM7.51589 8.24471L7.48703 8.39191L7.51589 8.24471ZM7.85366 8.28684L7.84545 8.43713L7.85783 8.43678L7.85366 8.28684ZM7.96726 9.24654L7.98689 9.2466L7.98779 8.9466L7.96816 8.94654L7.96726 9.24654ZM5.13533 10.4312C5.88709 9.67844 6.9053 9.25291 7.96861 9.24654L7.96681 8.94655C6.82451 8.95339 5.73067 9.41053 4.92306 10.2192L5.13533 10.4312ZM3.9695 12.9353C4.05135 11.9932 4.46192 11.1055 5.13533 10.4312L4.92306 10.2192C4.19962 10.9436 3.75855 11.8973 3.67063 12.9093L3.9695 12.9353ZM3.44123 13.435C3.7276 13.435 3.94613 13.2043 3.9695 12.9353L3.67063 12.9093C3.65929 13.0398 3.55595 13.135 3.44123 13.135V13.435ZM3.35085 13.435H3.44123V13.135H3.35085V13.435ZM2.85133 12.9108C2.82961 13.2051 3.0704 13.435 3.35085 13.435V13.135C3.22991 13.135 3.1427 13.0388 3.15052 12.9328L2.85133 12.9108ZM4.34735 9.64493C3.47044 10.5218 2.94201 11.6822 2.85133 12.9108L3.15052 12.9328C3.23592 11.7758 3.7336 10.6829 4.55948 9.85706L4.34735 9.64493ZM6.19941 8.4569C5.51026 8.71262 4.87709 9.11519 4.34735 9.64493L4.55948 9.85706C5.05839 9.35814 5.65471 8.979 6.30377 8.73816L6.19941 8.4569ZM6.0884 8.67056C6.11601 8.689 6.14385 8.70703 6.17192 8.72462L6.33126 8.47044C6.30566 8.45439 6.28026 8.43795 6.25507 8.42112L6.0884 8.67056ZM4.82952 7.1366C5.08822 7.76116 5.52632 8.29498 6.0884 8.67056L6.25507 8.42112C5.74232 8.07851 5.34268 7.59154 5.10669 7.02179L4.82952 7.1366ZM4.63502 5.16175C4.50313 5.82478 4.57082 6.51204 4.82952 7.1366L5.10669 7.02179C4.87069 6.45205 4.80895 5.82512 4.92925 5.22028L4.63502 5.16175ZM5.57045 3.41167C5.09244 3.88969 4.7669 4.49872 4.63502 5.16175L4.92925 5.22028C5.04956 4.61544 5.34652 4.05986 5.78258 3.6238L5.57045 3.41167ZM7.32052 2.47622C6.6575 2.60811 6.04847 2.93365 5.57045 3.41167L5.78258 3.6238C6.21864 3.18773 6.77422 2.89077 7.37905 2.77046L7.32052 2.47622ZM9.29535 2.67073C8.67079 2.41203 7.98355 2.34434 7.32052 2.47622L7.37905 2.77046C7.98388 2.65015 8.61081 2.7119 9.18055 2.94789L9.29535 2.67073ZM10.8293 3.92962C10.4537 3.36753 9.91991 2.92943 9.29535 2.67073L9.18055 2.94789C9.75029 3.18389 10.2373 3.58354 10.5799 4.09629L10.8293 3.92962ZM11.4053 5.82858C11.4053 5.15255 11.2049 4.49171 10.8293 3.92962L10.5799 4.09629C10.9225 4.60905 11.1053 5.21189 11.1053 5.82858H11.4053ZM10.4042 8.24549C11.0452 7.60448 11.4053 6.73509 11.4053 5.82858H11.1053C11.1053 6.65553 10.7768 7.44861 10.1921 8.03335L10.4042 8.24549ZM9.80278 8.72463C10.019 8.58912 10.2209 8.42878 10.4042 8.24549L10.1921 8.03335C10.0249 8.20057 9.84064 8.34683 9.64344 8.47044L9.80278 8.72463ZM11.6273 9.64493C11.0976 9.11519 10.4644 8.71262 9.77529 8.4569L9.67093 8.73816C10.32 8.979 10.9163 9.35815 11.4152 9.85706L11.6273 9.64493ZM13.1234 12.9108C13.0327 11.6822 12.5043 10.5218 11.6273 9.64493L11.4152 9.85706C12.2411 10.6829 12.7388 11.7758 12.8242 12.9328L13.1234 12.9108ZM12.6238 13.435C12.9043 13.435 13.1451 13.2051 13.1234 12.9108L12.8242 12.9328C12.832 13.0388 12.7448 13.135 12.6238 13.135V13.435ZM12.5335 13.435H12.6238V13.135H12.5335V13.435ZM12.0052 12.9353C12.0286 13.2043 12.2471 13.435 12.5335 13.435V13.135C12.4187 13.135 12.3154 13.0398 12.3041 12.9093L12.0052 12.9353ZM10.8394 10.4312C11.5128 11.1055 11.9233 11.9932 12.0052 12.9353L12.3041 12.9093C12.2161 11.8973 11.7751 10.9436 11.0516 10.2192L10.8394 10.4312ZM8.00608 9.24654C9.06939 9.25291 10.0876 9.67844 10.8394 10.4312L11.0516 10.2192C10.244 9.41053 9.15018 8.95339 8.00788 8.94655L8.00608 9.24654ZM7.98734 9.2466C7.9942 9.2466 8.00104 9.24658 8.00788 9.24654L8.00608 8.94655C7.99983 8.94658 7.99358 8.9466 7.98734 8.9466V9.2466ZM8.1252 8.1369C8.07939 8.13563 8.0335 8.13496 7.98755 8.13491L7.98722 8.43491C8.0305 8.43496 8.07372 8.43559 8.11687 8.43678L8.1252 8.1369ZM8.87501 7.96239C8.63149 8.06421 8.37364 8.12282 8.11285 8.13707L8.12921 8.43662C8.42399 8.42052 8.71547 8.35426 8.99074 8.23916L8.87501 7.96239ZM9.90553 7.1104C9.65393 7.49014 9.29528 7.78666 8.87501 7.96239L8.99074 8.23916C9.4658 8.04053 9.87122 7.70535 10.1556 7.27609L9.90553 7.1104ZM10.2883 5.82924C10.2904 6.28477 10.1571 6.73065 9.90553 7.1104L10.1556 7.27609C10.44 6.84684 10.5906 6.34283 10.5883 5.82791L10.2883 5.82924ZM9.60921 4.21036C10.0402 4.63945 10.2843 5.22141 10.2883 5.82957L10.5883 5.82758C10.5838 5.14031 10.3079 4.48266 9.82088 3.99776L9.60921 4.21036ZM7.98701 3.53845C8.59518 3.53978 9.17821 3.78127 9.60921 4.21036L9.82088 3.99776C9.33381 3.51286 8.67495 3.23996 7.98767 3.23845L7.98701 3.53845ZM6.70792 3.92696C7.08654 3.67367 7.53181 3.53845 7.98734 3.53845L7.98734 3.23845C7.47242 3.23845 6.96909 3.3913 6.54111 3.67762L6.70792 3.92696ZM5.86054 4.96128C6.03439 4.54023 6.3293 4.18026 6.70792 3.92696L6.54111 3.67762C6.11313 3.96393 5.77976 4.37084 5.58324 4.84679L5.86054 4.96128ZM5.73133 6.29215C5.64172 5.84552 5.68668 5.38234 5.86054 4.96129L5.58324 4.84679C5.38672 5.32274 5.3359 5.84631 5.4372 6.35117L5.73133 6.29215ZM6.36394 7.47016C6.04112 7.14876 5.82095 6.73878 5.73133 6.29215L5.4372 6.35117C5.5385 6.85603 5.78737 7.31947 6.15228 7.68276L6.36394 7.47016ZM7.54474 8.09752C7.09772 8.00989 6.68677 7.79155 6.36394 7.47016L6.15228 7.68276C6.5172 8.04605 6.98173 8.29286 7.48703 8.39191L7.54474 8.09752ZM7.86185 8.13707C7.75577 8.13127 7.64982 8.11811 7.54474 8.09752L7.48703 8.39191C7.6058 8.4152 7.72557 8.43007 7.84548 8.43662L7.86185 8.13707ZM7.98714 8.13491C7.94119 8.13496 7.89531 8.13563 7.8495 8.1369L7.85783 8.43678C7.90098 8.43559 7.94419 8.43496 7.98747 8.43491L7.98714 8.13491Z"
          fill="var(--color-primary-text)" mask="url(#path-1-outside-1_3837_39844)"/>
</svg>