<svg width="16" height="16" viewBox="0 0 16 16" fill="none" xmlns="http://www.w3.org/2000/svg">
    <path d="M8.23498 11.8983C8.23318 12.1621 8.01884 12.375 7.75505 12.375H1.55444C1.4245 12.3733 1.30036 12.3222 1.20847 12.2326C1.11657 12.1429 1.0642 12.0218 1.0625 11.8951V3.47995C1.0642 3.35317 1.11657 3.23206 1.20847 3.14241C1.30036 3.05276 1.4245 3.00166 1.55444 3H13.6956C13.8255 3.00166 13.9496 3.05276 14.0415 3.14241C14.1334 3.23206 14.1858 3.35317 14.1875 3.47995V5.54773C14.1875 5.81942 13.9673 6.03967 13.6956 6.03967C13.4239 6.03967 13.2036 5.81942 13.2036 5.54773V4.4343C13.2036 4.15816 12.9798 3.9343 12.7036 3.9343H2.55294C2.2768 3.9343 2.05294 4.15816 2.05294 4.4343V10.9151C2.05294 11.1912 2.2768 11.4151 2.55294 11.4151H7.75505C8.0214 11.4151 8.2368 11.632 8.23498 11.8983Z"
          fill="var(--color-primary-text)"/>
    <mask id="path-2-outside-1_3837_39348" maskUnits="userSpaceOnUse" x="8" y="5" width="7" height="8" fill="var(--color-primary-text)">
        <rect fill="var(--color-bg)" x="8" y="5" width="7" height="8"/>
        <path fill-rule="evenodd" clip-rule="evenodd"
              d="M11.7884 9.65667C11.1675 9.65748 10.5723 9.90472 10.1335 10.3441C9.74873 10.7293 9.51186 11.2346 9.45934 11.7719C9.44707 11.8974 9.34596 11.9999 9.21981 11.9999C9.09357 11.9999 8.9903 11.8973 9.00073 11.7715C9.05527 11.1136 9.34104 10.4932 9.81135 10.0228C10.0991 9.73506 10.4431 9.51638 10.8175 9.37748C10.8024 9.36804 10.7875 9.35838 10.7727 9.34849C10.472 9.14759 10.2377 8.86205 10.0993 8.52797C9.96094 8.19389 9.92473 7.82628 9.99528 7.47162C10.0658 7.11697 10.24 6.79119 10.4956 6.5355C10.7513 6.27981 11.0771 6.10568 11.4318 6.03513C11.7864 5.96459 12.154 6.00079 12.4881 6.13917C12.8222 6.27755 13.1077 6.51189 13.3086 6.81255C13.5095 7.11322 13.6167 7.4667 13.6167 7.82831C13.6167 8.3132 13.4241 8.77824 13.0812 9.12112C12.9832 9.2192 12.8751 9.30499 12.7594 9.37749C13.1338 9.51639 13.4777 9.73507 13.7655 10.0228C14.2358 10.4932 14.5216 11.1136 14.5761 11.7715C14.5866 11.8973 14.4833 11.9999 14.357 11.9999C14.2309 11.9999 14.1298 11.8974 14.1175 11.7719C14.065 11.2346 13.8281 10.7293 13.4434 10.3441C13.0046 9.90471 12.4094 9.65747 11.7884 9.65667ZM11.7884 9.20264C11.764 9.20266 11.7395 9.20301 11.7152 9.20367C11.6515 9.20026 11.5878 9.1924 11.5247 9.18002C11.2583 9.1278 11.0134 8.99769 10.821 8.80617C10.6286 8.61464 10.4974 8.37032 10.444 8.10417C10.3906 7.83801 10.4174 7.56199 10.521 7.31107C10.6246 7.06016 10.8004 6.84564 11.026 6.6947C11.2516 6.54375 11.517 6.46317 11.7884 6.46317C12.1508 6.46397 12.4982 6.60786 12.755 6.86352C13.0118 7.11919 13.1572 7.46594 13.1597 7.82831C13.1609 8.09977 13.0815 8.36548 12.9315 8.59178C12.7816 8.81807 12.5679 8.99478 12.3174 9.0995C12.1718 9.16037 12.0176 9.19533 11.8617 9.20367C11.8373 9.20301 11.8129 9.20266 11.7884 9.20264"/>
    </mask>
    <path fill-rule="evenodd" clip-rule="evenodd"
          d="M11.7884 9.65667C11.1675 9.65748 10.5723 9.90472 10.1335 10.3441C9.74873 10.7293 9.51186 11.2346 9.45934 11.7719C9.44707 11.8974 9.34596 11.9999 9.21981 11.9999C9.09357 11.9999 8.9903 11.8973 9.00073 11.7715C9.05527 11.1136 9.34104 10.4932 9.81135 10.0228C10.0991 9.73506 10.4431 9.51638 10.8175 9.37748C10.8024 9.36804 10.7875 9.35838 10.7727 9.34849C10.472 9.14759 10.2377 8.86205 10.0993 8.52797C9.96094 8.19389 9.92473 7.82628 9.99528 7.47162C10.0658 7.11697 10.24 6.79119 10.4956 6.5355C10.7513 6.27981 11.0771 6.10568 11.4318 6.03513C11.7864 5.96459 12.154 6.00079 12.4881 6.13917C12.8222 6.27755 13.1077 6.51189 13.3086 6.81255C13.5095 7.11322 13.6167 7.4667 13.6167 7.82831C13.6167 8.3132 13.4241 8.77824 13.0812 9.12112C12.9832 9.2192 12.8751 9.30499 12.7594 9.37749C13.1338 9.51639 13.4777 9.73507 13.7655 10.0228C14.2358 10.4932 14.5216 11.1136 14.5761 11.7715C14.5866 11.8973 14.4833 11.9999 14.357 11.9999C14.2309 11.9999 14.1298 11.8974 14.1175 11.7719C14.065 11.2346 13.8281 10.7293 13.4434 10.3441C13.0046 9.90471 12.4094 9.65747 11.7884 9.65667ZM11.7884 9.20264C11.764 9.20266 11.7395 9.20301 11.7152 9.20367C11.6515 9.20026 11.5878 9.1924 11.5247 9.18002C11.2583 9.1278 11.0134 8.99769 10.821 8.80617C10.6286 8.61464 10.4974 8.37032 10.444 8.10417C10.3906 7.83801 10.4174 7.56199 10.521 7.31107C10.6246 7.06016 10.8004 6.84564 11.026 6.6947C11.2516 6.54375 11.517 6.46317 11.7884 6.46317C12.1508 6.46397 12.4982 6.60786 12.755 6.86352C13.0118 7.11919 13.1572 7.46594 13.1597 7.82831C13.1609 8.09977 13.0815 8.36548 12.9315 8.59178C12.7816 8.81807 12.5679 8.99478 12.3174 9.0995C12.1718 9.16037 12.0176 9.19533 11.8617 9.20367C11.8373 9.20301 11.8129 9.20266 11.7884 9.20264"
          fill="var(--color-primary-text)"/>
    <path d="M11.7884 9.10264H11.7884V9.30264H11.7884V9.10264ZM10.1335 10.3441L10.275 10.4854L10.1335 10.3441ZM11.7884 9.65667L11.7887 9.45667L11.7882 9.45667L11.7884 9.65667ZM9.45934 11.7719L9.65839 11.7913V11.7913L9.45934 11.7719ZM9.00073 11.7715L8.80141 11.755H8.80141L9.00073 11.7715ZM9.81135 10.0228L9.66993 9.88142L9.81135 10.0228ZM10.8175 9.37748L10.887 9.56499L11.2678 9.42372L10.9237 9.20802L10.8175 9.37748ZM10.7727 9.34849L10.6616 9.51478L10.6616 9.51478L10.7727 9.34849ZM10.0993 8.52797L9.91454 8.60451H9.91454L10.0993 8.52797ZM10.4956 6.5355L10.3542 6.39408V6.39408L10.4956 6.5355ZM11.4318 6.03513L11.4708 6.23129L11.4318 6.03513ZM12.4881 6.13917L12.5646 5.9544L12.4881 6.13917ZM13.3086 6.81255L13.4749 6.70144V6.70144L13.3086 6.81255ZM13.0812 9.12112L13.2227 9.26254L13.0812 9.12112ZM12.7594 9.37749L12.6532 9.20802L12.309 9.42372L12.6898 9.565L12.7594 9.37749ZM13.7655 10.0228L13.9069 9.88142L13.7655 10.0228ZM14.5761 11.7715L14.7754 11.755L14.5761 11.7715ZM14.1175 11.7719L14.3166 11.7524L14.1175 11.7719ZM13.4434 10.3441L13.5849 10.2027L13.4434 10.3441ZM11.7152 9.20367L11.7045 9.40339L11.7125 9.40382L11.7206 9.4036L11.7152 9.20367ZM11.5247 9.18002L11.5632 8.98376L11.5247 9.18002ZM10.821 8.80617L10.6799 8.9479L10.6799 8.9479L10.821 8.80617ZM10.444 8.10417L10.6401 8.06482L10.6401 8.06482L10.444 8.10417ZM10.521 7.31107L10.3362 7.23474L10.521 7.31107ZM11.026 6.6947L10.9148 6.52847L10.9148 6.52847L11.026 6.6947ZM11.7884 6.46317L11.7889 6.26317L11.7884 6.26317L11.7884 6.46317ZM13.1597 7.82831L13.3597 7.82742L13.3597 7.82698L13.1597 7.82831ZM12.9315 8.59178L13.0983 8.70224L12.9315 8.59178ZM12.3174 9.0995L12.2403 8.91498L12.3174 9.0995ZM11.8617 9.20367L11.8563 9.4036L11.8643 9.40382L11.8724 9.40339L11.8617 9.20367ZM10.275 10.4854C10.6763 10.0835 11.2207 9.85741 11.7887 9.85667L11.7882 9.45667C11.1142 9.45755 10.4682 9.72589 9.99196 10.2027L10.275 10.4854ZM9.65839 11.7913C9.70643 11.3 9.92309 10.8378 10.275 10.4854L9.99196 10.2027C9.57438 10.6209 9.31729 11.1693 9.26029 11.7524L9.65839 11.7913ZM9.21981 12.1999C9.4608 12.1999 9.63731 12.007 9.65839 11.7913L9.26029 11.7524C9.2588 11.7677 9.25185 11.7809 9.243 11.7895C9.23474 11.7975 9.22685 11.7999 9.21981 11.7999V12.1999ZM8.80141 11.755C8.78041 12.0083 8.9878 12.1999 9.21981 12.1999V11.7999C9.21134 11.7999 9.20543 11.7966 9.2023 11.7934C9.20083 11.7919 9.20033 11.7908 9.20019 11.7904C9.20015 11.7903 9.1999 11.7898 9.20004 11.7881L8.80141 11.755ZM9.66993 9.88142C9.16603 10.3853 8.85985 11.05 8.80141 11.755L9.20004 11.7881C9.25069 11.1771 9.51606 10.601 9.95277 10.1643L9.66993 9.88142ZM10.7479 9.18997C10.3468 9.33878 9.97826 9.57309 9.66993 9.88142L9.95277 10.1643C10.22 9.89704 10.5394 9.69397 10.887 9.56499L10.7479 9.18997ZM10.6616 9.51478C10.678 9.52576 10.6946 9.53648 10.7113 9.54694L10.9237 9.20802C10.9103 9.19961 10.897 9.19101 10.8838 9.1822L10.6616 9.51478ZM9.91454 8.60451C10.0681 8.97513 10.328 9.29191 10.6616 9.51478L10.8838 9.1822C10.616 9.00328 10.4073 8.74897 10.2841 8.45143L9.91454 8.60451ZM9.79912 7.43261C9.72086 7.82606 9.76103 8.23388 9.91454 8.60451L10.2841 8.45143C10.1609 8.1539 10.1286 7.8265 10.1914 7.51064L9.79912 7.43261ZM10.3542 6.39408C10.0706 6.67774 9.87738 7.03915 9.79912 7.43261L10.1914 7.51064C10.2543 7.19478 10.4093 6.90464 10.6371 6.67692L10.3542 6.39408ZM11.3927 5.83897C10.9993 5.91724 10.6379 6.11041 10.3542 6.39408L10.6371 6.67692C10.8648 6.4492 11.1549 6.29412 11.4708 6.23129L11.3927 5.83897ZM12.5646 5.9544C12.194 5.80088 11.7862 5.76071 11.3927 5.83897L11.4708 6.23129C11.7866 6.16846 12.114 6.20071 12.4116 6.32395L12.5646 5.9544ZM13.4749 6.70144C13.252 6.36789 12.9353 6.10791 12.5646 5.9544L12.4116 6.32395C12.7091 6.44719 12.9634 6.65589 13.1423 6.92367L13.4749 6.70144ZM13.8167 7.82831C13.8167 7.42715 13.6978 7.03499 13.4749 6.70144L13.1423 6.92367C13.3212 7.19144 13.4167 7.50626 13.4167 7.82831H13.8167ZM13.2227 9.26254C13.603 8.88216 13.8167 8.36625 13.8167 7.82831H13.4167C13.4167 8.26016 13.2452 8.67433 12.9398 8.9797L13.2227 9.26254ZM12.8656 9.54696C12.9939 9.46652 13.1139 9.37134 13.2227 9.26254L12.9398 8.9797C12.8525 9.06706 12.7562 9.14346 12.6532 9.20802L12.8656 9.54696ZM13.9069 9.88142C13.5986 9.57309 13.2301 9.33879 12.829 9.18998L12.6898 9.565C13.0375 9.69398 13.3569 9.89704 13.6241 10.1643L13.9069 9.88142ZM14.7754 11.755C14.717 11.05 14.4108 10.3853 13.9069 9.88142L13.6241 10.1643C14.0608 10.601 14.3262 11.1771 14.3768 11.7881L14.7754 11.755ZM14.357 12.1999C14.589 12.1999 14.7964 12.0083 14.7754 11.755L14.3768 11.7881C14.3769 11.7898 14.3767 11.7903 14.3767 11.7904C14.3765 11.7908 14.376 11.7919 14.3746 11.7934C14.3714 11.7966 14.3655 11.7999 14.357 11.7999V12.1999ZM13.9185 11.7913C13.9395 12.007 14.1161 12.1999 14.357 12.1999V11.7999C14.35 11.7999 14.3421 11.7975 14.3339 11.7895C14.325 11.7809 14.3181 11.7677 14.3166 11.7524L13.9185 11.7913ZM13.3019 10.4854C13.6538 10.8378 13.8704 11.3 13.9185 11.7913L14.3166 11.7524C14.2596 11.1693 14.0025 10.6209 13.5849 10.2027L13.3019 10.4854ZM11.7882 9.85667C12.3561 9.8574 12.9005 10.0835 13.3019 10.4854L13.5849 10.2027C13.1087 9.72588 12.4626 9.45754 11.7887 9.45667L11.7882 9.85667ZM11.7206 9.4036C11.7433 9.40298 11.7659 9.40266 11.7886 9.40264L11.7882 9.00264C11.762 9.00267 11.7358 9.00304 11.7097 9.00375L11.7206 9.4036ZM11.4862 9.37629C11.5585 9.39047 11.6315 9.39948 11.7045 9.40339L11.7259 9.00396C11.6714 9.00105 11.6171 8.99433 11.5632 8.98376L11.4862 9.37629ZM10.6799 8.9479C10.9003 9.16736 11.181 9.31645 11.4862 9.37629L11.5632 8.98376C11.3356 8.93916 11.1264 8.82802 10.9621 8.66443L10.6799 8.9479ZM10.2479 8.14351C10.3091 8.44849 10.4595 8.72844 10.6799 8.9479L10.9621 8.66443C10.7978 8.50084 10.6857 8.29216 10.6401 8.06482L10.2479 8.14351ZM10.3362 7.23474C10.2175 7.52225 10.1867 7.83853 10.2479 8.14351L10.6401 8.06482C10.5945 7.83748 10.6174 7.60172 10.7059 7.3874L10.3362 7.23474ZM10.9148 6.52847C10.6563 6.70143 10.4549 6.94723 10.3362 7.23474L10.7059 7.3874C10.7944 7.17308 10.9445 6.98985 11.1372 6.86093L10.9148 6.52847ZM11.7884 6.26317C11.4774 6.26317 11.1733 6.35551 10.9148 6.52847L11.1372 6.86093C11.3299 6.732 11.5566 6.66317 11.7884 6.66317L11.7884 6.26317ZM12.8961 6.72179C12.6019 6.42891 12.204 6.26408 11.7889 6.26317L11.788 6.66317C12.0976 6.66385 12.3945 6.7868 12.6139 7.00526L12.8961 6.72179ZM13.3597 7.82698C13.3569 7.41188 13.1903 7.01466 12.8961 6.72179L12.6139 7.00526C12.8333 7.22372 12.9576 7.52001 12.9597 7.82964L13.3597 7.82698ZM13.0983 8.70224C13.2701 8.44294 13.361 8.13847 13.3597 7.82742L12.9597 7.8292C12.9607 8.06106 12.8929 8.28802 12.7648 8.48131L13.0983 8.70224ZM12.3946 9.28402C12.6815 9.16402 12.9265 8.96155 13.0983 8.70224L12.7648 8.48131C12.6367 8.6746 12.4542 8.82553 12.2403 8.91498L12.3946 9.28402ZM11.8724 9.40339C12.0511 9.39383 12.2277 9.35377 12.3946 9.28402L12.2403 8.91498C12.1159 8.96697 11.9842 8.99683 11.851 9.00396L11.8724 9.40339ZM11.8671 9.00375C11.841 9.00304 11.8149 9.00267 11.7887 9.00264L11.7882 9.40264C11.8109 9.40266 11.8336 9.40298 11.8563 9.4036L11.8671 9.00375Z"
          fill="var(--color-primary-text)" mask="url(#path-2-outside-1_3837_39348)"/>
    <path d="M8.0625 5.5H4.0625C3.78636 5.5 3.5625 5.72386 3.5625 6C3.5625 6.27614 3.78636 6.5 4.0625 6.5H8.0625C8.33864 6.5 8.5625 6.27614 8.5625 6C8.5625 5.72386 8.33864 5.5 8.0625 5.5Z"
          fill="var(--color-primary-text)"/>
    <path d="M6.1875 8H4.0625C3.78636 8 3.5625 8.22386 3.5625 8.5C3.5625 8.77614 3.78636 9 4.0625 9H6.1875C6.46364 9 6.6875 8.77614 6.6875 8.5C6.6875 8.22386 6.46364 8 6.1875 8Z"
          fill="var(--color-primary-text)"/>
</svg>
