<svg width="24" height="24" viewBox="0 0 24 24" fill="none" xmlns="http://www.w3.org/2000/svg">
<path d="M20.9005 10.98H15.9005C15.8105 10.98 15.7305 10.71 15.7305 10.38C15.7305 10.05 15.8105 9.78003 15.9005 9.78003H20.9005C20.9905 9.78003 21.0705 10.05 21.0705 10.38C21.0705 10.71 21.0005 10.98 20.9005 10.98Z" fill="currentColor"/>
<path d="M19.4596 15.67C18.5268 15.0379 17.5191 14.5239 16.4596 14.14C16.6181 13.4296 16.7151 12.707 16.7496 11.98C16.7496 11.78 16.7496 11.57 16.7496 11.37C16.7496 11.17 16.7496 11.06 16.7496 10.9C16.7269 10.0088 16.6027 9.12311 16.3796 8.25999C15.8634 6.32494 14.8855 4.544 13.5296 3.06999L13.1996 2.72999C13.1002 2.63596 12.9716 2.57874 12.8352 2.56783C12.6988 2.55692 12.5628 2.59296 12.4496 2.66999C12.3431 2.60963 12.2203 2.58393 12.0985 2.59648C11.9766 2.60902 11.8617 2.65918 11.7696 2.73999L11.4396 3.04C10.001 4.40577 8.9164 6.10125 8.27965 7.97999C8.08987 8.55916 7.93952 9.15051 7.82965 9.74999H3.32965C3.08965 9.74999 2.88965 10.02 2.88965 10.35C2.88965 10.68 3.08965 10.95 3.32965 10.95H7.66965C7.66965 11.27 7.66965 11.6 7.66965 11.95V11.98C7.66304 12.6158 7.70651 13.2511 7.79965 13.88C6.61674 14.2297 5.48651 14.7376 4.43965 15.39C4.33091 15.4844 4.25977 15.6148 4.23922 15.7574C4.21866 15.8999 4.25008 16.0451 4.32771 16.1664C4.40535 16.2877 4.52403 16.3771 4.66208 16.4181C4.80014 16.4592 4.94835 16.4492 5.07965 16.39C6.0137 15.8058 7.02298 15.3517 8.07965 15.04C8.20973 15.547 8.37342 16.0448 8.56965 16.53C9.11996 17.8795 9.91308 19.1166 10.9096 20.18C10.9096 20.23 10.9996 20.26 11.0396 20.31C10.9647 20.4151 10.9244 20.5409 10.9244 20.67C10.9244 20.7991 10.9647 20.9249 11.0396 21.03C11.0981 21.1042 11.1725 21.1643 11.2573 21.2058C11.3421 21.2473 11.4352 21.2693 11.5296 21.27C11.6592 21.2686 11.7851 21.2266 11.8896 21.15C11.9484 21.2026 12.0173 21.2427 12.0921 21.2678C12.167 21.2929 12.2461 21.3025 12.3247 21.2959C12.4034 21.2893 12.4798 21.2668 12.5494 21.2297C12.6191 21.1926 12.6804 21.1416 12.7296 21.08C12.81 20.9791 12.8537 20.854 12.8537 20.725C12.8537 20.596 12.81 20.4709 12.7296 20.37L12.9196 20.21C13.9785 19.2024 14.8489 18.0137 15.4896 16.7C15.7088 16.2355 15.8992 15.7579 16.0596 15.27C17.0036 15.6171 17.9006 16.0806 18.7296 16.65C18.8301 16.7174 18.9487 16.7523 19.0696 16.75C19.1665 16.751 19.2622 16.7278 19.3477 16.6824C19.4333 16.637 19.5062 16.5708 19.5596 16.49C19.6489 16.3657 19.6881 16.2124 19.6696 16.0605C19.6511 15.9086 19.5761 15.7692 19.4596 15.67ZM9.45965 8.33999C10.0296 6.68542 10.9861 5.19071 12.2496 3.97999L12.4596 3.77999L12.6196 3.95C13.8442 5.25997 14.7299 6.84944 15.1996 8.57999C15.2922 8.95603 15.3656 9.33652 15.4196 9.72H9.05965C9.149 9.25254 9.26926 8.79153 9.41965 8.33999H9.45965ZM8.82965 11.98V11.91C8.82965 11.58 8.82965 11.25 8.87965 10.91H15.5296C15.5296 11.06 15.5296 11.22 15.5296 11.37C15.5296 11.52 15.5296 11.73 15.5296 11.92C15.4969 12.5358 15.4133 13.1479 15.2796 13.75L14.8696 13.64C13.8407 13.3964 12.7871 13.2723 11.7296 13.27C10.935 13.2691 10.1418 13.3394 9.35965 13.48C9.21965 13.48 9.08965 13.54 8.95965 13.57C8.87789 13.0438 8.83444 12.5124 8.82965 11.98ZM14.4596 16.2C13.8806 17.386 13.095 18.4594 12.1396 19.37L11.9296 19.55C11.9296 19.49 11.8196 19.45 11.7696 19.39C10.8714 18.4313 10.1562 17.3163 9.65965 16.1C9.48314 15.6671 9.33614 15.2227 9.21965 14.77L9.56965 14.69C10.2867 14.5697 11.0126 14.5095 11.7396 14.51C12.7058 14.5093 13.6688 14.6201 14.6096 14.84C14.7296 14.84 14.8496 14.91 14.9696 14.94C14.8244 15.3663 14.6541 15.7837 14.4596 16.19V16.2Z" fill="currentColor"/>
<path d="M12.0498 21.8401C10.072 21.8401 8.1386 21.2536 6.49411 20.1548C4.84962 19.056 3.56789 17.4942 2.81101 15.6669C2.05414 13.8397 1.8561 11.829 2.24196 9.88919C2.62781 7.94938 3.58022 6.16755 4.97874 4.76903C6.37727 3.3705 8.1591 2.41809 10.0989 2.03224C12.0387 1.64639 14.0494 1.84442 15.8766 2.6013C17.7039 3.35817 19.2657 4.6399 20.3645 6.28439C21.4633 7.92888 22.0498 9.86228 22.0498 11.8401C22.0341 14.4874 20.9754 17.0218 19.1035 18.8938C17.2315 20.7657 14.6971 21.8244 12.0498 21.8401ZM12.0498 3.10009C10.3287 3.09811 8.64565 3.60668 7.21363 4.56144C5.7816 5.51621 4.66495 6.87427 4.00493 8.46381C3.34491 10.0534 3.1712 11.8029 3.50576 13.4912C3.84032 15.1795 4.66813 16.7307 5.88444 17.9484C7.10076 19.1661 8.65094 19.9957 10.3388 20.3322C12.0267 20.6687 13.7765 20.497 15.3668 19.8388C16.9571 19.1806 18.3165 18.0655 19.2729 16.6346C20.2293 15.2037 20.7398 13.5212 20.7398 11.8001C20.7372 9.49525 19.8211 7.28542 18.1923 5.65471C16.5634 4.024 14.3546 3.10538 12.0498 3.10009Z" fill="currentColor"/>
</svg>
