<svg width="20" height="20" viewBox="0 0 20 20" fill="none" xmlns="http://www.w3.org/2000/svg">
<circle cx="10" cy="10" r="10" fill="#1DA2B4"/>
<path fill-rule="evenodd" clip-rule="evenodd" d="M7.691 11.8253H6.44434C6.52256 12.8519 6.85011 13.6561 7.427 14.2379C8.00389 14.8197 8.78122 15.1595 9.759 15.2573V16.4599H10.5657V15.2573C11.035 15.2181 11.4652 15.1204 11.8563 14.9639C12.2474 14.8075 12.5848 14.5948 12.8683 14.3259C13.1519 14.057 13.3743 13.7368 13.5357 13.3653C13.697 12.9937 13.7777 12.5684 13.7777 12.0893C13.7777 11.6395 13.6921 11.2533 13.521 10.9306C13.3499 10.6079 13.1421 10.339 12.8977 10.1239C12.6532 9.90881 12.399 9.74014 12.135 9.61792C11.871 9.4957 11.6412 9.41014 11.4457 9.36125L10.5657 9.12659V5.51858C11.4652 5.68481 12.0128 6.25192 12.2083 7.21992H13.455C13.2594 6.35947 12.927 5.68481 12.4577 5.19592C11.9883 4.70703 11.3577 4.4137 10.5657 4.31592V3.33325H9.759V4.30125C9.33856 4.33059 8.945 4.42347 8.57834 4.57992C8.21167 4.73636 7.89389 4.94903 7.625 5.21792C7.35611 5.48681 7.14345 5.80459 6.987 6.17125C6.83056 6.53792 6.75234 6.94125 6.75234 7.38125C6.75234 7.81147 6.811 8.17814 6.92834 8.48125C7.04567 8.78436 7.229 9.04103 7.47834 9.25125C7.72767 9.46147 8.04056 9.64236 8.417 9.79392C8.79345 9.94547 9.24078 10.0848 9.759 10.2119V14.0986C9.17234 14.0008 8.68589 13.7613 8.29967 13.3799C7.91345 12.9986 7.71056 12.4804 7.691 11.8253ZM10.5657 14.0986V10.4173C10.8297 10.4955 11.079 10.581 11.3137 10.6739C11.5483 10.7668 11.7488 10.8817 11.915 11.0186C12.0812 11.1555 12.2132 11.3193 12.311 11.5099C12.4088 11.7006 12.4577 11.9377 12.4577 12.2213C12.4577 12.5341 12.4112 12.8055 12.3183 13.0353C12.2254 13.265 12.0934 13.4557 11.9223 13.6073C11.7512 13.7588 11.5508 13.8737 11.321 13.9519C11.0912 14.0301 10.8394 14.079 10.5657 14.0986ZM9.759 8.90659V5.47459C9.28967 5.52347 8.89122 5.69214 8.56367 5.98059C8.23611 6.26903 8.07234 6.69192 8.07234 7.24925C8.07234 7.50347 8.11389 7.72103 8.197 7.90192C8.28011 8.08281 8.39745 8.23436 8.549 8.35659C8.70056 8.47881 8.879 8.58392 9.08434 8.67192C9.28967 8.75992 9.51456 8.83814 9.759 8.90659Z" fill="white"/>
</svg>
