<svg width="14" height="14" viewBox="0 0 14 14" fill="none" xmlns="http://www.w3.org/2000/svg">
<g id="TelegramLogo">
<path id="Vector" d="M12.9544 1.43229C12.8866 1.37375 12.8041 1.33483 12.7158 1.3197C12.6276 1.30457 12.5368 1.31381 12.4534 1.34643L1.37045 5.68369C1.21338 5.74477 1.0804 5.85522 0.991538 5.99841C0.902671 6.14161 0.862726 6.30979 0.877717 6.47765C0.892708 6.64551 0.961823 6.80396 1.07466 6.92914C1.18749 7.05432 1.33794 7.13946 1.50334 7.17174L4.37499 7.73557V10.9375C4.37442 11.1119 4.42625 11.2825 4.52376 11.4271C4.62127 11.5717 4.75996 11.6837 4.92186 11.7485C5.08351 11.8145 5.26129 11.8304 5.43206 11.794C5.60284 11.7576 5.75872 11.6707 5.87944 11.5446L7.26413 10.1085L9.46092 12.0313C9.61942 12.1719 9.82383 12.2497 10.0357 12.25C10.1285 12.2499 10.2208 12.2354 10.3091 12.2068C10.4535 12.161 10.5833 12.0782 10.6857 11.9666C10.7881 11.855 10.8594 11.7186 10.8926 11.5708L13.1124 1.91408C13.1323 1.82699 13.128 1.73614 13.1002 1.65127C13.0724 1.56639 13.0219 1.49069 12.9544 1.43229ZM9.61077 3.40104L4.71131 6.90979L1.99881 6.37768L9.61077 3.40104ZM5.24999 10.9375V8.34096L6.60569 9.52987L5.24999 10.9375ZM10.0368 11.375L5.51522 7.41018L12.023 2.74588L10.0368 11.375Z" fill="#898989"/>
</g>
</svg>
