<svg width="24" height="24" viewBox="0 0 24 24" fill="none" xmlns="http://www.w3.org/2000/svg">
    <path
        d="M19.1101 18.6604L18.9801 18.7704C18.0379 19.5998 16.9285 20.2171 15.7269 20.5803C14.5254 20.9436 13.2598 21.0444 12.0159 20.8759C10.7721 20.7074 9.5789 20.2735 8.51731 19.6037C7.45572 18.9339 6.55048 18.0438 5.86291 16.9936C5.17533 15.9434 4.72148 14.7577 4.5321 13.5168C4.34271 12.2759 4.42221 11.0089 4.76522 9.80139C5.10823 8.59392 5.70675 7.47427 6.52021 6.51827C7.33367 5.56228 8.34308 4.79227 9.48008 4.2604C9.13098 5.66727 9.09605 7.13377 9.37777 8.55566C9.65949 9.97755 10.2509 11.3199 11.1101 12.4874C11.9692 13.6549 13.075 14.6188 14.3487 15.3107C15.6225 16.0025 17.033 16.4053 18.4801 16.4904H18.6201L18.2601 14.9804H18.1901C16.8871 14.8356 15.636 14.3881 14.5367 13.6737C13.4374 12.9594 12.5203 11.9979 11.8587 10.866C11.1971 9.73419 10.8092 8.46334 10.7261 7.15495C10.643 5.84656 10.867 4.53685 11.3801 3.3304C11.4357 3.20232 11.454 3.0611 11.4327 2.92307C11.4115 2.78505 11.3516 2.65585 11.2601 2.5504C11.1662 2.44664 11.0459 2.37041 10.912 2.32988C10.7781 2.28936 10.6357 2.28608 10.5001 2.3204C8.10882 2.98058 6.03772 4.48477 4.6702 6.55453C3.30269 8.62428 2.73138 11.1194 3.06203 13.578C3.39269 16.0366 4.60292 18.2921 6.46868 19.927C8.33444 21.5619 10.7294 22.4655 13.2101 22.4704C15.4818 22.4756 17.6896 21.7185 19.4801 20.3204H19.5301L19.1101 18.6604Z"
        fill="var(--color-primary-text)" />
    <path
        d="M22.8653 14.6246C22.7643 14.5293 22.6389 14.4639 22.503 14.4356C22.367 14.4074 22.2259 14.4174 22.0953 14.4646C21.1755 14.7998 20.2043 14.9724 19.2253 14.9746C18.9189 14.9937 18.6117 14.9937 18.3053 14.9746H18.1853L18.5553 16.4846H18.7753C19.549 16.531 20.3254 16.4772 21.0853 16.3246C20.5757 17.2203 19.9122 18.0192 19.1253 18.6846L19.5153 20.2946L19.6353 20.1946C21.2479 18.9521 22.4528 17.2563 23.0953 15.3246C23.1195 15.198 23.111 15.0673 23.0708 14.9449C23.0306 14.8224 22.9598 14.7122 22.8653 14.6246Z"
        fill="var(--color-primary-text)" />
</svg>
    